<?xml version="1.0" encoding="UTF-8" standalone="no"?>
<svg
   width="500mm"
   height="350mm"
   viewBox="0 0 500 350"
   version="1.1"
   id="svg16"
   sodipodi:docname="Names Round 1 just names.svg"
   inkscape:version="1.4.2 (2aeb623e1d, 2025-05-12)"
   xmlns:inkscape="http://www.inkscape.org/namespaces/inkscape"
   xmlns:sodipodi="http://sodipodi.sourceforge.net/DTD/sodipodi-0.dtd"
   xmlns:xlink="http://www.w3.org/1999/xlink"
   xmlns="http://www.w3.org/2000/svg"
   xmlns:svg="http://www.w3.org/2000/svg">
  <defs
     id="defs16">
    <inkscape:path-effect
       effect="spiro"
       id="path-effect1107"
       is_visible="true"
       lpeversion="1" />
    <inkscape:path-effect
       effect="spiro"
       id="path-effect1105"
       is_visible="true"
       lpeversion="1" />
    <inkscape:path-effect
       effect="spiro"
       id="path-effect1103"
       is_visible="true"
       lpeversion="1" />
    <inkscape:path-effect
       effect="spiro"
       id="path-effect1101"
       is_visible="true"
       lpeversion="1" />
    <inkscape:path-effect
       effect="spiro"
       id="path-effect1099"
       is_visible="true"
       lpeversion="1" />
    <inkscape:path-effect
       effect="spiro"
       id="path-effect1097"
       is_visible="true"
       lpeversion="1" />
    <inkscape:path-effect
       effect="spiro"
       id="path-effect1095"
       is_visible="true"
       lpeversion="1" />
    <inkscape:path-effect
       effect="spiro"
       id="path-effect1093"
       is_visible="true"
       lpeversion="1" />
    <inkscape:path-effect
       effect="spiro"
       id="path-effect1091"
       is_visible="true"
       lpeversion="1" />
    <inkscape:path-effect
       effect="spiro"
       id="path-effect1089"
       is_visible="true"
       lpeversion="1" />
    <inkscape:path-effect
       effect="spiro"
       id="path-effect1087"
       is_visible="true"
       lpeversion="1" />
    <inkscape:path-effect
       effect="spiro"
       id="path-effect1085"
       is_visible="true"
       lpeversion="1" />
    <inkscape:path-effect
       effect="spiro"
       id="path-effect1083"
       is_visible="true"
       lpeversion="1" />
    <inkscape:path-effect
       effect="spiro"
       id="path-effect1081"
       is_visible="true"
       lpeversion="1" />
    <inkscape:path-effect
       effect="spiro"
       id="path-effect1079"
       is_visible="true"
       lpeversion="1" />
    <inkscape:path-effect
       effect="spiro"
       id="path-effect1077"
       is_visible="true"
       lpeversion="1" />
    <inkscape:path-effect
       effect="spiro"
       id="path-effect1075"
       is_visible="true"
       lpeversion="1" />
    <inkscape:path-effect
       effect="spiro"
       id="path-effect1073"
       is_visible="true"
       lpeversion="1" />
    <inkscape:path-effect
       effect="spiro"
       id="path-effect1071"
       is_visible="true"
       lpeversion="1" />
    <inkscape:path-effect
       effect="spiro"
       id="path-effect1069"
       is_visible="true"
       lpeversion="1" />
    <inkscape:path-effect
       effect="spiro"
       id="path-effect1067"
       is_visible="true"
       lpeversion="1" />
    <inkscape:path-effect
       effect="spiro"
       id="path-effect1065"
       is_visible="true"
       lpeversion="1" />
    <inkscape:path-effect
       effect="spiro"
       id="path-effect1063"
       is_visible="true"
       lpeversion="1" />
    <inkscape:path-effect
       effect="spiro"
       id="path-effect1061"
       is_visible="true"
       lpeversion="1" />
    <inkscape:path-effect
       effect="spiro"
       id="path-effect1059"
       is_visible="true"
       lpeversion="1" />
    <inkscape:path-effect
       effect="spiro"
       id="path-effect1057"
       is_visible="true"
       lpeversion="1" />
    <inkscape:path-effect
       effect="spiro"
       id="path-effect1055"
       is_visible="true"
       lpeversion="1" />
    <inkscape:path-effect
       effect="spiro"
       id="path-effect1053"
       is_visible="true"
       lpeversion="1" />
    <inkscape:path-effect
       effect="spiro"
       id="path-effect1051"
       is_visible="true"
       lpeversion="1" />
    <inkscape:path-effect
       effect="spiro"
       id="path-effect1049"
       is_visible="true"
       lpeversion="1" />
    <inkscape:path-effect
       effect="spiro"
       id="path-effect1047"
       is_visible="true"
       lpeversion="1" />
    <inkscape:path-effect
       effect="spiro"
       id="path-effect1045"
       is_visible="true"
       lpeversion="1" />
    <inkscape:path-effect
       effect="spiro"
       id="path-effect1043"
       is_visible="true"
       lpeversion="1" />
    <inkscape:path-effect
       effect="spiro"
       id="path-effect1041"
       is_visible="true"
       lpeversion="1" />
    <inkscape:path-effect
       effect="spiro"
       id="path-effect1039"
       is_visible="true"
       lpeversion="1" />
    <inkscape:path-effect
       effect="spiro"
       id="path-effect30"
       is_visible="true"
       lpeversion="1" />
    <inkscape:path-effect
       effect="spiro"
       id="path-effect28"
       is_visible="true"
       lpeversion="1" />
    <inkscape:path-effect
       effect="spiro"
       id="path-effect24"
       is_visible="true"
       lpeversion="1" />
    <inkscape:path-effect
       effect="spiro"
       id="path-effect22"
       is_visible="true"
       lpeversion="1" />
    <inkscape:path-effect
       effect="spiro"
       id="path-effect20"
       is_visible="true"
       lpeversion="1" />
    <inkscape:path-effect
       effect="spiro"
       id="path-effect19"
       is_visible="true"
       lpeversion="1" />
    <inkscape:path-effect
       effect="spiro"
       id="path-effect20-4"
       is_visible="true"
       lpeversion="1" />
    <inkscape:path-effect
       effect="spiro"
       id="path-effect20-7"
       is_visible="true"
       lpeversion="1" />
    <inkscape:path-effect
       effect="spiro"
       id="path-effect24-7"
       is_visible="true"
       lpeversion="1" />
  </defs>
  <sodipodi:namedview
     id="namedview16"
     pagecolor="#ffffff"
     bordercolor="#000000"
     borderopacity="0.25"
     inkscape:showpageshadow="2"
     inkscape:pageopacity="0.0"
     inkscape:pagecheckerboard="0"
     inkscape:deskcolor="#d1d1d1"
     inkscape:document-units="mm"
     inkscape:zoom="0.28026295"
     inkscape:cx="1230.9868"
     inkscape:cy="451.36184"
     inkscape:window-width="1196"
     inkscape:window-height="1011"
     inkscape:window-x="724"
     inkscape:window-y="32"
     inkscape:window-maximized="0"
     inkscape:current-layer="svg16" />
  <path
     style="fill:none;stroke:none;stroke-width:0.264999;stroke-linecap:butt;stroke-linejoin:miter;stroke-dasharray:none;stroke-opacity:1;paint-order:fill markers stroke"
     d="m 11.57468,129.80177 c 0.89502,2.45684 1.722203,4.93839 2.480289,7.44087 0.847517,2.7977 1.615212,5.63876 2.89367,8.26763 1.780037,3.66025 4.613716,6.88801 8.267631,8.68102 3.807506,1.86837 8.179514,2.07626 12.401443,2.48029 7.298182,0.69842 14.626278,2.08277 21.909219,1.24014 0.833077,-0.0964 1.663786,-0.22198 2.480288,-0.41338 4.810616,-1.12765 8.828198,-4.46909 11.988061,-8.26763 3.648694,-4.38617 6.39501,-9.49241 8.267629,-14.88173 0.835065,-2.40328 1.498895,-4.86193 2.234715,-7.29743 1.296066,-4.28986 2.820732,-8.52074 4.792772,-12.54489 2.966031,-6.05249 7.084977,-11.74562 12.814823,-15.295108 3.67186,-2.274616 7.92708,-3.597257 12.2411,-3.810952 4.31401,-0.213695 8.67765,0.681397 12.56179,2.570808 4.14741,2.017479 7.79518,5.244472 9.80721,9.394532 1.00602,2.07503 1.59293,4.36065 1.63722,6.66626 0.0443,2.30562 -0.46052,4.62863 -1.52327,6.67519 -1.86721,3.59573 -5.50094,6.21877 -9.50168,6.85889 -4.00075,0.64012 -8.2715,-0.71821 -11.1674,-3.55184"
     id="path19-0"
     sodipodi:nodetypes="csssssssssssssc"
     transform="translate(-0.45018429,-81.62737)"
     inkscape:original-d="m 11.57468,129.80177 c -2.6180814,-0.82676 5.925135,8.26763 2.480289,7.44087 -3.444845,-0.82676 7.165279,5.51176 2.89367,8.26763 -4.271607,2.75588 10.334539,2.89368 8.267631,8.68102 -2.066907,5.78734 12.263649,-3.44485 12.401443,2.48029 0.137794,5.92513 15.84629,-1.79133 21.909219,1.24014 6.062927,3.03146 -8.543219,-0.27559 2.480288,-0.41338 11.023504,-0.1378 6.614103,-4.96058 11.988061,-8.26763 5.37396,-3.30705 7.854247,-10.61013 8.267629,-14.88173 0.174444,-1.80258 1.085026,-4.39038 2.234715,-7.29743 1.574745,-3.98182 3.598082,-8.56259 4.792772,-12.54489 2.066906,-6.88969 8.405421,-10.47233 12.814823,-15.295108 4.4094,-4.822785 16.25967,-1.102352 24.80289,-1.240144 8.54322,-0.137795 6.6141,18.188782 9.92116,22.735982 3.30705,4.54719 -18.87776,-1.24015 -20.66908,3.30705"
     inkscape:path-effect="#path-effect20-7" />
  <text
     xml:space="preserve"
     style="font-size:14.1111px;font-family:sans-serif;-inkscape-font-specification:sans-serif;text-align:start;writing-mode:lr-tb;direction:ltr;text-anchor:start;fill:#000000;stroke-width:0.264583"
     id="text16-5-4"
     inkscape:transform-center-x="3.8033404"
     inkscape:transform-center-y="4.741787"
     x="508.38391"
     y="0"><textPath
       xlink:href="#path19-0"
       startOffset="50%"
       id="textPath20-3"
       style="font-style:normal;font-variant:normal;font-weight:normal;font-stretch:normal;font-size:14.1111px;font-family:'Argos George';-inkscape-font-specification:'Argos George';text-align:center;text-anchor:middle;stroke-width:0.264583">Kanonføde</textPath></text>
  <g
     id="use1005"
     inkscape:tile-x0="11"
     inkscape:tile-y0="13.609731"
     transform="translate(0,81.04652)"
     style="stroke:none">
    <text
       xml:space="preserve"
       style="font-size:14.1111px;font-family:sans-serif;-inkscape-font-specification:sans-serif;text-align:start;writing-mode:lr-tb;direction:ltr;text-anchor:start;fill:#000000;stroke-width:0.264583;stroke:none"
       id="text1039"
       inkscape:transform-center-x="3.8033404"
       inkscape:transform-center-y="4.741787"
       x="508.38391"
       y="0"><textPath
         xlink:href="#path19-0"
         startOffset="50%"
         id="textPath1039"
         style="font-style:normal;font-variant:normal;font-weight:normal;font-stretch:normal;font-size:14.1111px;font-family:'Argos George';-inkscape-font-specification:'Argos George';text-align:center;text-anchor:middle;stroke-width:0.264583;stroke:none">Stormtærte</textPath></text>
    <path
       style="fill:none;stroke:none;stroke-width:0.264999;stroke-linecap:butt;stroke-linejoin:miter;stroke-dasharray:none;stroke-opacity:1;paint-order:fill markers stroke"
       d="m 11.57468,129.80177 c 0.89502,2.45684 1.722203,4.93839 2.480289,7.44087 0.847517,2.7977 1.615212,5.63876 2.89367,8.26763 1.780037,3.66025 4.613716,6.88801 8.267631,8.68102 3.807506,1.86837 8.179514,2.07626 12.401443,2.48029 7.298182,0.69842 14.626278,2.08277 21.909219,1.24014 0.833077,-0.0964 1.663786,-0.22198 2.480288,-0.41338 4.810616,-1.12765 8.828198,-4.46909 11.988061,-8.26763 3.648694,-4.38617 6.39501,-9.49241 8.267629,-14.88173 0.835065,-2.40328 1.498895,-4.86193 2.234715,-7.29743 1.296066,-4.28986 2.820732,-8.52074 4.792772,-12.54489 2.966031,-6.05249 7.084977,-11.74562 12.814823,-15.295108 3.67186,-2.274616 7.92708,-3.597257 12.2411,-3.810952 4.31401,-0.213695 8.67765,0.681397 12.56179,2.570808 4.14741,2.017479 7.79518,5.244472 9.80721,9.394532 1.00602,2.07503 1.59293,4.36065 1.63722,6.66626 0.0443,2.30562 -0.46052,4.62863 -1.52327,6.67519 -1.86721,3.59573 -5.50094,6.21877 -9.50168,6.85889 -4.00075,0.64012 -8.2715,-0.71821 -11.1674,-3.55184"
       id="path1039"
       sodipodi:nodetypes="csssssssssssssc"
       transform="translate(-0.45018429,-81.62737)"
       inkscape:original-d="m 11.57468,129.80177 c -2.6180814,-0.82676 5.925135,8.26763 2.480289,7.44087 -3.444845,-0.82676 7.165279,5.51176 2.89367,8.26763 -4.271607,2.75588 10.334539,2.89368 8.267631,8.68102 -2.066907,5.78734 12.263649,-3.44485 12.401443,2.48029 0.137794,5.92513 15.84629,-1.79133 21.909219,1.24014 6.062927,3.03146 -8.543219,-0.27559 2.480288,-0.41338 11.023504,-0.1378 6.614103,-4.96058 11.988061,-8.26763 5.37396,-3.30705 7.854247,-10.61013 8.267629,-14.88173 0.174444,-1.80258 1.085026,-4.39038 2.234715,-7.29743 1.574745,-3.98182 3.598082,-8.56259 4.792772,-12.54489 2.066906,-6.88969 8.405421,-10.47233 12.814823,-15.295108 4.4094,-4.822785 16.25967,-1.102352 24.80289,-1.240144 8.54322,-0.137795 6.6141,18.188782 9.92116,22.735982 3.30705,4.54719 -18.87776,-1.24015 -20.66908,3.30705"
       inkscape:path-effect="#path-effect1041" />
  </g>
  <g
     id="use1009"
     inkscape:tile-x0="11"
     inkscape:tile-y0="13.609731"
     transform="translate(80.668832)"
     style="stroke:none">
    <text
       xml:space="preserve"
       style="font-size:14.1111px;font-family:sans-serif;-inkscape-font-specification:sans-serif;text-align:start;writing-mode:lr-tb;direction:ltr;text-anchor:start;fill:#000000;stroke-width:0.264583;stroke:none"
       id="text1047"
       inkscape:transform-center-x="3.8033404"
       inkscape:transform-center-y="4.741787"
       x="508.38391"
       y="0"><textPath
         xlink:href="#path19-0"
         startOffset="50%"
         id="textPath1047"
         style="font-style:normal;font-variant:normal;font-weight:normal;font-stretch:normal;font-size:14.1111px;font-family:'Argos George';-inkscape-font-specification:'Argos George';text-align:center;text-anchor:middle;stroke-width:0.264583;stroke:none">Pilesvamp</textPath></text>
    <path
       style="fill:none;stroke:none;stroke-width:0.264999;stroke-linecap:butt;stroke-linejoin:miter;stroke-dasharray:none;stroke-opacity:1;paint-order:fill markers stroke"
       d="m 11.57468,129.80177 c 0.89502,2.45684 1.722203,4.93839 2.480289,7.44087 0.847517,2.7977 1.615212,5.63876 2.89367,8.26763 1.780037,3.66025 4.613716,6.88801 8.267631,8.68102 3.807506,1.86837 8.179514,2.07626 12.401443,2.48029 7.298182,0.69842 14.626278,2.08277 21.909219,1.24014 0.833077,-0.0964 1.663786,-0.22198 2.480288,-0.41338 4.810616,-1.12765 8.828198,-4.46909 11.988061,-8.26763 3.648694,-4.38617 6.39501,-9.49241 8.267629,-14.88173 0.835065,-2.40328 1.498895,-4.86193 2.234715,-7.29743 1.296066,-4.28986 2.820732,-8.52074 4.792772,-12.54489 2.966031,-6.05249 7.084977,-11.74562 12.814823,-15.295108 3.67186,-2.274616 7.92708,-3.597257 12.2411,-3.810952 4.31401,-0.213695 8.67765,0.681397 12.56179,2.570808 4.14741,2.017479 7.79518,5.244472 9.80721,9.394532 1.00602,2.07503 1.59293,4.36065 1.63722,6.66626 0.0443,2.30562 -0.46052,4.62863 -1.52327,6.67519 -1.86721,3.59573 -5.50094,6.21877 -9.50168,6.85889 -4.00075,0.64012 -8.2715,-0.71821 -11.1674,-3.55184"
       id="path1047"
       sodipodi:nodetypes="csssssssssssssc"
       transform="translate(-0.45018429,-81.62737)"
       inkscape:original-d="m 11.57468,129.80177 c -2.6180814,-0.82676 5.925135,8.26763 2.480289,7.44087 -3.444845,-0.82676 7.165279,5.51176 2.89367,8.26763 -4.271607,2.75588 10.334539,2.89368 8.267631,8.68102 -2.066907,5.78734 12.263649,-3.44485 12.401443,2.48029 0.137794,5.92513 15.84629,-1.79133 21.909219,1.24014 6.062927,3.03146 -8.543219,-0.27559 2.480288,-0.41338 11.023504,-0.1378 6.614103,-4.96058 11.988061,-8.26763 5.37396,-3.30705 7.854247,-10.61013 8.267629,-14.88173 0.174444,-1.80258 1.085026,-4.39038 2.234715,-7.29743 1.574745,-3.98182 3.598082,-8.56259 4.792772,-12.54489 2.066906,-6.88969 8.405421,-10.47233 12.814823,-15.295108 4.4094,-4.822785 16.25967,-1.102352 24.80289,-1.240144 8.54322,-0.137795 6.6141,18.188782 9.92116,22.735982 3.30705,4.54719 -18.87776,-1.24015 -20.66908,3.30705"
       inkscape:path-effect="#path-effect1049" />
  </g>
  <g
     id="use1010"
     inkscape:tile-x0="11"
     inkscape:tile-y0="13.609731"
     transform="translate(80.668832,81.04652)"
     style="stroke:none">
    <text
       xml:space="preserve"
       style="font-size:14.1111px;font-family:sans-serif;-inkscape-font-specification:sans-serif;text-align:start;writing-mode:lr-tb;direction:ltr;text-anchor:start;fill:#000000;stroke-width:0.264583;stroke:none"
       id="text1049"
       inkscape:transform-center-x="3.8033404"
       inkscape:transform-center-y="4.741787"
       x="508.38391"
       y="0"><textPath
         xlink:href="#path19-0"
         startOffset="50%"
         id="textPath1049"
         style="font-style:normal;font-variant:normal;font-weight:normal;font-stretch:normal;font-size:14.1111px;font-family:'Argos George';-inkscape-font-specification:'Argos George';text-align:center;text-anchor:middle;stroke-width:0.264583;stroke:none">Gæst</textPath></text>
    <path
       style="fill:none;stroke:none;stroke-width:0.264999;stroke-linecap:butt;stroke-linejoin:miter;stroke-dasharray:none;stroke-opacity:1;paint-order:fill markers stroke"
       d="m 11.57468,129.80177 c 0.89502,2.45684 1.722203,4.93839 2.480289,7.44087 0.847517,2.7977 1.615212,5.63876 2.89367,8.26763 1.780037,3.66025 4.613716,6.88801 8.267631,8.68102 3.807506,1.86837 8.179514,2.07626 12.401443,2.48029 7.298182,0.69842 14.626278,2.08277 21.909219,1.24014 0.833077,-0.0964 1.663786,-0.22198 2.480288,-0.41338 4.810616,-1.12765 8.828198,-4.46909 11.988061,-8.26763 3.648694,-4.38617 6.39501,-9.49241 8.267629,-14.88173 0.835065,-2.40328 1.498895,-4.86193 2.234715,-7.29743 1.296066,-4.28986 2.820732,-8.52074 4.792772,-12.54489 2.966031,-6.05249 7.084977,-11.74562 12.814823,-15.295108 3.67186,-2.274616 7.92708,-3.597257 12.2411,-3.810952 4.31401,-0.213695 8.67765,0.681397 12.56179,2.570808 4.14741,2.017479 7.79518,5.244472 9.80721,9.394532 1.00602,2.07503 1.59293,4.36065 1.63722,6.66626 0.0443,2.30562 -0.46052,4.62863 -1.52327,6.67519 -1.86721,3.59573 -5.50094,6.21877 -9.50168,6.85889 -4.00075,0.64012 -8.2715,-0.71821 -11.1674,-3.55184"
       id="path1049"
       sodipodi:nodetypes="csssssssssssssc"
       transform="translate(-0.45018429,-81.62737)"
       inkscape:original-d="m 11.57468,129.80177 c -2.6180814,-0.82676 5.925135,8.26763 2.480289,7.44087 -3.444845,-0.82676 7.165279,5.51176 2.89367,8.26763 -4.271607,2.75588 10.334539,2.89368 8.267631,8.68102 -2.066907,5.78734 12.263649,-3.44485 12.401443,2.48029 0.137794,5.92513 15.84629,-1.79133 21.909219,1.24014 6.062927,3.03146 -8.543219,-0.27559 2.480288,-0.41338 11.023504,-0.1378 6.614103,-4.96058 11.988061,-8.26763 5.37396,-3.30705 7.854247,-10.61013 8.267629,-14.88173 0.174444,-1.80258 1.085026,-4.39038 2.234715,-7.29743 1.574745,-3.98182 3.598082,-8.56259 4.792772,-12.54489 2.066906,-6.88969 8.405421,-10.47233 12.814823,-15.295108 4.4094,-4.822785 16.25967,-1.102352 24.80289,-1.240144 8.54322,-0.137795 6.6141,18.188782 9.92116,22.735982 3.30705,4.54719 -18.87776,-1.24015 -20.66908,3.30705"
       inkscape:path-effect="#path-effect1051" />
  </g>
  <g
     id="use1014"
     inkscape:tile-x0="11"
     inkscape:tile-y0="13.609731"
     transform="translate(161.33766)"
     style="stroke:none">
    <text
       xml:space="preserve"
       style="font-size:14.1111px;font-family:sans-serif;-inkscape-font-specification:sans-serif;text-align:start;writing-mode:lr-tb;direction:ltr;text-anchor:start;fill:#000000;stroke-width:0.264583;stroke:none"
       id="text1057"
       inkscape:transform-center-x="3.8033404"
       inkscape:transform-center-y="4.741787"
       x="508.38391"
       y="0"><textPath
         xlink:href="#path19-0"
         startOffset="50%"
         id="textPath1057"
         style="font-style:normal;font-variant:normal;font-weight:normal;font-stretch:normal;font-size:14.1111px;font-family:'Argos George';-inkscape-font-specification:'Argos George';text-align:center;text-anchor:middle;stroke-width:0.264583;stroke:none">Førstefaldet</textPath></text>
    <path
       style="fill:none;stroke:none;stroke-width:0.264999;stroke-linecap:butt;stroke-linejoin:miter;stroke-dasharray:none;stroke-opacity:1;paint-order:fill markers stroke"
       d="m 11.57468,129.80177 c 0.89502,2.45684 1.722203,4.93839 2.480289,7.44087 0.847517,2.7977 1.615212,5.63876 2.89367,8.26763 1.780037,3.66025 4.613716,6.88801 8.267631,8.68102 3.807506,1.86837 8.179514,2.07626 12.401443,2.48029 7.298182,0.69842 14.626278,2.08277 21.909219,1.24014 0.833077,-0.0964 1.663786,-0.22198 2.480288,-0.41338 4.810616,-1.12765 8.828198,-4.46909 11.988061,-8.26763 3.648694,-4.38617 6.39501,-9.49241 8.267629,-14.88173 0.835065,-2.40328 1.498895,-4.86193 2.234715,-7.29743 1.296066,-4.28986 2.820732,-8.52074 4.792772,-12.54489 2.966031,-6.05249 7.084977,-11.74562 12.814823,-15.295108 3.67186,-2.274616 7.92708,-3.597257 12.2411,-3.810952 4.31401,-0.213695 8.67765,0.681397 12.56179,2.570808 4.14741,2.017479 7.79518,5.244472 9.80721,9.394532 1.00602,2.07503 1.59293,4.36065 1.63722,6.66626 0.0443,2.30562 -0.46052,4.62863 -1.52327,6.67519 -1.86721,3.59573 -5.50094,6.21877 -9.50168,6.85889 -4.00075,0.64012 -8.2715,-0.71821 -11.1674,-3.55184"
       id="path1057"
       sodipodi:nodetypes="csssssssssssssc"
       transform="translate(-0.45018429,-81.62737)"
       inkscape:original-d="m 11.57468,129.80177 c -2.6180814,-0.82676 5.925135,8.26763 2.480289,7.44087 -3.444845,-0.82676 7.165279,5.51176 2.89367,8.26763 -4.271607,2.75588 10.334539,2.89368 8.267631,8.68102 -2.066907,5.78734 12.263649,-3.44485 12.401443,2.48029 0.137794,5.92513 15.84629,-1.79133 21.909219,1.24014 6.062927,3.03146 -8.543219,-0.27559 2.480288,-0.41338 11.023504,-0.1378 6.614103,-4.96058 11.988061,-8.26763 5.37396,-3.30705 7.854247,-10.61013 8.267629,-14.88173 0.174444,-1.80258 1.085026,-4.39038 2.234715,-7.29743 1.574745,-3.98182 3.598082,-8.56259 4.792772,-12.54489 2.066906,-6.88969 8.405421,-10.47233 12.814823,-15.295108 4.4094,-4.822785 16.25967,-1.102352 24.80289,-1.240144 8.54322,-0.137795 6.6141,18.188782 9.92116,22.735982 3.30705,4.54719 -18.87776,-1.24015 -20.66908,3.30705"
       inkscape:path-effect="#path-effect1059" />
  </g>
  <g
     id="use1015"
     inkscape:tile-x0="11"
     inkscape:tile-y0="13.609731"
     transform="translate(161.33766,81.04652)"
     style="stroke:none">
    <text
       xml:space="preserve"
       style="font-size:14.1111px;font-family:sans-serif;-inkscape-font-specification:sans-serif;text-align:start;writing-mode:lr-tb;direction:ltr;text-anchor:start;fill:#000000;stroke-width:0.264583;stroke:none"
       id="text1059"
       inkscape:transform-center-x="3.8033404"
       inkscape:transform-center-y="4.741787"
       x="508.38391"
       y="0"><textPath
         xlink:href="#path19-0"
         startOffset="50%"
         id="textPath1059"
         style="font-style:normal;font-variant:normal;font-weight:normal;font-stretch:normal;font-size:14.1111px;font-family:'Argos George';-inkscape-font-specification:'Argos George';text-align:center;text-anchor:middle;stroke-width:0.264583;stroke:none">Ærede gæst</textPath></text>
    <path
       style="fill:none;stroke:none;stroke-width:0.264999;stroke-linecap:butt;stroke-linejoin:miter;stroke-dasharray:none;stroke-opacity:1;paint-order:fill markers stroke"
       d="m 11.57468,129.80177 c 0.89502,2.45684 1.722203,4.93839 2.480289,7.44087 0.847517,2.7977 1.615212,5.63876 2.89367,8.26763 1.780037,3.66025 4.613716,6.88801 8.267631,8.68102 3.807506,1.86837 8.179514,2.07626 12.401443,2.48029 7.298182,0.69842 14.626278,2.08277 21.909219,1.24014 0.833077,-0.0964 1.663786,-0.22198 2.480288,-0.41338 4.810616,-1.12765 8.828198,-4.46909 11.988061,-8.26763 3.648694,-4.38617 6.39501,-9.49241 8.267629,-14.88173 0.835065,-2.40328 1.498895,-4.86193 2.234715,-7.29743 1.296066,-4.28986 2.820732,-8.52074 4.792772,-12.54489 2.966031,-6.05249 7.084977,-11.74562 12.814823,-15.295108 3.67186,-2.274616 7.92708,-3.597257 12.2411,-3.810952 4.31401,-0.213695 8.67765,0.681397 12.56179,2.570808 4.14741,2.017479 7.79518,5.244472 9.80721,9.394532 1.00602,2.07503 1.59293,4.36065 1.63722,6.66626 0.0443,2.30562 -0.46052,4.62863 -1.52327,6.67519 -1.86721,3.59573 -5.50094,6.21877 -9.50168,6.85889 -4.00075,0.64012 -8.2715,-0.71821 -11.1674,-3.55184"
       id="path1059"
       sodipodi:nodetypes="csssssssssssssc"
       transform="translate(-0.45018429,-81.62737)"
       inkscape:original-d="m 11.57468,129.80177 c -2.6180814,-0.82676 5.925135,8.26763 2.480289,7.44087 -3.444845,-0.82676 7.165279,5.51176 2.89367,8.26763 -4.271607,2.75588 10.334539,2.89368 8.267631,8.68102 -2.066907,5.78734 12.263649,-3.44485 12.401443,2.48029 0.137794,5.92513 15.84629,-1.79133 21.909219,1.24014 6.062927,3.03146 -8.543219,-0.27559 2.480288,-0.41338 11.023504,-0.1378 6.614103,-4.96058 11.988061,-8.26763 5.37396,-3.30705 7.854247,-10.61013 8.267629,-14.88173 0.174444,-1.80258 1.085026,-4.39038 2.234715,-7.29743 1.574745,-3.98182 3.598082,-8.56259 4.792772,-12.54489 2.066906,-6.88969 8.405421,-10.47233 12.814823,-15.295108 4.4094,-4.822785 16.25967,-1.102352 24.80289,-1.240144 8.54322,-0.137795 6.6141,18.188782 9.92116,22.735982 3.30705,4.54719 -18.87776,-1.24015 -20.66908,3.30705"
       inkscape:path-effect="#path-effect1061" />
  </g>
  <g
     id="use1019"
     inkscape:tile-x0="11"
     inkscape:tile-y0="13.609731"
     transform="translate(242.00649)"
     style="stroke:none">
    <text
       xml:space="preserve"
       style="font-size:14.1111px;font-family:sans-serif;-inkscape-font-specification:sans-serif;text-align:start;writing-mode:lr-tb;direction:ltr;text-anchor:start;fill:#000000;stroke-width:0.264583;stroke:none"
       id="text1067"
       inkscape:transform-center-x="3.8033404"
       inkscape:transform-center-y="4.741787"
       x="508.38391"
       y="0"><textPath
         xlink:href="#path19-0"
         startOffset="50%"
         id="textPath1067"
         style="font-style:normal;font-variant:normal;font-weight:normal;font-stretch:normal;font-size:14.1111px;font-family:'Argos George';-inkscape-font-specification:'Argos George';text-align:center;text-anchor:middle;stroke-width:0.264583;stroke:none">Lokkemadspecislist</textPath></text>
    <path
       style="fill:none;stroke:none;stroke-width:0.264999;stroke-linecap:butt;stroke-linejoin:miter;stroke-dasharray:none;stroke-opacity:1;paint-order:fill markers stroke"
       d="m 11.57468,129.80177 c 0.89502,2.45684 1.722203,4.93839 2.480289,7.44087 0.847517,2.7977 1.615212,5.63876 2.89367,8.26763 1.780037,3.66025 4.613716,6.88801 8.267631,8.68102 3.807506,1.86837 8.179514,2.07626 12.401443,2.48029 7.298182,0.69842 14.626278,2.08277 21.909219,1.24014 0.833077,-0.0964 1.663786,-0.22198 2.480288,-0.41338 4.810616,-1.12765 8.828198,-4.46909 11.988061,-8.26763 3.648694,-4.38617 6.39501,-9.49241 8.267629,-14.88173 0.835065,-2.40328 1.498895,-4.86193 2.234715,-7.29743 1.296066,-4.28986 2.820732,-8.52074 4.792772,-12.54489 2.966031,-6.05249 7.084977,-11.74562 12.814823,-15.295108 3.67186,-2.274616 7.92708,-3.597257 12.2411,-3.810952 4.31401,-0.213695 8.67765,0.681397 12.56179,2.570808 4.14741,2.017479 7.79518,5.244472 9.80721,9.394532 1.00602,2.07503 1.59293,4.36065 1.63722,6.66626 0.0443,2.30562 -0.46052,4.62863 -1.52327,6.67519 -1.86721,3.59573 -5.50094,6.21877 -9.50168,6.85889 -4.00075,0.64012 -8.2715,-0.71821 -11.1674,-3.55184"
       id="path1067"
       sodipodi:nodetypes="csssssssssssssc"
       transform="translate(-0.45018429,-81.62737)"
       inkscape:original-d="m 11.57468,129.80177 c -2.6180814,-0.82676 5.925135,8.26763 2.480289,7.44087 -3.444845,-0.82676 7.165279,5.51176 2.89367,8.26763 -4.271607,2.75588 10.334539,2.89368 8.267631,8.68102 -2.066907,5.78734 12.263649,-3.44485 12.401443,2.48029 0.137794,5.92513 15.84629,-1.79133 21.909219,1.24014 6.062927,3.03146 -8.543219,-0.27559 2.480288,-0.41338 11.023504,-0.1378 6.614103,-4.96058 11.988061,-8.26763 5.37396,-3.30705 7.854247,-10.61013 8.267629,-14.88173 0.174444,-1.80258 1.085026,-4.39038 2.234715,-7.29743 1.574745,-3.98182 3.598082,-8.56259 4.792772,-12.54489 2.066906,-6.88969 8.405421,-10.47233 12.814823,-15.295108 4.4094,-4.822785 16.25967,-1.102352 24.80289,-1.240144 8.54322,-0.137795 6.6141,18.188782 9.92116,22.735982 3.30705,4.54719 -18.87776,-1.24015 -20.66908,3.30705"
       inkscape:path-effect="#path-effect1069" />
  </g>
  <g
     id="use1020"
     inkscape:tile-x0="11"
     inkscape:tile-y0="13.609731"
     transform="translate(242.00649,81.04652)"
     style="stroke:none">
    <text
       xml:space="preserve"
       style="font-size:14.1111px;font-family:sans-serif;-inkscape-font-specification:sans-serif;text-align:start;writing-mode:lr-tb;direction:ltr;text-anchor:start;fill:#000000;stroke-width:0.264583;stroke:none"
       id="text1069"
       inkscape:transform-center-x="3.8033404"
       inkscape:transform-center-y="4.741787"
       x="508.38391"
       y="0"><textPath
         xlink:href="#path19-0"
         startOffset="50%"
         id="textPath1069"
         style="font-style:normal;font-variant:normal;font-weight:normal;font-stretch:normal;font-size:14.1111px;font-family:'Argos George';-inkscape-font-specification:'Argos George';text-align:center;text-anchor:middle;stroke-width:0.264583;stroke:none">Rekrut Et</textPath></text>
    <path
       style="fill:none;stroke:none;stroke-width:0.264999;stroke-linecap:butt;stroke-linejoin:miter;stroke-dasharray:none;stroke-opacity:1;paint-order:fill markers stroke"
       d="m 11.57468,129.80177 c 0.89502,2.45684 1.722203,4.93839 2.480289,7.44087 0.847517,2.7977 1.615212,5.63876 2.89367,8.26763 1.780037,3.66025 4.613716,6.88801 8.267631,8.68102 3.807506,1.86837 8.179514,2.07626 12.401443,2.48029 7.298182,0.69842 14.626278,2.08277 21.909219,1.24014 0.833077,-0.0964 1.663786,-0.22198 2.480288,-0.41338 4.810616,-1.12765 8.828198,-4.46909 11.988061,-8.26763 3.648694,-4.38617 6.39501,-9.49241 8.267629,-14.88173 0.835065,-2.40328 1.498895,-4.86193 2.234715,-7.29743 1.296066,-4.28986 2.820732,-8.52074 4.792772,-12.54489 2.966031,-6.05249 7.084977,-11.74562 12.814823,-15.295108 3.67186,-2.274616 7.92708,-3.597257 12.2411,-3.810952 4.31401,-0.213695 8.67765,0.681397 12.56179,2.570808 4.14741,2.017479 7.79518,5.244472 9.80721,9.394532 1.00602,2.07503 1.59293,4.36065 1.63722,6.66626 0.0443,2.30562 -0.46052,4.62863 -1.52327,6.67519 -1.86721,3.59573 -5.50094,6.21877 -9.50168,6.85889 -4.00075,0.64012 -8.2715,-0.71821 -11.1674,-3.55184"
       id="path1069"
       sodipodi:nodetypes="csssssssssssssc"
       transform="translate(-0.45018429,-81.62737)"
       inkscape:original-d="m 11.57468,129.80177 c -2.6180814,-0.82676 5.925135,8.26763 2.480289,7.44087 -3.444845,-0.82676 7.165279,5.51176 2.89367,8.26763 -4.271607,2.75588 10.334539,2.89368 8.267631,8.68102 -2.066907,5.78734 12.263649,-3.44485 12.401443,2.48029 0.137794,5.92513 15.84629,-1.79133 21.909219,1.24014 6.062927,3.03146 -8.543219,-0.27559 2.480288,-0.41338 11.023504,-0.1378 6.614103,-4.96058 11.988061,-8.26763 5.37396,-3.30705 7.854247,-10.61013 8.267629,-14.88173 0.174444,-1.80258 1.085026,-4.39038 2.234715,-7.29743 1.574745,-3.98182 3.598082,-8.56259 4.792772,-12.54489 2.066906,-6.88969 8.405421,-10.47233 12.814823,-15.295108 4.4094,-4.822785 16.25967,-1.102352 24.80289,-1.240144 8.54322,-0.137795 6.6141,18.188782 9.92116,22.735982 3.30705,4.54719 -18.87776,-1.24015 -20.66908,3.30705"
       inkscape:path-effect="#path-effect1071" />
  </g>
  <g
     id="use1024"
     inkscape:tile-x0="11"
     inkscape:tile-y0="13.609731"
     transform="translate(322.67533)"
     style="stroke:none">
    <text
       xml:space="preserve"
       style="font-size:14.1111px;font-family:sans-serif;-inkscape-font-specification:sans-serif;text-align:start;writing-mode:lr-tb;direction:ltr;text-anchor:start;fill:#000000;stroke-width:0.264583;stroke:none"
       id="text1077"
       inkscape:transform-center-x="3.8033404"
       inkscape:transform-center-y="4.741787"
       x="508.38391"
       y="0"><textPath
         xlink:href="#path19-0"
         startOffset="50%"
         id="textPath1077"
         style="font-style:normal;font-variant:normal;font-weight:normal;font-stretch:normal;font-size:14.1111px;font-family:'Argos George';-inkscape-font-specification:'Argos George';text-align:center;text-anchor:middle;stroke-width:0.264583;stroke:none">Fældeafprøver</textPath></text>
    <path
       style="fill:none;stroke:none;stroke-width:0.264999;stroke-linecap:butt;stroke-linejoin:miter;stroke-dasharray:none;stroke-opacity:1;paint-order:fill markers stroke"
       d="m 11.57468,129.80177 c 0.89502,2.45684 1.722203,4.93839 2.480289,7.44087 0.847517,2.7977 1.615212,5.63876 2.89367,8.26763 1.780037,3.66025 4.613716,6.88801 8.267631,8.68102 3.807506,1.86837 8.179514,2.07626 12.401443,2.48029 7.298182,0.69842 14.626278,2.08277 21.909219,1.24014 0.833077,-0.0964 1.663786,-0.22198 2.480288,-0.41338 4.810616,-1.12765 8.828198,-4.46909 11.988061,-8.26763 3.648694,-4.38617 6.39501,-9.49241 8.267629,-14.88173 0.835065,-2.40328 1.498895,-4.86193 2.234715,-7.29743 1.296066,-4.28986 2.820732,-8.52074 4.792772,-12.54489 2.966031,-6.05249 7.084977,-11.74562 12.814823,-15.295108 3.67186,-2.274616 7.92708,-3.597257 12.2411,-3.810952 4.31401,-0.213695 8.67765,0.681397 12.56179,2.570808 4.14741,2.017479 7.79518,5.244472 9.80721,9.394532 1.00602,2.07503 1.59293,4.36065 1.63722,6.66626 0.0443,2.30562 -0.46052,4.62863 -1.52327,6.67519 -1.86721,3.59573 -5.50094,6.21877 -9.50168,6.85889 -4.00075,0.64012 -8.2715,-0.71821 -11.1674,-3.55184"
       id="path1077"
       sodipodi:nodetypes="csssssssssssssc"
       transform="translate(-0.45018429,-81.62737)"
       inkscape:original-d="m 11.57468,129.80177 c -2.6180814,-0.82676 5.925135,8.26763 2.480289,7.44087 -3.444845,-0.82676 7.165279,5.51176 2.89367,8.26763 -4.271607,2.75588 10.334539,2.89368 8.267631,8.68102 -2.066907,5.78734 12.263649,-3.44485 12.401443,2.48029 0.137794,5.92513 15.84629,-1.79133 21.909219,1.24014 6.062927,3.03146 -8.543219,-0.27559 2.480288,-0.41338 11.023504,-0.1378 6.614103,-4.96058 11.988061,-8.26763 5.37396,-3.30705 7.854247,-10.61013 8.267629,-14.88173 0.174444,-1.80258 1.085026,-4.39038 2.234715,-7.29743 1.574745,-3.98182 3.598082,-8.56259 4.792772,-12.54489 2.066906,-6.88969 8.405421,-10.47233 12.814823,-15.295108 4.4094,-4.822785 16.25967,-1.102352 24.80289,-1.240144 8.54322,-0.137795 6.6141,18.188782 9.92116,22.735982 3.30705,4.54719 -18.87776,-1.24015 -20.66908,3.30705"
       inkscape:path-effect="#path-effect1079" />
  </g>
  <g
     id="use1025"
     inkscape:tile-x0="11"
     inkscape:tile-y0="13.609731"
     transform="translate(322.67533,81.04652)"
     style="stroke:none">
    <text
       xml:space="preserve"
       style="font-size:14.1111px;font-family:sans-serif;-inkscape-font-specification:sans-serif;text-align:start;writing-mode:lr-tb;direction:ltr;text-anchor:start;fill:#000000;stroke-width:0.264583;stroke:none"
       id="text1079"
       inkscape:transform-center-x="3.8033404"
       inkscape:transform-center-y="4.741787"
       x="508.38391"
       y="0"><textPath
         xlink:href="#path19-0"
         startOffset="50%"
         id="textPath1079"
         style="font-style:normal;font-variant:normal;font-weight:normal;font-stretch:normal;font-size:14.1111px;font-family:'Argos George';-inkscape-font-specification:'Argos George';text-align:center;text-anchor:middle;stroke-width:0.264583;stroke:none">Rekrut To</textPath></text>
    <path
       style="fill:none;stroke:none;stroke-width:0.264999;stroke-linecap:butt;stroke-linejoin:miter;stroke-dasharray:none;stroke-opacity:1;paint-order:fill markers stroke"
       d="m 11.57468,129.80177 c 0.89502,2.45684 1.722203,4.93839 2.480289,7.44087 0.847517,2.7977 1.615212,5.63876 2.89367,8.26763 1.780037,3.66025 4.613716,6.88801 8.267631,8.68102 3.807506,1.86837 8.179514,2.07626 12.401443,2.48029 7.298182,0.69842 14.626278,2.08277 21.909219,1.24014 0.833077,-0.0964 1.663786,-0.22198 2.480288,-0.41338 4.810616,-1.12765 8.828198,-4.46909 11.988061,-8.26763 3.648694,-4.38617 6.39501,-9.49241 8.267629,-14.88173 0.835065,-2.40328 1.498895,-4.86193 2.234715,-7.29743 1.296066,-4.28986 2.820732,-8.52074 4.792772,-12.54489 2.966031,-6.05249 7.084977,-11.74562 12.814823,-15.295108 3.67186,-2.274616 7.92708,-3.597257 12.2411,-3.810952 4.31401,-0.213695 8.67765,0.681397 12.56179,2.570808 4.14741,2.017479 7.79518,5.244472 9.80721,9.394532 1.00602,2.07503 1.59293,4.36065 1.63722,6.66626 0.0443,2.30562 -0.46052,4.62863 -1.52327,6.67519 -1.86721,3.59573 -5.50094,6.21877 -9.50168,6.85889 -4.00075,0.64012 -8.2715,-0.71821 -11.1674,-3.55184"
       id="path1079"
       sodipodi:nodetypes="csssssssssssssc"
       transform="translate(-0.45018429,-81.62737)"
       inkscape:original-d="m 11.57468,129.80177 c -2.6180814,-0.82676 5.925135,8.26763 2.480289,7.44087 -3.444845,-0.82676 7.165279,5.51176 2.89367,8.26763 -4.271607,2.75588 10.334539,2.89368 8.267631,8.68102 -2.066907,5.78734 12.263649,-3.44485 12.401443,2.48029 0.137794,5.92513 15.84629,-1.79133 21.909219,1.24014 6.062927,3.03146 -8.543219,-0.27559 2.480288,-0.41338 11.023504,-0.1378 6.614103,-4.96058 11.988061,-8.26763 5.37396,-3.30705 7.854247,-10.61013 8.267629,-14.88173 0.174444,-1.80258 1.085026,-4.39038 2.234715,-7.29743 1.574745,-3.98182 3.598082,-8.56259 4.792772,-12.54489 2.066906,-6.88969 8.405421,-10.47233 12.814823,-15.295108 4.4094,-4.822785 16.25967,-1.102352 24.80289,-1.240144 8.54322,-0.137795 6.6141,18.188782 9.92116,22.735982 3.30705,4.54719 -18.87776,-1.24015 -20.66908,3.30705"
       inkscape:path-effect="#path-effect1081" />
  </g>
  <g
     id="use1029"
     inkscape:tile-x0="11"
     inkscape:tile-y0="13.609731"
     transform="translate(403.34416)"
     style="stroke:none">
    <text
       xml:space="preserve"
       style="font-size:14.1111px;font-family:sans-serif;-inkscape-font-specification:sans-serif;text-align:start;writing-mode:lr-tb;direction:ltr;text-anchor:start;fill:#000000;stroke-width:0.264583;stroke:none"
       id="text1087"
       inkscape:transform-center-x="3.8033404"
       inkscape:transform-center-y="4.741787"
       x="508.38391"
       y="0"><textPath
         xlink:href="#path19-0"
         startOffset="50%"
         id="textPath1087"
         style="font-style:normal;font-variant:normal;font-weight:normal;font-stretch:normal;font-size:14.1111px;font-family:'Argos George';-inkscape-font-specification:'Argos George';text-align:center;text-anchor:middle;stroke-width:0.264583;stroke:none">Dolkedukke</textPath></text>
    <path
       style="fill:none;stroke:none;stroke-width:0.264999;stroke-linecap:butt;stroke-linejoin:miter;stroke-dasharray:none;stroke-opacity:1;paint-order:fill markers stroke"
       d="m 11.57468,129.80177 c 0.89502,2.45684 1.722203,4.93839 2.480289,7.44087 0.847517,2.7977 1.615212,5.63876 2.89367,8.26763 1.780037,3.66025 4.613716,6.88801 8.267631,8.68102 3.807506,1.86837 8.179514,2.07626 12.401443,2.48029 7.298182,0.69842 14.626278,2.08277 21.909219,1.24014 0.833077,-0.0964 1.663786,-0.22198 2.480288,-0.41338 4.810616,-1.12765 8.828198,-4.46909 11.988061,-8.26763 3.648694,-4.38617 6.39501,-9.49241 8.267629,-14.88173 0.835065,-2.40328 1.498895,-4.86193 2.234715,-7.29743 1.296066,-4.28986 2.820732,-8.52074 4.792772,-12.54489 2.966031,-6.05249 7.084977,-11.74562 12.814823,-15.295108 3.67186,-2.274616 7.92708,-3.597257 12.2411,-3.810952 4.31401,-0.213695 8.67765,0.681397 12.56179,2.570808 4.14741,2.017479 7.79518,5.244472 9.80721,9.394532 1.00602,2.07503 1.59293,4.36065 1.63722,6.66626 0.0443,2.30562 -0.46052,4.62863 -1.52327,6.67519 -1.86721,3.59573 -5.50094,6.21877 -9.50168,6.85889 -4.00075,0.64012 -8.2715,-0.71821 -11.1674,-3.55184"
       id="path1087"
       sodipodi:nodetypes="csssssssssssssc"
       transform="translate(-0.45018429,-81.62737)"
       inkscape:original-d="m 11.57468,129.80177 c -2.6180814,-0.82676 5.925135,8.26763 2.480289,7.44087 -3.444845,-0.82676 7.165279,5.51176 2.89367,8.26763 -4.271607,2.75588 10.334539,2.89368 8.267631,8.68102 -2.066907,5.78734 12.263649,-3.44485 12.401443,2.48029 0.137794,5.92513 15.84629,-1.79133 21.909219,1.24014 6.062927,3.03146 -8.543219,-0.27559 2.480288,-0.41338 11.023504,-0.1378 6.614103,-4.96058 11.988061,-8.26763 5.37396,-3.30705 7.854247,-10.61013 8.267629,-14.88173 0.174444,-1.80258 1.085026,-4.39038 2.234715,-7.29743 1.574745,-3.98182 3.598082,-8.56259 4.792772,-12.54489 2.066906,-6.88969 8.405421,-10.47233 12.814823,-15.295108 4.4094,-4.822785 16.25967,-1.102352 24.80289,-1.240144 8.54322,-0.137795 6.6141,18.188782 9.92116,22.735982 3.30705,4.54719 -18.87776,-1.24015 -20.66908,3.30705"
       inkscape:path-effect="#path-effect1089" />
  </g>
  <g
     id="use1030"
     inkscape:tile-x0="11"
     inkscape:tile-y0="13.609731"
     transform="translate(403.34416,81.04652)"
     style="stroke:none">
    <text
       xml:space="preserve"
       style="font-size:14.1111px;font-family:sans-serif;-inkscape-font-specification:sans-serif;text-align:start;writing-mode:lr-tb;direction:ltr;text-anchor:start;fill:#000000;stroke-width:0.264583;stroke:none"
       id="text1089"
       inkscape:transform-center-x="3.8033404"
       inkscape:transform-center-y="4.741787"
       x="508.38391"
       y="0"><textPath
         xlink:href="#path19-0"
         startOffset="50%"
         id="textPath1089"
         style="font-style:normal;font-variant:normal;font-weight:normal;font-stretch:normal;font-size:14.1111px;font-family:'Argos George';-inkscape-font-specification:'Argos George';text-align:center;text-anchor:middle;stroke-width:0.264583;stroke:none">Rekrut Fire</textPath></text>
    <path
       style="fill:none;stroke:none;stroke-width:0.264999;stroke-linecap:butt;stroke-linejoin:miter;stroke-dasharray:none;stroke-opacity:1;paint-order:fill markers stroke"
       d="m 11.57468,129.80177 c 0.89502,2.45684 1.722203,4.93839 2.480289,7.44087 0.847517,2.7977 1.615212,5.63876 2.89367,8.26763 1.780037,3.66025 4.613716,6.88801 8.267631,8.68102 3.807506,1.86837 8.179514,2.07626 12.401443,2.48029 7.298182,0.69842 14.626278,2.08277 21.909219,1.24014 0.833077,-0.0964 1.663786,-0.22198 2.480288,-0.41338 4.810616,-1.12765 8.828198,-4.46909 11.988061,-8.26763 3.648694,-4.38617 6.39501,-9.49241 8.267629,-14.88173 0.835065,-2.40328 1.498895,-4.86193 2.234715,-7.29743 1.296066,-4.28986 2.820732,-8.52074 4.792772,-12.54489 2.966031,-6.05249 7.084977,-11.74562 12.814823,-15.295108 3.67186,-2.274616 7.92708,-3.597257 12.2411,-3.810952 4.31401,-0.213695 8.67765,0.681397 12.56179,2.570808 4.14741,2.017479 7.79518,5.244472 9.80721,9.394532 1.00602,2.07503 1.59293,4.36065 1.63722,6.66626 0.0443,2.30562 -0.46052,4.62863 -1.52327,6.67519 -1.86721,3.59573 -5.50094,6.21877 -9.50168,6.85889 -4.00075,0.64012 -8.2715,-0.71821 -11.1674,-3.55184"
       id="path1089"
       sodipodi:nodetypes="csssssssssssssc"
       transform="translate(-0.45018429,-81.62737)"
       inkscape:original-d="m 11.57468,129.80177 c -2.6180814,-0.82676 5.925135,8.26763 2.480289,7.44087 -3.444845,-0.82676 7.165279,5.51176 2.89367,8.26763 -4.271607,2.75588 10.334539,2.89368 8.267631,8.68102 -2.066907,5.78734 12.263649,-3.44485 12.401443,2.48029 0.137794,5.92513 15.84629,-1.79133 21.909219,1.24014 6.062927,3.03146 -8.543219,-0.27559 2.480288,-0.41338 11.023504,-0.1378 6.614103,-4.96058 11.988061,-8.26763 5.37396,-3.30705 7.854247,-10.61013 8.267629,-14.88173 0.174444,-1.80258 1.085026,-4.39038 2.234715,-7.29743 1.574745,-3.98182 3.598082,-8.56259 4.792772,-12.54489 2.066906,-6.88969 8.405421,-10.47233 12.814823,-15.295108 4.4094,-4.822785 16.25967,-1.102352 24.80289,-1.240144 8.54322,-0.137795 6.6141,18.188782 9.92116,22.735982 3.30705,4.54719 -18.87776,-1.24015 -20.66908,3.30705"
       inkscape:path-effect="#path-effect1091" />
  </g>
  <g
     id="use1034"
     inkscape:tile-x0="11"
     inkscape:tile-y0="13.609731"
     transform="translate(484.01299)">
    <text
       xml:space="preserve"
       style="font-size:14.1111px;font-family:sans-serif;-inkscape-font-specification:sans-serif;text-align:start;writing-mode:lr-tb;direction:ltr;text-anchor:start;fill:#000000;stroke-width:0.264583"
       id="text1097"
       inkscape:transform-center-x="3.8033404"
       inkscape:transform-center-y="4.741787"
       x="508.38391"
       y="0"><textPath
         xlink:href="#path19-0"
         startOffset="50%"
         id="textPath1097"
         style="font-style:normal;font-variant:normal;font-weight:normal;font-stretch:normal;font-size:14.1111px;font-family:'Argos George';-inkscape-font-specification:'Argos George';text-align:center;text-anchor:middle;stroke-width:0.264583">Spydmad</textPath></text>
    <path
       style="fill:none;stroke:none;stroke-width:0.264999;stroke-linecap:butt;stroke-linejoin:miter;stroke-dasharray:none;stroke-opacity:1;paint-order:fill markers stroke"
       d="m 11.57468,129.80177 c 0.89502,2.45684 1.722203,4.93839 2.480289,7.44087 0.847517,2.7977 1.615212,5.63876 2.89367,8.26763 1.780037,3.66025 4.613716,6.88801 8.267631,8.68102 3.807506,1.86837 8.179514,2.07626 12.401443,2.48029 7.298182,0.69842 14.626278,2.08277 21.909219,1.24014 0.833077,-0.0964 1.663786,-0.22198 2.480288,-0.41338 4.810616,-1.12765 8.828198,-4.46909 11.988061,-8.26763 3.648694,-4.38617 6.39501,-9.49241 8.267629,-14.88173 0.835065,-2.40328 1.498895,-4.86193 2.234715,-7.29743 1.296066,-4.28986 2.820732,-8.52074 4.792772,-12.54489 2.966031,-6.05249 7.084977,-11.74562 12.814823,-15.295108 3.67186,-2.274616 7.92708,-3.597257 12.2411,-3.810952 4.31401,-0.213695 8.67765,0.681397 12.56179,2.570808 4.14741,2.017479 7.79518,5.244472 9.80721,9.394532 1.00602,2.07503 1.59293,4.36065 1.63722,6.66626 0.0443,2.30562 -0.46052,4.62863 -1.52327,6.67519 -1.86721,3.59573 -5.50094,6.21877 -9.50168,6.85889 -4.00075,0.64012 -8.2715,-0.71821 -11.1674,-3.55184"
       id="path1097"
       sodipodi:nodetypes="csssssssssssssc"
       transform="translate(-0.45018429,-81.62737)"
       inkscape:original-d="m 11.57468,129.80177 c -2.6180814,-0.82676 5.925135,8.26763 2.480289,7.44087 -3.444845,-0.82676 7.165279,5.51176 2.89367,8.26763 -4.271607,2.75588 10.334539,2.89368 8.267631,8.68102 -2.066907,5.78734 12.263649,-3.44485 12.401443,2.48029 0.137794,5.92513 15.84629,-1.79133 21.909219,1.24014 6.062927,3.03146 -8.543219,-0.27559 2.480288,-0.41338 11.023504,-0.1378 6.614103,-4.96058 11.988061,-8.26763 5.37396,-3.30705 7.854247,-10.61013 8.267629,-14.88173 0.174444,-1.80258 1.085026,-4.39038 2.234715,-7.29743 1.574745,-3.98182 3.598082,-8.56259 4.792772,-12.54489 2.066906,-6.88969 8.405421,-10.47233 12.814823,-15.295108 4.4094,-4.822785 16.25967,-1.102352 24.80289,-1.240144 8.54322,-0.137795 6.6141,18.188782 9.92116,22.735982 3.30705,4.54719 -18.87776,-1.24015 -20.66908,3.30705"
       inkscape:path-effect="#path-effect1099" />
  </g>
</svg>
