<?xml version="1.0" encoding="UTF-8" standalone="no"?>
<svg
   width="500mm"
   height="350mm"
   viewBox="0 0 500 350"
   version="1.1"
   id="svg16"
   sodipodi:docname="Names Round 3.svg"
   inkscape:version="1.4.2 (2aeb623e1d, 2025-05-12)"
   xmlns:inkscape="http://www.inkscape.org/namespaces/inkscape"
   xmlns:sodipodi="http://sodipodi.sourceforge.net/DTD/sodipodi-0.dtd"
   xmlns:xlink="http://www.w3.org/1999/xlink"
   xmlns="http://www.w3.org/2000/svg"
   xmlns:svg="http://www.w3.org/2000/svg">
  <defs
     id="defs16">
    <inkscape:path-effect
       effect="spiro"
       id="path-effect1107"
       is_visible="true"
       lpeversion="1" />
    <inkscape:path-effect
       effect="spiro"
       id="path-effect1105"
       is_visible="true"
       lpeversion="1" />
    <inkscape:path-effect
       effect="spiro"
       id="path-effect1103"
       is_visible="true"
       lpeversion="1" />
    <inkscape:path-effect
       effect="spiro"
       id="path-effect1101"
       is_visible="true"
       lpeversion="1" />
    <inkscape:path-effect
       effect="spiro"
       id="path-effect1099"
       is_visible="true"
       lpeversion="1" />
    <inkscape:path-effect
       effect="spiro"
       id="path-effect1097"
       is_visible="true"
       lpeversion="1" />
    <inkscape:path-effect
       effect="spiro"
       id="path-effect1095"
       is_visible="true"
       lpeversion="1" />
    <inkscape:path-effect
       effect="spiro"
       id="path-effect1093"
       is_visible="true"
       lpeversion="1" />
    <inkscape:path-effect
       effect="spiro"
       id="path-effect1091"
       is_visible="true"
       lpeversion="1" />
    <inkscape:path-effect
       effect="spiro"
       id="path-effect1089"
       is_visible="true"
       lpeversion="1" />
    <inkscape:path-effect
       effect="spiro"
       id="path-effect1087"
       is_visible="true"
       lpeversion="1" />
    <inkscape:path-effect
       effect="spiro"
       id="path-effect1085"
       is_visible="true"
       lpeversion="1" />
    <inkscape:path-effect
       effect="spiro"
       id="path-effect1083"
       is_visible="true"
       lpeversion="1" />
    <inkscape:path-effect
       effect="spiro"
       id="path-effect1081"
       is_visible="true"
       lpeversion="1" />
    <inkscape:path-effect
       effect="spiro"
       id="path-effect1079"
       is_visible="true"
       lpeversion="1" />
    <inkscape:path-effect
       effect="spiro"
       id="path-effect1077"
       is_visible="true"
       lpeversion="1" />
    <inkscape:path-effect
       effect="spiro"
       id="path-effect1075"
       is_visible="true"
       lpeversion="1" />
    <inkscape:path-effect
       effect="spiro"
       id="path-effect1073"
       is_visible="true"
       lpeversion="1" />
    <inkscape:path-effect
       effect="spiro"
       id="path-effect1071"
       is_visible="true"
       lpeversion="1" />
    <inkscape:path-effect
       effect="spiro"
       id="path-effect1069"
       is_visible="true"
       lpeversion="1" />
    <inkscape:path-effect
       effect="spiro"
       id="path-effect1067"
       is_visible="true"
       lpeversion="1" />
    <inkscape:path-effect
       effect="spiro"
       id="path-effect1065"
       is_visible="true"
       lpeversion="1" />
    <inkscape:path-effect
       effect="spiro"
       id="path-effect1063"
       is_visible="true"
       lpeversion="1" />
    <inkscape:path-effect
       effect="spiro"
       id="path-effect1061"
       is_visible="true"
       lpeversion="1" />
    <inkscape:path-effect
       effect="spiro"
       id="path-effect1059"
       is_visible="true"
       lpeversion="1" />
    <inkscape:path-effect
       effect="spiro"
       id="path-effect1057"
       is_visible="true"
       lpeversion="1" />
    <inkscape:path-effect
       effect="spiro"
       id="path-effect1055"
       is_visible="true"
       lpeversion="1" />
    <inkscape:path-effect
       effect="spiro"
       id="path-effect1053"
       is_visible="true"
       lpeversion="1" />
    <inkscape:path-effect
       effect="spiro"
       id="path-effect1051"
       is_visible="true"
       lpeversion="1" />
    <inkscape:path-effect
       effect="spiro"
       id="path-effect1049"
       is_visible="true"
       lpeversion="1" />
    <inkscape:path-effect
       effect="spiro"
       id="path-effect1047"
       is_visible="true"
       lpeversion="1" />
    <inkscape:path-effect
       effect="spiro"
       id="path-effect1045"
       is_visible="true"
       lpeversion="1" />
    <inkscape:path-effect
       effect="spiro"
       id="path-effect1043"
       is_visible="true"
       lpeversion="1" />
    <inkscape:path-effect
       effect="spiro"
       id="path-effect1041"
       is_visible="true"
       lpeversion="1" />
    <inkscape:path-effect
       effect="spiro"
       id="path-effect1039"
       is_visible="true"
       lpeversion="1" />
    <inkscape:path-effect
       effect="spiro"
       id="path-effect30"
       is_visible="true"
       lpeversion="1" />
    <inkscape:path-effect
       effect="spiro"
       id="path-effect28"
       is_visible="true"
       lpeversion="1" />
    <inkscape:path-effect
       effect="spiro"
       id="path-effect24"
       is_visible="true"
       lpeversion="1" />
    <inkscape:path-effect
       effect="spiro"
       id="path-effect22"
       is_visible="true"
       lpeversion="1" />
    <inkscape:path-effect
       effect="spiro"
       id="path-effect20"
       is_visible="true"
       lpeversion="1" />
    <inkscape:path-effect
       effect="spiro"
       id="path-effect19"
       is_visible="true"
       lpeversion="1" />
    <inkscape:path-effect
       effect="spiro"
       id="path-effect20-4"
       is_visible="true"
       lpeversion="1" />
    <inkscape:path-effect
       effect="spiro"
       id="path-effect20-7"
       is_visible="true"
       lpeversion="1" />
    <inkscape:path-effect
       effect="spiro"
       id="path-effect24-7"
       is_visible="true"
       lpeversion="1" />
  </defs>
  <sodipodi:namedview
     id="namedview16"
     pagecolor="#ffffff"
     bordercolor="#000000"
     borderopacity="0.25"
     inkscape:showpageshadow="2"
     inkscape:pageopacity="0.0"
     inkscape:pagecheckerboard="0"
     inkscape:deskcolor="#d1d1d1"
     inkscape:document-units="mm"
     inkscape:zoom="0.65364817"
     inkscape:cx="1734.8783"
     inkscape:cy="358.75569"
     inkscape:window-width="1854"
     inkscape:window-height="1011"
     inkscape:window-x="66"
     inkscape:window-y="32"
     inkscape:window-maximized="1"
     inkscape:current-layer="use1014" />
  <polyline
     points="5.9,335.972 1.224,331.44 -0.227,330.22 -0.941,329.722 -1.356,329.484 -1.709,329.319 -2.046,329.197 -2.377,329.113 -2.715,329.06 -3.199,329.028 -3.737,329.031 -4.626,329.059 -6.378,329.098 -14.105,329.023 -22.929,328.408 -27.779,327.634 -32.058,326.556 -35.375,325.395 -38.41,324.022 -41.219,322.427 -44.529,320.103 -47.639,317.462 -49.994,315.054 -51.684,312.967 -52.742,311.398 -53.529,309.994 -54.158,308.599 -54.655,307.134 -55.006,305.638 -55.215,304.132 -55.293,302.491 -55.217,300.657 -54.941,298.546 -54.297,295.709 -53.394,292.929 -52.446,290.727 -51.641,289.233 -50.855,288.021 -50.087,287.031 -49.339,286.217 -48.604,285.545 -47.878,284.989 -47.152,284.529 -46.4,284.145 -45.652,283.847 -44.814,283.596 -43.862,283.402 -42.785,283.281 -41.589,283.254 -40.163,283.357 -38.784,283.59 -37.542,283.919 -36.492,284.299 -35.551,284.735 -34.878,285.124 -34.344,285.495 -33.884,285.877 -33.483,286.283 -33.129,286.717 -32.844,287.141 -32.595,287.597 -32.396,288.05 -32.206,288.604 -32.05,289.242 -31.929,290.02 -31.859,291.032 -31.873,291.644 -31.924,292.09 -32.011,292.518 -32.145,292.956 -32.318,293.38 -32.556,293.839 -32.89,294.361 -33.373,294.988 -34.873,296.614 -35.346,297.227 -35.67,297.733 -35.9,298.176 -36.067,298.584 -36.195,299.004 -36.278,299.414 -36.327,299.842 -36.341,300.436 -36.273,301.43 -36.154,302.192 -36.002,302.812 -35.818,303.35 -35.625,303.787 -35.384,304.227 -35.111,304.637 -34.769,305.055 -34.38,305.447 -33.934,305.819 -33.414,306.18 -32.757,306.559 -31.832,306.989 -30.798,307.363 -29.574,307.686 -28.213,307.917 -26.807,308.018 -25.629,307.991 -24.57,307.872 -23.634,307.682 -22.814,307.437 -22.082,307.145 -21.348,306.769 -20.636,306.319 -19.924,305.773 -19.203,305.113 -18.465,304.313 -17.709,303.335 -16.931,302.137 -16.134,300.659 -15.194,298.473 -14.297,295.711 -13.657,292.892 -13.383,290.799 -13.307,288.982 -13.385,287.358 -13.59,285.871 -13.937,284.394 -14.428,282.947 -15.049,281.568 -15.828,280.18 -16.876,278.625 -18.556,276.552 -20.897,274.156 -23.993,271.527 -27.289,269.215 -30.08,267.628 -33.099,266.263 -36.4,265.108 -40.661,264.034 -45.493,263.264 -54.303,262.649 -62.02,262.574 -63.769,262.613 -64.659,262.641 -65.207,262.644 -65.707,262.612 -66.063,262.555 -66.412,262.467 -66.767,262.339 -67.136,262.166 -67.567,261.92 -68.295,261.412 -69.758,260.18 -74.3,255.779 -74.3,175.5 -69.624,180.032 -68.173,181.253 -67.459,181.751 -67.044,181.988 -66.691,182.154 -66.354,182.275 -66.023,182.359 -65.685,182.413 -65.201,182.444 -64.663,182.441 -63.774,182.413 -62.022,182.374 -54.295,182.449 -45.471,183.065 -40.621,183.838 -36.342,184.916 -33.025,186.077 -29.99,187.45 -27.181,189.046 -23.871,191.369 -20.761,194.01 -18.406,196.419 -16.716,198.506 -15.658,200.075 -14.871,201.478 -14.242,202.873 -13.745,204.339 -13.394,205.835 -13.185,207.34 -13.107,208.981 -13.183,210.816 -13.459,212.927 -14.103,215.764 -15.006,218.543 -15.954,220.746 -16.759,222.239 -17.545,223.451 -18.313,224.442 -19.061,225.255 -19.796,225.927 -20.522,226.483 -21.248,226.943 -22,227.327 -22.748,227.626 -23.586,227.876 -24.538,228.07 -25.615,228.191 -26.811,228.218 -28.237,228.116 -29.616,227.882 -30.858,227.554 -31.908,227.174 -32.849,226.737 -33.522,226.349 -34.056,225.978 -34.516,225.595 -34.917,225.189 -35.271,224.756 -35.556,224.331 -35.805,223.875 -36.004,223.423 -36.194,222.868 -36.35,222.231 -36.471,221.452 -36.541,220.44 -36.527,219.828 -36.476,219.383 -36.389,218.955 -36.255,218.517 -36.082,218.092 -35.844,217.633 -35.51,217.112 -35.026,216.485 -33.527,214.859 -33.054,214.246 -32.73,213.739 -32.5,213.296 -32.333,212.889 -32.205,212.469 -32.122,212.059 -32.073,211.63 -32.059,211.036 -32.127,210.042 -32.246,209.281 -32.398,208.66 -32.582,208.123 -32.775,207.685 -33.016,207.245 -33.289,206.836 -33.631,206.417 -34.02,206.025 -34.466,205.654 -34.986,205.293 -35.643,204.913 -36.568,204.484 -37.602,204.11 -38.826,203.786 -40.187,203.556 -41.593,203.454 -42.771,203.481 -43.83,203.6 -44.766,203.79 -45.586,204.036 -46.318,204.327 -47.052,204.703 -47.764,205.153 -48.476,205.699 -49.197,206.359 -49.935,207.16 -50.691,208.137 -51.469,209.335 -52.266,210.814 -53.206,212.999 -54.103,215.762 -54.743,218.581 -55.017,220.674 -55.093,222.491 -55.015,224.114 -54.81,225.601 -54.463,227.079 -53.972,228.526 -53.351,229.904 -52.572,231.293 -51.524,232.848 -49.844,234.921 -47.503,237.316 -44.407,239.945 -41.111,242.258 -38.32,243.844 -35.301,245.209 -32,246.364 -27.739,247.438 -22.907,248.209 -14.097,248.823 -6.38,248.898 -4.631,248.859 -3.741,248.831 -3.193,248.828 -2.693,248.861 -2.337,248.917 -1.988,249.005 -1.633,249.134 -1.264,249.306 -0.833,249.553 -0.105,250.061 1.358,251.292 5.9,255.694 5.9,335.972"
     fill="none"
     stroke="#000000"
     stroke-width="0.1mm"
     id="polyline1"
     transform="rotate(90,130.96467,205.45365)" />
  <polyline
     points="31.206,315.054 29.516,312.967 28.458,311.398 27.671,309.994 27.042,308.599 26.545,307.134 26.194,305.638 25.985,304.132 25.907,302.491 25.983,300.657 26.259,298.546 26.903,295.709 27.806,292.929 28.754,290.727 29.559,289.233 30.345,288.021 31.113,287.031 31.861,286.217 32.596,285.545 33.322,284.989 34.048,284.529 34.8,284.145 35.548,283.847 36.386,283.596 37.338,283.402 38.415,283.281 39.611,283.254 41.037,283.357 42.416,283.59 43.658,283.919 44.708,284.299 45.649,284.735 46.322,285.124 46.856,285.495 47.316,285.877 47.717,286.283 48.071,286.717 48.356,287.141 48.605,287.597 48.804,288.05 48.994,288.604 49.15,289.242 49.271,290.02 49.341,291.032 49.327,291.644 49.276,292.09 49.189,292.518 49.055,292.956 48.882,293.38 48.644,293.839 48.31,294.361 47.826,294.988 46.327,296.614 45.854,297.227 45.53,297.733 45.3,298.176 45.133,298.584 45.005,299.004 44.922,299.414 44.873,299.842 44.859,300.436 44.927,301.43 45.046,302.192 45.198,302.812 45.382,303.35 45.575,303.787 45.816,304.227 46.089,304.637 46.431,305.055 46.82,305.447 47.266,305.819 47.786,306.18 48.443,306.559 49.368,306.989 50.402,307.363 51.626,307.686 52.987,307.917 54.393,308.018 55.571,307.991 56.63,307.872 57.566,307.682 58.386,307.437 59.118,307.145 59.852,306.769 60.564,306.319 61.276,305.773 61.997,305.113 62.735,304.313 63.491,303.335 64.269,302.137 65.066,300.659 66.006,298.473 66.903,295.711 67.543,292.892 67.817,290.799 67.893,288.982 67.815,287.358 67.61,285.871 67.263,284.394 66.772,282.947 66.151,281.568 65.372,280.18 64.324,278.625 62.644,276.552 60.303,274.156 57.207,271.527 53.911,269.215 51.12,267.628 48.101,266.263 44.8,265.108 40.539,264.034 35.707,263.264 26.897,262.649 19.18,262.574 17.431,262.613 16.541,262.641 15.993,262.644 15.493,262.612 15.137,262.555 14.788,262.467 14.433,262.339 14.064,262.166 13.633,261.92 12.905,261.412 11.442,260.18 6.9,255.779 6.9,175.5 11.576,180.032 13.027,181.253 13.741,181.751 14.156,181.988 14.509,182.154 14.846,182.275 15.177,182.359 15.515,182.413 15.999,182.444 16.537,182.441 17.426,182.413 19.178,182.374 26.905,182.449 35.729,183.065 40.579,183.838 44.858,184.916 48.175,186.077 51.21,187.45 54.019,189.046 57.329,191.369 60.439,194.01 62.794,196.419 64.484,198.506 65.542,200.075 66.329,201.478 66.958,202.873 67.455,204.339 67.806,205.835 68.015,207.34 68.093,208.981 68.017,210.816 67.741,212.927 67.097,215.764 66.194,218.543 65.246,220.746 64.441,222.239 63.655,223.451 62.887,224.442 62.139,225.255 61.404,225.927 60.678,226.483 59.952,226.943 59.2,227.327 58.452,227.626 57.614,227.876 56.662,228.07 55.585,228.191 54.389,228.218 52.963,228.116 51.584,227.882 50.342,227.554 49.292,227.174 48.351,226.737 47.678,226.349 47.144,225.978 46.684,225.595 46.283,225.189 45.929,224.756 45.644,224.331 45.395,223.875 45.196,223.423 45.006,222.868 44.85,222.231 44.729,221.452 44.659,220.44 44.673,219.828 44.724,219.383 44.811,218.955 44.945,218.517 45.118,218.092 45.356,217.633 45.69,217.112 46.173,216.485 47.673,214.859 48.146,214.246 48.47,213.739 48.7,213.296 48.867,212.889 48.995,212.469 49.078,212.059 49.127,211.63 49.141,211.036 49.073,210.042 48.954,209.281 48.802,208.66 48.618,208.123 48.425,207.685 48.184,207.245 47.911,206.836 47.569,206.417 47.18,206.025 46.734,205.654 46.214,205.293 45.557,204.913 44.632,204.484 43.598,204.11 42.374,203.786 41.013,203.556 39.607,203.454 38.429,203.481 37.37,203.6 36.434,203.79 35.614,204.036 34.882,204.327 34.148,204.703 33.436,205.153 32.724,205.699 32.003,206.359 31.265,207.16 30.509,208.137 29.731,209.335 28.934,210.814 27.994,212.999 27.097,215.762 26.457,218.581 26.183,220.674 26.107,222.491 26.185,224.114 26.39,225.601 26.737,227.079 27.228,228.526 27.849,229.904 28.628,231.293 29.676,232.848 31.356,234.921 33.697,237.316 36.793,239.945 40.089,242.258 42.88,243.844 45.899,245.209 49.2,246.364 53.461,247.438 58.293,248.209 67.103,248.823 74.82,248.898 76.569,248.859 77.459,248.831 78.007,248.828 78.507,248.861 78.863,248.917 79.212,249.005 79.567,249.134 79.936,249.306 80.367,249.553 81.095,250.061 82.558,251.292 87.1,255.694 87.1,335.972 82.424,331.44 80.973,330.22 80.259,329.722 79.844,329.484 79.491,329.319 79.154,329.197 78.823,329.113 78.485,329.06 78.001,329.028 77.463,329.031 76.574,329.059 74.822,329.098 67.095,329.023 58.271,328.408 53.421,327.634 49.142,326.556 45.825,325.395 42.79,324.022 39.981,322.427 36.671,320.103 33.561,317.462 31.206,315.054"
     fill="none"
     stroke="#000000"
     stroke-width="0.1mm"
     id="polyline2"
     transform="rotate(90,130.96467,205.45365)" />
  <polyline
     points="87.1,174.5 82.424,169.968 80.973,168.747 80.259,168.249 79.844,168.012 79.491,167.846 79.154,167.725 78.823,167.641 78.485,167.587 78.001,167.556 77.463,167.559 76.574,167.587 74.822,167.626 67.095,167.551 58.271,166.935 53.421,166.162 49.142,165.084 45.825,163.923 42.79,162.55 39.981,160.954 36.671,158.631 33.561,155.99 31.206,153.581 29.516,151.494 28.458,149.925 27.671,148.522 27.042,147.127 26.545,145.661 26.194,144.165 25.985,142.66 25.907,141.019 25.983,139.184 26.259,137.073 26.903,134.236 27.806,131.457 28.754,129.254 29.559,127.761 30.345,126.549 31.113,125.558 31.861,124.745 32.596,124.073 33.322,123.517 34.048,123.057 34.8,122.673 35.548,122.374 36.386,122.124 37.338,121.93 38.415,121.809 39.611,121.782 41.037,121.884 42.416,122.118 43.658,122.446 44.708,122.826 45.649,123.263 46.322,123.651 46.856,124.022 47.316,124.405 47.717,124.811 48.071,125.244 48.356,125.669 48.605,126.125 48.804,126.577 48.994,127.132 49.15,127.769 49.271,128.548 49.341,129.56 49.327,130.172 49.276,130.617 49.189,131.045 49.055,131.483 48.882,131.908 48.644,132.367 48.31,132.888 47.826,133.515 46.327,135.141 45.854,135.754 45.53,136.261 45.3,136.704 45.133,137.111 45.005,137.531 44.922,137.941 44.873,138.37 44.859,138.964 44.927,139.958 45.046,140.719 45.198,141.34 45.382,141.877 45.575,142.315 45.816,142.755 46.089,143.164 46.431,143.583 46.82,143.975 47.266,144.346 47.786,144.707 48.443,145.087 49.368,145.516 50.402,145.89 51.626,146.214 52.987,146.444 54.393,146.546 55.571,146.519 56.63,146.4 57.566,146.21 58.386,145.964 59.118,145.673 59.852,145.297 60.564,144.847 61.276,144.301 61.997,143.641 62.735,142.84 63.491,141.863 64.269,140.665 65.066,139.186 66.006,137.001 66.903,134.238 67.543,131.419 67.817,129.326 67.893,127.509 67.815,125.886 67.61,124.399 67.263,122.921 66.772,121.474 66.151,120.096 65.372,118.707 64.324,117.152 62.644,115.079 60.303,112.684 57.207,110.055 53.911,107.742 51.12,106.156 48.101,104.791 44.8,103.636 40.539,102.562 35.707,101.791 26.897,101.177 19.18,101.102 17.431,101.141 16.541,101.169 15.993,101.172 15.493,101.139 15.137,101.083 14.788,100.995 14.433,100.866 14.064,100.694 13.633,100.447 12.905,99.939 11.442,98.708 6.9,94.306 6.9,14.028 11.576,18.56 13.027,19.78 13.741,20.278 14.156,20.516 14.509,20.681 14.846,20.803 15.177,20.887 15.515,20.94 15.999,20.972 16.537,20.969 17.426,20.941 19.178,20.902 26.905,20.977 35.729,21.592 40.579,22.366 44.858,23.444 48.175,24.605 51.21,25.978 54.019,27.573 57.329,29.897 60.439,32.538 62.794,34.946 64.484,37.033 65.542,38.602 66.329,40.006 66.958,41.401 67.455,42.866 67.806,44.363 68.015,45.868 68.093,47.509 68.017,49.343 67.741,51.454 67.097,54.291 66.194,57.071 65.246,59.273 64.441,60.767 63.655,61.979 62.887,62.969 62.139,63.783 61.404,64.455 60.678,65.011 59.952,65.471 59.2,65.855 58.452,66.153 57.614,66.404 56.662,66.598 55.585,66.719 54.389,66.746 52.963,66.643 51.584,66.41 50.342,66.081 49.292,65.701 48.351,65.265 47.678,64.876 47.144,64.505 46.684,64.123 46.283,63.717 45.929,63.283 45.644,62.859 45.395,62.403 45.196,61.95 45.006,61.396 44.85,60.758 44.729,59.98 44.659,58.968 44.673,58.356 44.724,57.91 44.811,57.482 44.945,57.044 45.118,56.62 45.356,56.161 45.69,55.639 46.173,55.012 47.673,53.386 48.146,52.773 48.47,52.267 48.7,51.824 48.867,51.416 48.995,50.996 49.078,50.586 49.127,50.158 49.141,49.564 49.073,48.57 48.954,47.808 48.802,47.188 48.618,46.65 48.425,46.213 48.184,45.773 47.911,45.363 47.569,44.945 47.18,44.553 46.734,44.181 46.214,43.82 45.557,43.441 44.632,43.011 43.598,42.637 42.374,42.314 41.013,42.083 39.607,41.982 38.429,42.009 37.37,42.128 36.434,42.318 35.614,42.563 34.882,42.855 34.148,43.231 33.436,43.681 32.724,44.227 32.003,44.887 31.265,45.687 30.509,46.665 29.731,47.863 28.934,49.341 27.994,51.527 27.097,54.289 26.457,57.108 26.183,59.201 26.107,61.018 26.185,62.642 26.39,64.129 26.737,65.606 27.228,67.053 27.849,68.432 28.628,69.82 29.676,71.375 31.356,73.448 33.697,75.844 36.793,78.473 40.089,80.785 42.88,82.372 45.899,83.737 49.2,84.892 53.461,85.966 58.293,86.736 67.103,87.351 74.82,87.426 76.569,87.387 77.459,87.359 78.007,87.356 78.507,87.388 78.863,87.445 79.212,87.533 79.567,87.661 79.936,87.834 80.367,88.08 81.095,88.588 82.558,89.82 87.1,94.221 87.1,174.5"
     fill="none"
     stroke="#000000"
     stroke-width="0.1mm"
     id="polyline15"
     transform="rotate(90,130.96467,205.45365)" />
  <polyline
     points="5.9,174.5 1.224,169.968 -0.227,168.747 -0.941,168.249 -1.356,168.012 -1.709,167.846 -2.046,167.725 -2.377,167.641 -2.715,167.587 -3.199,167.556 -3.737,167.559 -4.626,167.587 -6.378,167.626 -14.105,167.551 -22.929,166.935 -27.779,166.162 -32.058,165.084 -35.375,163.923 -38.41,162.55 -41.219,160.954 -44.529,158.631 -47.639,155.99 -49.994,153.581 -51.684,151.494 -52.742,149.925 -53.529,148.522 -54.158,147.127 -54.655,145.661 -55.006,144.165 -55.215,142.66 -55.293,141.019 -55.217,139.184 -54.941,137.073 -54.297,134.236 -53.394,131.457 -52.446,129.254 -51.641,127.761 -50.855,126.549 -50.087,125.558 -49.339,124.745 -48.604,124.073 -47.878,123.517 -47.152,123.057 -46.4,122.673 -45.652,122.374 -44.814,122.124 -43.862,121.93 -42.785,121.809 -41.589,121.782 -40.163,121.884 -38.784,122.118 -37.542,122.446 -36.492,122.826 -35.551,123.263 -34.878,123.651 -34.344,124.022 -33.884,124.405 -33.483,124.811 -33.129,125.244 -32.844,125.669 -32.595,126.125 -32.396,126.577 -32.206,127.132 -32.05,127.769 -31.929,128.548 -31.859,129.56 -31.873,130.172 -31.924,130.617 -32.011,131.045 -32.145,131.483 -32.318,131.908 -32.556,132.367 -32.89,132.888 -33.373,133.515 -34.873,135.141 -35.346,135.754 -35.67,136.261 -35.9,136.704 -36.067,137.111 -36.195,137.531 -36.278,137.941 -36.327,138.37 -36.341,138.964 -36.273,139.958 -36.154,140.719 -36.002,141.34 -35.818,141.877 -35.625,142.315 -35.384,142.755 -35.111,143.164 -34.769,143.583 -34.38,143.975 -33.934,144.346 -33.414,144.707 -32.757,145.087 -31.832,145.516 -30.798,145.89 -29.574,146.214 -28.213,146.444 -26.807,146.546 -25.629,146.519 -24.57,146.4 -23.634,146.21 -22.814,145.964 -22.082,145.673 -21.348,145.297 -20.636,144.847 -19.924,144.301 -19.203,143.641 -18.465,142.84 -17.709,141.863 -16.931,140.665 -16.134,139.186 -15.194,137.001 -14.297,134.238 -13.657,131.419 -13.383,129.326 -13.307,127.509 -13.385,125.886 -13.59,124.399 -13.937,122.921 -14.428,121.474 -15.049,120.096 -15.828,118.707 -16.876,117.152 -18.556,115.079 -20.897,112.684 -23.993,110.055 -27.289,107.742 -30.08,106.156 -33.099,104.791 -36.4,103.636 -40.661,102.562 -45.493,101.791 -54.303,101.177 -62.02,101.102 -63.769,101.141 -64.659,101.169 -65.207,101.172 -65.707,101.139 -66.063,101.083 -66.412,100.995 -66.767,100.866 -67.136,100.694 -67.567,100.447 -68.295,99.939 -69.758,98.708 -74.3,94.306 -74.3,14.028 -69.624,18.56 -68.173,19.78 -67.459,20.278 -67.044,20.516 -66.691,20.681 -66.354,20.803 -66.023,20.887 -65.685,20.94 -65.201,20.972 -64.663,20.969 -63.774,20.941 -62.022,20.902 -54.295,20.977 -45.471,21.592 -40.621,22.366 -36.342,23.444 -33.025,24.605 -29.99,25.978 -27.181,27.573 -23.871,29.897 -20.761,32.538 -18.406,34.946 -16.716,37.033 -15.658,38.602 -14.871,40.006 -14.242,41.401 -13.745,42.866 -13.394,44.363 -13.185,45.868 -13.107,47.509 -13.183,49.343 -13.459,51.454 -14.103,54.291 -15.006,57.071 -15.954,59.273 -16.759,60.767 -17.545,61.979 -18.313,62.969 -19.061,63.783 -19.796,64.455 -20.522,65.011 -21.248,65.471 -22,65.855 -22.748,66.153 -23.586,66.404 -24.538,66.598 -25.615,66.719 -26.811,66.746 -28.237,66.643 -29.616,66.41 -30.858,66.081 -31.908,65.701 -32.849,65.265 -33.522,64.876 -34.056,64.505 -34.516,64.123 -34.917,63.717 -35.271,63.283 -35.556,62.859 -35.805,62.403 -36.004,61.95 -36.194,61.396 -36.35,60.758 -36.471,59.98 -36.541,58.968 -36.527,58.356 -36.476,57.91 -36.389,57.482 -36.255,57.044 -36.082,56.62 -35.844,56.161 -35.51,55.639 -35.026,55.012 -33.527,53.386 -33.054,52.773 -32.73,52.267 -32.5,51.824 -32.333,51.416 -32.205,50.996 -32.122,50.586 -32.073,50.158 -32.059,49.564 -32.127,48.57 -32.246,47.808 -32.398,47.188 -32.582,46.65 -32.775,46.213 -33.016,45.773 -33.289,45.363 -33.631,44.945 -34.02,44.553 -34.466,44.181 -34.986,43.82 -35.643,43.441 -36.568,43.011 -37.602,42.637 -38.826,42.314 -40.187,42.083 -41.593,41.982 -42.771,42.009 -43.83,42.128 -44.766,42.318 -45.586,42.563 -46.318,42.855 -47.052,43.231 -47.764,43.681 -48.476,44.227 -49.197,44.887 -49.935,45.687 -50.691,46.665 -51.469,47.863 -52.266,49.341 -53.206,51.527 -54.103,54.289 -54.743,57.108 -55.017,59.201 -55.093,61.018 -55.015,62.642 -54.81,64.129 -54.463,65.606 -53.972,67.053 -53.351,68.432 -52.572,69.82 -51.524,71.375 -49.844,73.448 -47.503,75.844 -44.407,78.473 -41.111,80.785 -38.32,82.372 -35.301,83.737 -32,84.892 -27.739,85.966 -22.907,86.736 -14.097,87.351 -6.38,87.426 -4.631,87.387 -3.741,87.359 -3.193,87.356 -2.693,87.388 -2.337,87.445 -1.988,87.533 -1.633,87.661 -1.264,87.834 -0.833,88.08 -0.105,88.588 1.358,89.82 5.9,94.221 5.9,174.5"
     fill="none"
     stroke="#000000"
     stroke-width="0.1mm"
     id="polyline16"
     transform="rotate(90,130.96467,205.45365)" />
  <polyline
     points="412.9,255.779 412.9,175.5 417.576,180.032 419.027,181.253 419.741,181.751 420.156,181.988 420.509,182.154 420.846,182.275 421.177,182.359 421.515,182.413 421.999,182.444 422.537,182.441 423.426,182.413 425.178,182.374 432.905,182.449 441.729,183.065 446.579,183.838 450.858,184.916 454.175,186.077 457.21,187.45 460.019,189.046 463.329,191.369 466.439,194.01 468.794,196.419 470.484,198.506 471.542,200.075 472.329,201.478 472.958,202.873 473.455,204.339 473.806,205.835 474.015,207.34 474.093,208.981 474.017,210.816 473.741,212.927 473.097,215.764 472.194,218.543 471.246,220.746 470.441,222.239 469.655,223.451 468.887,224.442 468.139,225.255 467.404,225.927 466.678,226.483 465.952,226.943 465.2,227.327 464.452,227.626 463.614,227.876 462.662,228.07 461.585,228.191 460.389,228.218 458.963,228.116 457.584,227.882 456.342,227.554 455.292,227.174 454.351,226.737 453.678,226.349 453.144,225.978 452.684,225.595 452.283,225.189 451.929,224.756 451.644,224.331 451.395,223.875 451.196,223.423 451.006,222.868 450.85,222.231 450.729,221.452 450.659,220.44 450.673,219.828 450.724,219.383 450.811,218.955 450.945,218.517 451.118,218.092 451.356,217.633 451.69,217.112 452.174,216.485 453.673,214.859 454.146,214.246 454.47,213.739 454.7,213.296 454.867,212.889 454.995,212.469 455.078,212.059 455.127,211.63 455.141,211.036 455.073,210.042 454.954,209.281 454.802,208.66 454.618,208.123 454.425,207.685 454.184,207.245 453.911,206.836 453.569,206.417 453.18,206.025 452.734,205.654 452.214,205.293 451.557,204.913 450.632,204.484 449.598,204.11 448.374,203.786 447.013,203.556 445.607,203.454 444.429,203.481 443.37,203.6 442.434,203.79 441.614,204.036 440.882,204.327 440.148,204.703 439.436,205.153 438.724,205.699 438.003,206.359 437.265,207.16 436.509,208.137 435.731,209.335 434.934,210.814 433.994,212.999 433.097,215.762 432.457,218.581 432.183,220.674 432.107,222.491 432.185,224.114 432.39,225.601 432.737,227.079 433.228,228.526 433.849,229.904 434.628,231.293 435.676,232.848 437.356,234.921 439.697,237.316 442.793,239.945 446.089,242.258 448.88,243.844 451.899,245.209 455.2,246.364 459.461,247.438 464.293,248.209 473.103,248.823 480.82,248.898 482.569,248.859 483.459,248.831 484.007,248.828 484.507,248.861 484.863,248.917 485.212,249.005 485.567,249.134 485.936,249.306 486.367,249.553 487.095,250.061 488.558,251.292 493.1,255.694 493.1,335.972 488.424,331.44 486.973,330.22 486.259,329.722 485.844,329.484 485.491,329.319 485.154,329.197 484.823,329.113 484.485,329.06 484.001,329.028 483.463,329.031 482.574,329.059 480.822,329.098 473.095,329.023 464.271,328.408 459.421,327.634 455.142,326.556 451.825,325.395 448.79,324.022 445.981,322.427 442.671,320.103 439.561,317.462 437.206,315.054 435.516,312.967 434.458,311.398 433.671,309.994 433.042,308.599 432.545,307.134 432.194,305.638 431.985,304.132 431.907,302.491 431.983,300.657 432.259,298.546 432.903,295.709 433.806,292.929 434.754,290.727 435.559,289.233 436.345,288.021 437.113,287.031 437.861,286.217 438.596,285.545 439.322,284.989 440.048,284.529 440.8,284.145 441.548,283.847 442.386,283.596 443.338,283.402 444.415,283.281 445.611,283.254 447.037,283.357 448.416,283.59 449.658,283.919 450.708,284.299 451.649,284.735 452.322,285.124 452.856,285.495 453.316,285.877 453.717,286.283 454.071,286.717 454.356,287.141 454.605,287.597 454.804,288.05 454.994,288.604 455.15,289.242 455.271,290.02 455.341,291.032 455.327,291.644 455.276,292.09 455.189,292.518 455.055,292.956 454.882,293.38 454.644,293.839 454.31,294.361 453.827,294.988 452.327,296.614 451.854,297.227 451.53,297.733 451.3,298.176 451.133,298.584 451.005,299.004 450.922,299.414 450.873,299.842 450.859,300.436 450.927,301.43 451.046,302.192 451.198,302.812 451.382,303.35 451.575,303.787 451.816,304.227 452.089,304.637 452.431,305.055 452.82,305.447 453.266,305.819 453.786,306.18 454.443,306.559 455.368,306.989 456.402,307.363 457.626,307.686 458.987,307.917 460.393,308.018 461.571,307.991 462.63,307.872 463.566,307.682 464.386,307.437 465.118,307.145 465.852,306.769 466.564,306.319 467.276,305.773 467.997,305.113 468.735,304.313 469.491,303.335 470.269,302.137 471.066,300.659 472.006,298.473 472.903,295.711 473.543,292.892 473.817,290.799 473.893,288.982 473.815,287.358 473.61,285.871 473.263,284.394 472.772,282.947 472.151,281.568 471.372,280.18 470.324,278.625 468.644,276.552 466.303,274.156 463.207,271.527 459.911,269.215 457.12,267.628 454.101,266.263 450.8,265.108 446.539,264.034 441.707,263.264 432.897,262.649 425.18,262.574 423.431,262.613 422.541,262.641 421.993,262.644 421.493,262.612 421.137,262.555 420.788,262.467 420.433,262.339 420.064,262.166 419.633,261.92 418.905,261.412 417.442,260.18 412.9,255.779"
     fill="none"
     stroke="#000000"
     stroke-width="0.1mm"
     id="polyline7-6"
     transform="rotate(90,535.67197,123.583)" />
  <polyline
     points="494.1,255.779 494.1,175.5 498.776,180.032 500.227,181.253 500.941,181.751 501.356,181.988 501.709,182.154 502.046,182.275 502.377,182.359 502.715,182.413 503.199,182.444 503.737,182.441 504.626,182.413 506.378,182.374 514.105,182.449 522.929,183.065 527.779,183.838 532.058,184.916 535.375,186.077 538.41,187.45 541.219,189.046 544.529,191.369 547.639,194.01 549.994,196.419 551.684,198.506 552.742,200.075 553.529,201.478 554.158,202.873 554.655,204.339 555.006,205.835 555.215,207.34 555.293,208.981 555.217,210.816 554.941,212.927 554.297,215.764 553.394,218.543 552.446,220.746 551.641,222.239 550.855,223.451 550.087,224.442 549.339,225.255 548.604,225.927 547.878,226.483 547.152,226.943 546.4,227.327 545.652,227.626 544.814,227.876 543.862,228.07 542.785,228.191 541.589,228.218 540.163,228.116 538.784,227.882 537.542,227.554 536.492,227.174 535.551,226.737 534.878,226.349 534.344,225.978 533.884,225.595 533.483,225.189 533.129,224.756 532.844,224.331 532.595,223.875 532.396,223.423 532.206,222.868 532.05,222.231 531.929,221.452 531.859,220.44 531.873,219.828 531.924,219.383 532.011,218.955 532.145,218.517 532.318,218.092 532.556,217.633 532.89,217.112 533.373,216.485 534.873,214.859 535.346,214.246 535.67,213.739 535.9,213.296 536.067,212.889 536.195,212.469 536.278,212.059 536.327,211.63 536.341,211.036 536.273,210.042 536.154,209.281 536.002,208.66 535.818,208.123 535.625,207.685 535.384,207.245 535.111,206.836 534.769,206.417 534.38,206.025 533.934,205.654 533.414,205.293 532.757,204.913 531.832,204.484 530.798,204.11 529.574,203.786 528.213,203.556 526.807,203.454 525.629,203.481 524.57,203.6 523.634,203.79 522.814,204.036 522.082,204.327 521.348,204.703 520.636,205.153 519.924,205.699 519.203,206.359 518.465,207.16 517.709,208.137 516.931,209.335 516.134,210.814 515.194,212.999 514.297,215.762 513.657,218.581 513.383,220.674 513.307,222.491 513.385,224.114 513.59,225.601 513.937,227.079 514.428,228.526 515.049,229.904 515.828,231.293 516.876,232.848 518.556,234.921 520.897,237.316 523.993,239.945 527.289,242.258 530.08,243.844 533.099,245.209 536.4,246.364 540.661,247.438 545.493,248.209 554.303,248.823 562.02,248.898 563.769,248.859 564.659,248.831 565.207,248.828 565.707,248.861 566.063,248.917 566.412,249.005 566.767,249.134 567.136,249.306 567.567,249.553 568.295,250.061 569.758,251.292 574.3,255.694 574.3,335.972 569.624,331.44 568.173,330.22 567.459,329.722 567.044,329.484 566.691,329.319 566.354,329.197 566.023,329.113 565.685,329.06 565.201,329.028 564.663,329.031 563.774,329.059 562.022,329.098 554.295,329.023 545.471,328.408 540.621,327.634 536.342,326.556 533.025,325.395 529.99,324.022 527.181,322.427 523.871,320.103 520.761,317.462 518.406,315.054 516.716,312.967 515.658,311.398 514.871,309.994 514.242,308.599 513.745,307.134 513.394,305.638 513.185,304.132 513.107,302.491 513.183,300.657 513.459,298.546 514.103,295.709 515.006,292.929 515.954,290.727 516.759,289.233 517.545,288.021 518.313,287.031 519.061,286.217 519.796,285.545 520.522,284.989 521.248,284.529 522,284.145 522.748,283.847 523.586,283.596 524.538,283.402 525.615,283.281 526.811,283.254 528.237,283.357 529.616,283.59 530.858,283.919 531.908,284.299 532.849,284.735 533.522,285.124 534.056,285.495 534.516,285.877 534.917,286.283 535.271,286.717 535.556,287.141 535.805,287.597 536.004,288.05 536.194,288.604 536.35,289.242 536.471,290.02 536.541,291.032 536.527,291.644 536.476,292.09 536.389,292.518 536.255,292.956 536.082,293.38 535.844,293.839 535.51,294.361 535.027,294.988 533.527,296.614 533.054,297.227 532.73,297.733 532.5,298.176 532.333,298.584 532.205,299.004 532.122,299.414 532.073,299.842 532.059,300.436 532.127,301.43 532.246,302.192 532.398,302.812 532.582,303.35 532.775,303.787 533.016,304.227 533.289,304.637 533.631,305.055 534.02,305.447 534.466,305.819 534.986,306.18 535.643,306.559 536.568,306.989 537.602,307.363 538.826,307.686 540.187,307.917 541.593,308.018 542.771,307.991 543.83,307.872 544.766,307.682 545.586,307.437 546.318,307.145 547.052,306.769 547.764,306.319 548.476,305.773 549.197,305.113 549.935,304.313 550.691,303.335 551.469,302.137 552.266,300.659 553.206,298.473 554.103,295.711 554.743,292.892 555.017,290.799 555.093,288.982 555.015,287.358 554.81,285.871 554.463,284.394 553.972,282.947 553.351,281.568 552.572,280.18 551.524,278.625 549.844,276.552 547.503,274.156 544.407,271.527 541.111,269.215 538.32,267.628 535.301,266.263 532,265.108 527.739,264.034 522.907,263.264 514.097,262.649 506.38,262.574 504.631,262.613 503.741,262.641 503.193,262.644 502.693,262.612 502.337,262.555 501.988,262.467 501.633,262.339 501.264,262.166 500.833,261.92 500.105,261.412 498.642,260.18 494.1,255.779"
     fill="none"
     stroke="#000000"
     stroke-width="0.1mm"
     id="polyline8-2"
     transform="rotate(90,535.67197,123.583)" />
  <polyline
     points="493.1,174.5 488.424,169.968 486.973,168.747 486.259,168.249 485.844,168.012 485.491,167.846 485.154,167.725 484.823,167.641 484.485,167.587 484.001,167.556 483.463,167.559 482.574,167.587 480.822,167.626 473.095,167.551 464.271,166.935 459.421,166.162 455.142,165.084 451.825,163.923 448.79,162.55 445.981,160.954 442.671,158.631 439.561,155.99 437.206,153.581 435.516,151.494 434.458,149.925 433.671,148.522 433.042,147.127 432.545,145.661 432.194,144.165 431.985,142.66 431.907,141.019 431.983,139.184 432.259,137.073 432.903,134.236 433.806,131.457 434.754,129.254 435.559,127.761 436.345,126.549 437.113,125.558 437.861,124.745 438.596,124.073 439.322,123.517 440.048,123.057 440.8,122.673 441.548,122.374 442.386,122.124 443.338,121.93 444.415,121.809 445.611,121.782 447.037,121.884 448.416,122.118 449.658,122.446 450.708,122.826 451.649,123.263 452.322,123.651 452.856,124.022 453.316,124.405 453.717,124.811 454.071,125.244 454.356,125.669 454.605,126.125 454.804,126.577 454.994,127.132 455.15,127.769 455.271,128.548 455.341,129.56 455.327,130.172 455.276,130.617 455.189,131.045 455.055,131.483 454.882,131.908 454.644,132.367 454.31,132.888 453.827,133.515 452.327,135.141 451.854,135.754 451.53,136.261 451.3,136.704 451.133,137.111 451.005,137.531 450.922,137.941 450.873,138.37 450.859,138.964 450.927,139.958 451.046,140.719 451.198,141.34 451.382,141.877 451.575,142.315 451.816,142.755 452.089,143.164 452.431,143.583 452.82,143.975 453.266,144.346 453.786,144.707 454.443,145.087 455.368,145.516 456.402,145.89 457.626,146.214 458.987,146.444 460.393,146.546 461.571,146.519 462.63,146.4 463.566,146.21 464.386,145.964 465.118,145.673 465.852,145.297 466.564,144.847 467.276,144.301 467.997,143.641 468.735,142.84 469.491,141.863 470.269,140.665 471.066,139.186 472.006,137.001 472.903,134.238 473.543,131.419 473.817,129.326 473.893,127.509 473.815,125.886 473.61,124.399 473.263,122.921 472.772,121.474 472.151,120.096 471.372,118.707 470.324,117.152 468.644,115.079 466.303,112.684 463.207,110.055 459.911,107.742 457.12,106.156 454.101,104.791 450.8,103.636 446.539,102.562 441.707,101.791 432.897,101.177 425.18,101.102 423.431,101.141 422.541,101.169 421.993,101.172 421.493,101.139 421.137,101.083 420.788,100.995 420.433,100.866 420.064,100.694 419.633,100.447 418.905,99.939 417.442,98.708 412.9,94.306 412.9,14.028 417.576,18.56 419.027,19.78 419.741,20.278 420.156,20.516 420.509,20.681 420.846,20.803 421.177,20.887 421.515,20.94 421.999,20.972 422.537,20.969 423.426,20.941 425.178,20.902 432.905,20.977 441.729,21.592 446.579,22.366 450.858,23.444 454.175,24.605 457.21,25.978 460.019,27.573 463.329,29.897 466.439,32.538 468.794,34.946 470.484,37.033 471.542,38.602 472.329,40.006 472.958,41.401 473.455,42.866 473.806,44.363 474.015,45.868 474.093,47.509 474.017,49.343 473.741,51.454 473.097,54.291 472.194,57.071 471.246,59.273 470.441,60.767 469.655,61.979 468.887,62.969 468.139,63.783 467.404,64.455 466.678,65.011 465.952,65.471 465.2,65.855 464.452,66.153 463.614,66.404 462.662,66.598 461.585,66.719 460.389,66.746 458.963,66.643 457.584,66.41 456.342,66.081 455.292,65.701 454.351,65.265 453.678,64.876 453.144,64.505 452.684,64.123 452.283,63.717 451.929,63.283 451.644,62.859 451.395,62.403 451.196,61.95 451.006,61.396 450.85,60.758 450.729,59.98 450.659,58.968 450.673,58.356 450.724,57.91 450.811,57.482 450.945,57.044 451.118,56.62 451.356,56.161 451.69,55.639 452.174,55.012 453.673,53.386 454.146,52.773 454.47,52.267 454.7,51.824 454.867,51.416 454.995,50.996 455.078,50.586 455.127,50.158 455.141,49.564 455.073,48.57 454.954,47.808 454.802,47.188 454.618,46.65 454.425,46.213 454.184,45.773 453.911,45.363 453.569,44.945 453.18,44.553 452.734,44.181 452.214,43.82 451.557,43.441 450.632,43.011 449.598,42.637 448.374,42.314 447.013,42.083 445.607,41.982 444.429,42.009 443.37,42.128 442.434,42.318 441.614,42.563 440.882,42.855 440.148,43.231 439.436,43.681 438.724,44.227 438.003,44.887 437.265,45.687 436.509,46.665 435.731,47.863 434.934,49.341 433.994,51.527 433.097,54.289 432.457,57.108 432.183,59.201 432.107,61.018 432.185,62.642 432.39,64.129 432.737,65.606 433.228,67.053 433.849,68.432 434.628,69.82 435.676,71.375 437.356,73.448 439.697,75.844 442.793,78.473 446.089,80.785 448.88,82.372 451.899,83.737 455.2,84.892 459.461,85.966 464.293,86.736 473.103,87.351 480.82,87.426 482.569,87.387 483.459,87.359 484.007,87.356 484.507,87.388 484.863,87.445 485.212,87.533 485.567,87.661 485.936,87.834 486.367,88.08 487.095,88.588 488.558,89.82 493.1,94.221 493.1,174.5"
     fill="none"
     stroke="#000000"
     stroke-width="0.1mm"
     id="polyline9-9"
     transform="rotate(90,535.67197,123.583)" />
  <path
     style="fill:none;stroke:#818181;stroke-width:0.264999;stroke-linecap:butt;stroke-linejoin:miter;stroke-dasharray:none;stroke-opacity:1;paint-order:fill markers stroke"
     d="m 11.57468,129.80177 c 0.89502,2.45684 1.722203,4.93839 2.480289,7.44087 0.847517,2.7977 1.615212,5.63876 2.89367,8.26763 1.780037,3.66025 4.613716,6.88801 8.267631,8.68102 3.807506,1.86837 8.179514,2.07626 12.401443,2.48029 7.298182,0.69842 14.626278,2.08277 21.909219,1.24014 0.833077,-0.0964 1.663786,-0.22198 2.480288,-0.41338 4.810616,-1.12765 8.828198,-4.46909 11.988061,-8.26763 3.648694,-4.38617 6.39501,-9.49241 8.267629,-14.88173 0.835065,-2.40328 1.498895,-4.86193 2.234715,-7.29743 1.296066,-4.28986 2.820732,-8.52074 4.792772,-12.54489 2.966031,-6.05249 7.084977,-11.74562 12.814823,-15.295108 3.67186,-2.274616 7.92708,-3.597257 12.2411,-3.810952 4.31401,-0.213695 8.67765,0.681397 12.56179,2.570808 4.14741,2.017479 7.79518,5.244472 9.80721,9.394532 1.00602,2.07503 1.59293,4.36065 1.63722,6.66626 0.0443,2.30562 -0.46052,4.62863 -1.52327,6.67519 -1.86721,3.59573 -5.50094,6.21877 -9.50168,6.85889 -4.00075,0.64012 -8.2715,-0.71821 -11.1674,-3.55184"
     id="path19-0"
     sodipodi:nodetypes="csssssssssssssc"
     transform="translate(-0.45018429,-81.62737)"
     inkscape:original-d="m 11.57468,129.80177 c -2.6180814,-0.82676 5.925135,8.26763 2.480289,7.44087 -3.444845,-0.82676 7.165279,5.51176 2.89367,8.26763 -4.271607,2.75588 10.334539,2.89368 8.267631,8.68102 -2.066907,5.78734 12.263649,-3.44485 12.401443,2.48029 0.137794,5.92513 15.84629,-1.79133 21.909219,1.24014 6.062927,3.03146 -8.543219,-0.27559 2.480288,-0.41338 11.023504,-0.1378 6.614103,-4.96058 11.988061,-8.26763 5.37396,-3.30705 7.854247,-10.61013 8.267629,-14.88173 0.174444,-1.80258 1.085026,-4.39038 2.234715,-7.29743 1.574745,-3.98182 3.598082,-8.56259 4.792772,-12.54489 2.066906,-6.88969 8.405421,-10.47233 12.814823,-15.295108 4.4094,-4.822785 16.25967,-1.102352 24.80289,-1.240144 8.54322,-0.137795 6.6141,18.188782 9.92116,22.735982 3.30705,4.54719 -18.87776,-1.24015 -20.66908,3.30705"
     inkscape:path-effect="#path-effect20-7" />
  <text
     xml:space="preserve"
     style="font-size:14.1111px;font-family:sans-serif;-inkscape-font-specification:sans-serif;text-align:start;writing-mode:lr-tb;direction:ltr;text-anchor:start;fill:#000000;stroke-width:0.264583"
     id="text16-5-4"
     inkscape:transform-center-x="3.8033404"
     inkscape:transform-center-y="4.741787"
     x="508.38391"
     y="0"><textPath
       xlink:href="#path19-0"
       startOffset="50%"
       id="textPath20-3"
       style="font-style:normal;font-variant:normal;font-weight:normal;font-stretch:normal;font-size:14.1111px;font-family:'Argos George';-inkscape-font-specification:'Argos George';text-align:center;text-anchor:middle;stroke-width:0.264583">Domenik von Dorf</textPath></text>
  <g
     id="use1005"
     inkscape:tile-x0="11"
     inkscape:tile-y0="13.609731"
     transform="translate(0,81.04652)">
    <text
       xml:space="preserve"
       style="font-size:14.1111px;font-family:sans-serif;-inkscape-font-specification:sans-serif;text-align:start;writing-mode:lr-tb;direction:ltr;text-anchor:start;fill:#000000;stroke-width:0.264583"
       id="text1039"
       inkscape:transform-center-x="3.8033404"
       inkscape:transform-center-y="4.741787"
       x="508.38391"
       y="0"><textPath
         xlink:href="#path19-0"
         startOffset="50%"
         id="textPath1039"
         style="font-style:normal;font-variant:normal;font-weight:normal;font-stretch:normal;font-size:14.1111px;font-family:'Argos George';-inkscape-font-specification:'Argos George';text-align:center;text-anchor:middle;stroke-width:0.264583">Leonora</textPath></text>
    <path
       style="fill:none;stroke:#818181;stroke-width:0.264999;stroke-linecap:butt;stroke-linejoin:miter;stroke-dasharray:none;stroke-opacity:1;paint-order:fill markers stroke"
       d="m 11.57468,129.80177 c 0.89502,2.45684 1.722203,4.93839 2.480289,7.44087 0.847517,2.7977 1.615212,5.63876 2.89367,8.26763 1.780037,3.66025 4.613716,6.88801 8.267631,8.68102 3.807506,1.86837 8.179514,2.07626 12.401443,2.48029 7.298182,0.69842 14.626278,2.08277 21.909219,1.24014 0.833077,-0.0964 1.663786,-0.22198 2.480288,-0.41338 4.810616,-1.12765 8.828198,-4.46909 11.988061,-8.26763 3.648694,-4.38617 6.39501,-9.49241 8.267629,-14.88173 0.835065,-2.40328 1.498895,-4.86193 2.234715,-7.29743 1.296066,-4.28986 2.820732,-8.52074 4.792772,-12.54489 2.966031,-6.05249 7.084977,-11.74562 12.814823,-15.295108 3.67186,-2.274616 7.92708,-3.597257 12.2411,-3.810952 4.31401,-0.213695 8.67765,0.681397 12.56179,2.570808 4.14741,2.017479 7.79518,5.244472 9.80721,9.394532 1.00602,2.07503 1.59293,4.36065 1.63722,6.66626 0.0443,2.30562 -0.46052,4.62863 -1.52327,6.67519 -1.86721,3.59573 -5.50094,6.21877 -9.50168,6.85889 -4.00075,0.64012 -8.2715,-0.71821 -11.1674,-3.55184"
       id="path1039"
       sodipodi:nodetypes="csssssssssssssc"
       transform="translate(-0.45018429,-81.62737)"
       inkscape:original-d="m 11.57468,129.80177 c -2.6180814,-0.82676 5.925135,8.26763 2.480289,7.44087 -3.444845,-0.82676 7.165279,5.51176 2.89367,8.26763 -4.271607,2.75588 10.334539,2.89368 8.267631,8.68102 -2.066907,5.78734 12.263649,-3.44485 12.401443,2.48029 0.137794,5.92513 15.84629,-1.79133 21.909219,1.24014 6.062927,3.03146 -8.543219,-0.27559 2.480288,-0.41338 11.023504,-0.1378 6.614103,-4.96058 11.988061,-8.26763 5.37396,-3.30705 7.854247,-10.61013 8.267629,-14.88173 0.174444,-1.80258 1.085026,-4.39038 2.234715,-7.29743 1.574745,-3.98182 3.598082,-8.56259 4.792772,-12.54489 2.066906,-6.88969 8.405421,-10.47233 12.814823,-15.295108 4.4094,-4.822785 16.25967,-1.102352 24.80289,-1.240144 8.54322,-0.137795 6.6141,18.188782 9.92116,22.735982 3.30705,4.54719 -18.87776,-1.24015 -20.66908,3.30705"
       inkscape:path-effect="#path-effect1041" />
  </g>
  <g
     id="use1009"
     inkscape:tile-x0="11"
     inkscape:tile-y0="13.609731"
     transform="translate(78.552164,-0.52916667)">
    <text
       xml:space="preserve"
       style="font-size:14.1111px;font-family:sans-serif;-inkscape-font-specification:sans-serif;text-align:start;writing-mode:lr-tb;direction:ltr;text-anchor:start;fill:#000000;stroke-width:0.264583"
       id="text1047"
       inkscape:transform-center-x="3.8033404"
       inkscape:transform-center-y="4.741787"
       x="508.38391"
       y="0"><textPath
         xlink:href="#path19-0"
         startOffset="50%"
         id="textPath1047"
         style="font-style:normal;font-variant:normal;font-weight:normal;font-stretch:normal;font-size:14.1111px;font-family:'Argos George';-inkscape-font-specification:'Argos George';text-align:center;text-anchor:middle;stroke-width:0.264583">Poppy</textPath></text>
    <path
       style="fill:none;stroke:#818181;stroke-width:0.264999;stroke-linecap:butt;stroke-linejoin:miter;stroke-dasharray:none;stroke-opacity:1;paint-order:fill markers stroke"
       d="m 11.57468,129.80177 c 0.89502,2.45684 1.722203,4.93839 2.480289,7.44087 0.847517,2.7977 1.615212,5.63876 2.89367,8.26763 1.780037,3.66025 4.613716,6.88801 8.267631,8.68102 3.807506,1.86837 8.179514,2.07626 12.401443,2.48029 7.298182,0.69842 14.626278,2.08277 21.909219,1.24014 0.833077,-0.0964 1.663786,-0.22198 2.480288,-0.41338 4.810616,-1.12765 8.828198,-4.46909 11.988061,-8.26763 3.648694,-4.38617 6.39501,-9.49241 8.267629,-14.88173 0.835065,-2.40328 1.498895,-4.86193 2.234715,-7.29743 1.296066,-4.28986 2.820732,-8.52074 4.792772,-12.54489 2.966031,-6.05249 7.084977,-11.74562 12.814823,-15.295108 3.67186,-2.274616 7.92708,-3.597257 12.2411,-3.810952 4.31401,-0.213695 8.67765,0.681397 12.56179,2.570808 4.14741,2.017479 7.79518,5.244472 9.80721,9.394532 1.00602,2.07503 1.59293,4.36065 1.63722,6.66626 0.0443,2.30562 -0.46052,4.62863 -1.52327,6.67519 -1.86721,3.59573 -5.50094,6.21877 -9.50168,6.85889 -4.00075,0.64012 -8.2715,-0.71821 -11.1674,-3.55184"
       id="path1047"
       sodipodi:nodetypes="csssssssssssssc"
       transform="translate(-0.45018429,-81.62737)"
       inkscape:original-d="m 11.57468,129.80177 c -2.6180814,-0.82676 5.925135,8.26763 2.480289,7.44087 -3.444845,-0.82676 7.165279,5.51176 2.89367,8.26763 -4.271607,2.75588 10.334539,2.89368 8.267631,8.68102 -2.066907,5.78734 12.263649,-3.44485 12.401443,2.48029 0.137794,5.92513 15.84629,-1.79133 21.909219,1.24014 6.062927,3.03146 -8.543219,-0.27559 2.480288,-0.41338 11.023504,-0.1378 6.614103,-4.96058 11.988061,-8.26763 5.37396,-3.30705 7.854247,-10.61013 8.267629,-14.88173 0.174444,-1.80258 1.085026,-4.39038 2.234715,-7.29743 1.574745,-3.98182 3.598082,-8.56259 4.792772,-12.54489 2.066906,-6.88969 8.405421,-10.47233 12.814823,-15.295108 4.4094,-4.822785 16.25967,-1.102352 24.80289,-1.240144 8.54322,-0.137795 6.6141,18.188782 9.92116,22.735982 3.30705,4.54719 -18.87776,-1.24015 -20.66908,3.30705"
       inkscape:path-effect="#path-effect1049" />
  </g>
  <g
     id="use1010"
     inkscape:tile-x0="11"
     inkscape:tile-y0="13.609731"
     transform="translate(80.668832,81.04652)">
    <text
       xml:space="preserve"
       style="font-size:14.1111px;font-family:sans-serif;-inkscape-font-specification:sans-serif;text-align:start;writing-mode:lr-tb;direction:ltr;text-anchor:start;fill:#000000;stroke-width:0.264583"
       id="text1049"
       inkscape:transform-center-x="3.8033404"
       inkscape:transform-center-y="4.741787"
       x="508.38391"
       y="0"><textPath
         xlink:href="#path19-0"
         startOffset="50%"
         id="textPath1049"
         style="font-style:normal;font-variant:normal;font-weight:normal;font-stretch:normal;font-size:14.1111px;font-family:'Argos George';-inkscape-font-specification:'Argos George';text-align:center;text-anchor:middle;stroke-width:0.264583">Pentacilia Vackernackel</textPath></text>
    <path
       style="fill:none;stroke:#818181;stroke-width:0.264999;stroke-linecap:butt;stroke-linejoin:miter;stroke-dasharray:none;stroke-opacity:1;paint-order:fill markers stroke"
       d="m 11.57468,129.80177 c 0.89502,2.45684 1.722203,4.93839 2.480289,7.44087 0.847517,2.7977 1.615212,5.63876 2.89367,8.26763 1.780037,3.66025 4.613716,6.88801 8.267631,8.68102 3.807506,1.86837 8.179514,2.07626 12.401443,2.48029 7.298182,0.69842 14.626278,2.08277 21.909219,1.24014 0.833077,-0.0964 1.663786,-0.22198 2.480288,-0.41338 4.810616,-1.12765 8.828198,-4.46909 11.988061,-8.26763 3.648694,-4.38617 6.39501,-9.49241 8.267629,-14.88173 0.835065,-2.40328 1.498895,-4.86193 2.234715,-7.29743 1.296066,-4.28986 2.820732,-8.52074 4.792772,-12.54489 2.966031,-6.05249 7.084977,-11.74562 12.814823,-15.295108 3.67186,-2.274616 7.92708,-3.597257 12.2411,-3.810952 4.31401,-0.213695 8.67765,0.681397 12.56179,2.570808 4.14741,2.017479 7.79518,5.244472 9.80721,9.394532 1.00602,2.07503 1.59293,4.36065 1.63722,6.66626 0.0443,2.30562 -0.46052,4.62863 -1.52327,6.67519 -1.86721,3.59573 -5.50094,6.21877 -9.50168,6.85889 -4.00075,0.64012 -8.2715,-0.71821 -11.1674,-3.55184"
       id="path1049"
       sodipodi:nodetypes="csssssssssssssc"
       transform="translate(-0.45018429,-81.62737)"
       inkscape:original-d="m 11.57468,129.80177 c -2.6180814,-0.82676 5.925135,8.26763 2.480289,7.44087 -3.444845,-0.82676 7.165279,5.51176 2.89367,8.26763 -4.271607,2.75588 10.334539,2.89368 8.267631,8.68102 -2.066907,5.78734 12.263649,-3.44485 12.401443,2.48029 0.137794,5.92513 15.84629,-1.79133 21.909219,1.24014 6.062927,3.03146 -8.543219,-0.27559 2.480288,-0.41338 11.023504,-0.1378 6.614103,-4.96058 11.988061,-8.26763 5.37396,-3.30705 7.854247,-10.61013 8.267629,-14.88173 0.174444,-1.80258 1.085026,-4.39038 2.234715,-7.29743 1.574745,-3.98182 3.598082,-8.56259 4.792772,-12.54489 2.066906,-6.88969 8.405421,-10.47233 12.814823,-15.295108 4.4094,-4.822785 16.25967,-1.102352 24.80289,-1.240144 8.54322,-0.137795 6.6141,18.188782 9.92116,22.735982 3.30705,4.54719 -18.87776,-1.24015 -20.66908,3.30705"
       inkscape:path-effect="#path-effect1051" />
  </g>
  <g
     id="use1014"
     inkscape:tile-x0="11"
     inkscape:tile-y0="13.609731"
     transform="translate(161.33766)">
    <text
       xml:space="preserve"
       style="font-size:14.1111px;font-family:sans-serif;-inkscape-font-specification:sans-serif;text-align:start;writing-mode:lr-tb;direction:ltr;text-anchor:start;fill:#000000;stroke-width:0.264583"
       id="text1057"
       inkscape:transform-center-x="3.8033404"
       inkscape:transform-center-y="4.741787"
       x="508.38391"
       y="0"><textPath
         xlink:href="#path19-0"
         startOffset="50%"
         id="textPath1057"
         style="font-style:normal;font-variant:normal;font-weight:normal;font-stretch:normal;font-size:14.1111px;font-family:'Argos George';-inkscape-font-specification:'Argos George';text-align:center;text-anchor:middle;stroke-width:0.264583">Kaptajn Hbel</textPath></text>
    <path
       style="fill:none;stroke:#818181;stroke-width:0.264999;stroke-linecap:butt;stroke-linejoin:miter;stroke-dasharray:none;stroke-opacity:1;paint-order:fill markers stroke"
       d="m 11.57468,129.80177 c 0.89502,2.45684 1.722203,4.93839 2.480289,7.44087 0.847517,2.7977 1.615212,5.63876 2.89367,8.26763 1.780037,3.66025 4.613716,6.88801 8.267631,8.68102 3.807506,1.86837 8.179514,2.07626 12.401443,2.48029 7.298182,0.69842 14.626278,2.08277 21.909219,1.24014 0.833077,-0.0964 1.663786,-0.22198 2.480288,-0.41338 4.810616,-1.12765 8.828198,-4.46909 11.988061,-8.26763 3.648694,-4.38617 6.39501,-9.49241 8.267629,-14.88173 0.835065,-2.40328 1.498895,-4.86193 2.234715,-7.29743 1.296066,-4.28986 2.820732,-8.52074 4.792772,-12.54489 2.966031,-6.05249 7.084977,-11.74562 12.814823,-15.295108 3.67186,-2.274616 7.92708,-3.597257 12.2411,-3.810952 4.31401,-0.213695 8.67765,0.681397 12.56179,2.570808 4.14741,2.017479 7.79518,5.244472 9.80721,9.394532 1.00602,2.07503 1.59293,4.36065 1.63722,6.66626 0.0443,2.30562 -0.46052,4.62863 -1.52327,6.67519 -1.86721,3.59573 -5.50094,6.21877 -9.50168,6.85889 -4.00075,0.64012 -8.2715,-0.71821 -11.1674,-3.55184"
       id="path1057"
       sodipodi:nodetypes="csssssssssssssc"
       transform="translate(-0.45018429,-81.62737)"
       inkscape:original-d="m 11.57468,129.80177 c -2.6180814,-0.82676 5.925135,8.26763 2.480289,7.44087 -3.444845,-0.82676 7.165279,5.51176 2.89367,8.26763 -4.271607,2.75588 10.334539,2.89368 8.267631,8.68102 -2.066907,5.78734 12.263649,-3.44485 12.401443,2.48029 0.137794,5.92513 15.84629,-1.79133 21.909219,1.24014 6.062927,3.03146 -8.543219,-0.27559 2.480288,-0.41338 11.023504,-0.1378 6.614103,-4.96058 11.988061,-8.26763 5.37396,-3.30705 7.854247,-10.61013 8.267629,-14.88173 0.174444,-1.80258 1.085026,-4.39038 2.234715,-7.29743 1.574745,-3.98182 3.598082,-8.56259 4.792772,-12.54489 2.066906,-6.88969 8.405421,-10.47233 12.814823,-15.295108 4.4094,-4.822785 16.25967,-1.102352 24.80289,-1.240144 8.54322,-0.137795 6.6141,18.188782 9.92116,22.735982 3.30705,4.54719 -18.87776,-1.24015 -20.66908,3.30705"
       inkscape:path-effect="#path-effect1059" />
  </g>
  <g
     id="use1015"
     inkscape:tile-x0="11"
     inkscape:tile-y0="13.609731"
     transform="translate(161.33766,81.04652)">
    <text
       xml:space="preserve"
       style="font-size:14.1111px;font-family:sans-serif;-inkscape-font-specification:sans-serif;text-align:start;writing-mode:lr-tb;direction:ltr;text-anchor:start;fill:#000000;stroke-width:0.264583"
       id="text1059"
       inkscape:transform-center-x="3.8033404"
       inkscape:transform-center-y="4.741787"
       x="508.38391"
       y="0"><textPath
         xlink:href="#path19-0"
         startOffset="50%"
         id="textPath1059"
         style="font-style:normal;font-variant:normal;font-weight:normal;font-stretch:normal;font-size:14.1111px;font-family:'Argos George';-inkscape-font-specification:'Argos George';text-align:center;text-anchor:middle;stroke-width:0.264583">Hilda Sagner</textPath></text>
    <path
       style="fill:none;stroke:#818181;stroke-width:0.264999;stroke-linecap:butt;stroke-linejoin:miter;stroke-dasharray:none;stroke-opacity:1;paint-order:fill markers stroke"
       d="m 11.57468,129.80177 c 0.89502,2.45684 1.722203,4.93839 2.480289,7.44087 0.847517,2.7977 1.615212,5.63876 2.89367,8.26763 1.780037,3.66025 4.613716,6.88801 8.267631,8.68102 3.807506,1.86837 8.179514,2.07626 12.401443,2.48029 7.298182,0.69842 14.626278,2.08277 21.909219,1.24014 0.833077,-0.0964 1.663786,-0.22198 2.480288,-0.41338 4.810616,-1.12765 8.828198,-4.46909 11.988061,-8.26763 3.648694,-4.38617 6.39501,-9.49241 8.267629,-14.88173 0.835065,-2.40328 1.498895,-4.86193 2.234715,-7.29743 1.296066,-4.28986 2.820732,-8.52074 4.792772,-12.54489 2.966031,-6.05249 7.084977,-11.74562 12.814823,-15.295108 3.67186,-2.274616 7.92708,-3.597257 12.2411,-3.810952 4.31401,-0.213695 8.67765,0.681397 12.56179,2.570808 4.14741,2.017479 7.79518,5.244472 9.80721,9.394532 1.00602,2.07503 1.59293,4.36065 1.63722,6.66626 0.0443,2.30562 -0.46052,4.62863 -1.52327,6.67519 -1.86721,3.59573 -5.50094,6.21877 -9.50168,6.85889 -4.00075,0.64012 -8.2715,-0.71821 -11.1674,-3.55184"
       id="path1059"
       sodipodi:nodetypes="csssssssssssssc"
       transform="translate(-0.45018429,-81.62737)"
       inkscape:original-d="m 11.57468,129.80177 c -2.6180814,-0.82676 5.925135,8.26763 2.480289,7.44087 -3.444845,-0.82676 7.165279,5.51176 2.89367,8.26763 -4.271607,2.75588 10.334539,2.89368 8.267631,8.68102 -2.066907,5.78734 12.263649,-3.44485 12.401443,2.48029 0.137794,5.92513 15.84629,-1.79133 21.909219,1.24014 6.062927,3.03146 -8.543219,-0.27559 2.480288,-0.41338 11.023504,-0.1378 6.614103,-4.96058 11.988061,-8.26763 5.37396,-3.30705 7.854247,-10.61013 8.267629,-14.88173 0.174444,-1.80258 1.085026,-4.39038 2.234715,-7.29743 1.574745,-3.98182 3.598082,-8.56259 4.792772,-12.54489 2.066906,-6.88969 8.405421,-10.47233 12.814823,-15.295108 4.4094,-4.822785 16.25967,-1.102352 24.80289,-1.240144 8.54322,-0.137795 6.6141,18.188782 9.92116,22.735982 3.30705,4.54719 -18.87776,-1.24015 -20.66908,3.30705"
       inkscape:path-effect="#path-effect1061" />
  </g>
  <g
     id="use1019"
     inkscape:tile-x0="11"
     inkscape:tile-y0="13.609731"
     transform="translate(242.00649)">
    <text
       xml:space="preserve"
       style="font-size:14.1111px;font-family:sans-serif;-inkscape-font-specification:sans-serif;text-align:start;writing-mode:lr-tb;direction:ltr;text-anchor:start;fill:#000000;stroke-width:0.264583"
       id="text1067"
       inkscape:transform-center-x="3.8033404"
       inkscape:transform-center-y="4.741787"
       x="508.38391"
       y="0"><textPath
         xlink:href="#path19-0"
         startOffset="50%"
         id="textPath1067"
         style="font-style:normal;font-variant:normal;font-weight:normal;font-stretch:normal;font-size:14.1111px;font-family:'Argos George';-inkscape-font-specification:'Argos George';text-align:center;text-anchor:middle;stroke-width:0.264583">Berta</textPath></text>
    <path
       style="fill:none;stroke:#818181;stroke-width:0.264999;stroke-linecap:butt;stroke-linejoin:miter;stroke-dasharray:none;stroke-opacity:1;paint-order:fill markers stroke"
       d="m 11.57468,129.80177 c 0.89502,2.45684 1.722203,4.93839 2.480289,7.44087 0.847517,2.7977 1.615212,5.63876 2.89367,8.26763 1.780037,3.66025 4.613716,6.88801 8.267631,8.68102 3.807506,1.86837 8.179514,2.07626 12.401443,2.48029 7.298182,0.69842 14.626278,2.08277 21.909219,1.24014 0.833077,-0.0964 1.663786,-0.22198 2.480288,-0.41338 4.810616,-1.12765 8.828198,-4.46909 11.988061,-8.26763 3.648694,-4.38617 6.39501,-9.49241 8.267629,-14.88173 0.835065,-2.40328 1.498895,-4.86193 2.234715,-7.29743 1.296066,-4.28986 2.820732,-8.52074 4.792772,-12.54489 2.966031,-6.05249 7.084977,-11.74562 12.814823,-15.295108 3.67186,-2.274616 7.92708,-3.597257 12.2411,-3.810952 4.31401,-0.213695 8.67765,0.681397 12.56179,2.570808 4.14741,2.017479 7.79518,5.244472 9.80721,9.394532 1.00602,2.07503 1.59293,4.36065 1.63722,6.66626 0.0443,2.30562 -0.46052,4.62863 -1.52327,6.67519 -1.86721,3.59573 -5.50094,6.21877 -9.50168,6.85889 -4.00075,0.64012 -8.2715,-0.71821 -11.1674,-3.55184"
       id="path1067"
       sodipodi:nodetypes="csssssssssssssc"
       transform="translate(-0.45018429,-81.62737)"
       inkscape:original-d="m 11.57468,129.80177 c -2.6180814,-0.82676 5.925135,8.26763 2.480289,7.44087 -3.444845,-0.82676 7.165279,5.51176 2.89367,8.26763 -4.271607,2.75588 10.334539,2.89368 8.267631,8.68102 -2.066907,5.78734 12.263649,-3.44485 12.401443,2.48029 0.137794,5.92513 15.84629,-1.79133 21.909219,1.24014 6.062927,3.03146 -8.543219,-0.27559 2.480288,-0.41338 11.023504,-0.1378 6.614103,-4.96058 11.988061,-8.26763 5.37396,-3.30705 7.854247,-10.61013 8.267629,-14.88173 0.174444,-1.80258 1.085026,-4.39038 2.234715,-7.29743 1.574745,-3.98182 3.598082,-8.56259 4.792772,-12.54489 2.066906,-6.88969 8.405421,-10.47233 12.814823,-15.295108 4.4094,-4.822785 16.25967,-1.102352 24.80289,-1.240144 8.54322,-0.137795 6.6141,18.188782 9.92116,22.735982 3.30705,4.54719 -18.87776,-1.24015 -20.66908,3.30705"
       inkscape:path-effect="#path-effect1069" />
  </g>
  <g
     id="use1020"
     inkscape:tile-x0="11"
     inkscape:tile-y0="13.609731"
     transform="translate(242.00649,81.04652)">
    <text
       xml:space="preserve"
       style="font-size:14.1111px;font-family:sans-serif;-inkscape-font-specification:sans-serif;text-align:start;writing-mode:lr-tb;direction:ltr;text-anchor:start;fill:#000000;stroke-width:0.264583"
       id="text1069"
       inkscape:transform-center-x="3.8033404"
       inkscape:transform-center-y="4.741787"
       x="508.38391"
       y="0"><textPath
         xlink:href="#path19-0"
         startOffset="50%"
         id="textPath1069"
         style="font-style:normal;font-variant:normal;font-weight:normal;font-stretch:normal;font-size:14.1111px;font-family:'Argos George';-inkscape-font-specification:'Argos George';text-align:center;text-anchor:middle;stroke-width:0.264583">Hbel</textPath></text>
    <path
       style="fill:none;stroke:#818181;stroke-width:0.264999;stroke-linecap:butt;stroke-linejoin:miter;stroke-dasharray:none;stroke-opacity:1;paint-order:fill markers stroke"
       d="m 11.57468,129.80177 c 0.89502,2.45684 1.722203,4.93839 2.480289,7.44087 0.847517,2.7977 1.615212,5.63876 2.89367,8.26763 1.780037,3.66025 4.613716,6.88801 8.267631,8.68102 3.807506,1.86837 8.179514,2.07626 12.401443,2.48029 7.298182,0.69842 14.626278,2.08277 21.909219,1.24014 0.833077,-0.0964 1.663786,-0.22198 2.480288,-0.41338 4.810616,-1.12765 8.828198,-4.46909 11.988061,-8.26763 3.648694,-4.38617 6.39501,-9.49241 8.267629,-14.88173 0.835065,-2.40328 1.498895,-4.86193 2.234715,-7.29743 1.296066,-4.28986 2.820732,-8.52074 4.792772,-12.54489 2.966031,-6.05249 7.084977,-11.74562 12.814823,-15.295108 3.67186,-2.274616 7.92708,-3.597257 12.2411,-3.810952 4.31401,-0.213695 8.67765,0.681397 12.56179,2.570808 4.14741,2.017479 7.79518,5.244472 9.80721,9.394532 1.00602,2.07503 1.59293,4.36065 1.63722,6.66626 0.0443,2.30562 -0.46052,4.62863 -1.52327,6.67519 -1.86721,3.59573 -5.50094,6.21877 -9.50168,6.85889 -4.00075,0.64012 -8.2715,-0.71821 -11.1674,-3.55184"
       id="path1069"
       sodipodi:nodetypes="csssssssssssssc"
       transform="translate(-0.45018429,-81.62737)"
       inkscape:original-d="m 11.57468,129.80177 c -2.6180814,-0.82676 5.925135,8.26763 2.480289,7.44087 -3.444845,-0.82676 7.165279,5.51176 2.89367,8.26763 -4.271607,2.75588 10.334539,2.89368 8.267631,8.68102 -2.066907,5.78734 12.263649,-3.44485 12.401443,2.48029 0.137794,5.92513 15.84629,-1.79133 21.909219,1.24014 6.062927,3.03146 -8.543219,-0.27559 2.480288,-0.41338 11.023504,-0.1378 6.614103,-4.96058 11.988061,-8.26763 5.37396,-3.30705 7.854247,-10.61013 8.267629,-14.88173 0.174444,-1.80258 1.085026,-4.39038 2.234715,-7.29743 1.574745,-3.98182 3.598082,-8.56259 4.792772,-12.54489 2.066906,-6.88969 8.405421,-10.47233 12.814823,-15.295108 4.4094,-4.822785 16.25967,-1.102352 24.80289,-1.240144 8.54322,-0.137795 6.6141,18.188782 9.92116,22.735982 3.30705,4.54719 -18.87776,-1.24015 -20.66908,3.30705"
       inkscape:path-effect="#path-effect1071" />
  </g>
  <g
     id="use1024"
     inkscape:tile-x0="11"
     inkscape:tile-y0="13.609731"
     transform="translate(322.67533)">
    <text
       xml:space="preserve"
       style="font-size:14.1111px;font-family:sans-serif;-inkscape-font-specification:sans-serif;text-align:start;writing-mode:lr-tb;direction:ltr;text-anchor:start;fill:#000000;stroke-width:0.264583"
       id="text1077"
       inkscape:transform-center-x="3.8033404"
       inkscape:transform-center-y="4.741787"
       x="508.38391"
       y="0"><textPath
         xlink:href="#path19-0"
         startOffset="50%"
         id="textPath1077"
         style="font-style:normal;font-variant:normal;font-weight:normal;font-stretch:normal;font-size:14.1111px;font-family:'Argos George';-inkscape-font-specification:'Argos George';text-align:center;text-anchor:middle;stroke-width:0.264583">Ljtnant</textPath></text>
    <path
       style="fill:none;stroke:#818181;stroke-width:0.264999;stroke-linecap:butt;stroke-linejoin:miter;stroke-dasharray:none;stroke-opacity:1;paint-order:fill markers stroke"
       d="m 11.57468,129.80177 c 0.89502,2.45684 1.722203,4.93839 2.480289,7.44087 0.847517,2.7977 1.615212,5.63876 2.89367,8.26763 1.780037,3.66025 4.613716,6.88801 8.267631,8.68102 3.807506,1.86837 8.179514,2.07626 12.401443,2.48029 7.298182,0.69842 14.626278,2.08277 21.909219,1.24014 0.833077,-0.0964 1.663786,-0.22198 2.480288,-0.41338 4.810616,-1.12765 8.828198,-4.46909 11.988061,-8.26763 3.648694,-4.38617 6.39501,-9.49241 8.267629,-14.88173 0.835065,-2.40328 1.498895,-4.86193 2.234715,-7.29743 1.296066,-4.28986 2.820732,-8.52074 4.792772,-12.54489 2.966031,-6.05249 7.084977,-11.74562 12.814823,-15.295108 3.67186,-2.274616 7.92708,-3.597257 12.2411,-3.810952 4.31401,-0.213695 8.67765,0.681397 12.56179,2.570808 4.14741,2.017479 7.79518,5.244472 9.80721,9.394532 1.00602,2.07503 1.59293,4.36065 1.63722,6.66626 0.0443,2.30562 -0.46052,4.62863 -1.52327,6.67519 -1.86721,3.59573 -5.50094,6.21877 -9.50168,6.85889 -4.00075,0.64012 -8.2715,-0.71821 -11.1674,-3.55184"
       id="path1077"
       sodipodi:nodetypes="csssssssssssssc"
       transform="translate(-0.45018429,-81.62737)"
       inkscape:original-d="m 11.57468,129.80177 c -2.6180814,-0.82676 5.925135,8.26763 2.480289,7.44087 -3.444845,-0.82676 7.165279,5.51176 2.89367,8.26763 -4.271607,2.75588 10.334539,2.89368 8.267631,8.68102 -2.066907,5.78734 12.263649,-3.44485 12.401443,2.48029 0.137794,5.92513 15.84629,-1.79133 21.909219,1.24014 6.062927,3.03146 -8.543219,-0.27559 2.480288,-0.41338 11.023504,-0.1378 6.614103,-4.96058 11.988061,-8.26763 5.37396,-3.30705 7.854247,-10.61013 8.267629,-14.88173 0.174444,-1.80258 1.085026,-4.39038 2.234715,-7.29743 1.574745,-3.98182 3.598082,-8.56259 4.792772,-12.54489 2.066906,-6.88969 8.405421,-10.47233 12.814823,-15.295108 4.4094,-4.822785 16.25967,-1.102352 24.80289,-1.240144 8.54322,-0.137795 6.6141,18.188782 9.92116,22.735982 3.30705,4.54719 -18.87776,-1.24015 -20.66908,3.30705"
       inkscape:path-effect="#path-effect1079" />
  </g>
  <g
     id="use1025"
     inkscape:tile-x0="11"
     inkscape:tile-y0="13.609731"
     transform="translate(322.67533,81.04652)">
    <text
       xml:space="preserve"
       style="font-size:14.1111px;font-family:sans-serif;-inkscape-font-specification:sans-serif;text-align:start;writing-mode:lr-tb;direction:ltr;text-anchor:start;fill:#000000;stroke-width:0.264583"
       id="text1079"
       inkscape:transform-center-x="3.8033404"
       inkscape:transform-center-y="4.741787"
       x="508.38391"
       y="0"><textPath
         xlink:href="#path19-0"
         startOffset="50%"
         id="textPath1079"
         style="font-style:normal;font-variant:normal;font-weight:normal;font-stretch:normal;font-size:14.1111px;font-family:'Argos George';-inkscape-font-specification:'Argos George';text-align:center;text-anchor:middle;stroke-width:0.264583">Yvonne Heurchu</textPath></text>
    <path
       style="fill:none;stroke:#818181;stroke-width:0.264999;stroke-linecap:butt;stroke-linejoin:miter;stroke-dasharray:none;stroke-opacity:1;paint-order:fill markers stroke"
       d="m 11.57468,129.80177 c 0.89502,2.45684 1.722203,4.93839 2.480289,7.44087 0.847517,2.7977 1.615212,5.63876 2.89367,8.26763 1.780037,3.66025 4.613716,6.88801 8.267631,8.68102 3.807506,1.86837 8.179514,2.07626 12.401443,2.48029 7.298182,0.69842 14.626278,2.08277 21.909219,1.24014 0.833077,-0.0964 1.663786,-0.22198 2.480288,-0.41338 4.810616,-1.12765 8.828198,-4.46909 11.988061,-8.26763 3.648694,-4.38617 6.39501,-9.49241 8.267629,-14.88173 0.835065,-2.40328 1.498895,-4.86193 2.234715,-7.29743 1.296066,-4.28986 2.820732,-8.52074 4.792772,-12.54489 2.966031,-6.05249 7.084977,-11.74562 12.814823,-15.295108 3.67186,-2.274616 7.92708,-3.597257 12.2411,-3.810952 4.31401,-0.213695 8.67765,0.681397 12.56179,2.570808 4.14741,2.017479 7.79518,5.244472 9.80721,9.394532 1.00602,2.07503 1.59293,4.36065 1.63722,6.66626 0.0443,2.30562 -0.46052,4.62863 -1.52327,6.67519 -1.86721,3.59573 -5.50094,6.21877 -9.50168,6.85889 -4.00075,0.64012 -8.2715,-0.71821 -11.1674,-3.55184"
       id="path1079"
       sodipodi:nodetypes="csssssssssssssc"
       transform="translate(-0.45018429,-81.62737)"
       inkscape:original-d="m 11.57468,129.80177 c -2.6180814,-0.82676 5.925135,8.26763 2.480289,7.44087 -3.444845,-0.82676 7.165279,5.51176 2.89367,8.26763 -4.271607,2.75588 10.334539,2.89368 8.267631,8.68102 -2.066907,5.78734 12.263649,-3.44485 12.401443,2.48029 0.137794,5.92513 15.84629,-1.79133 21.909219,1.24014 6.062927,3.03146 -8.543219,-0.27559 2.480288,-0.41338 11.023504,-0.1378 6.614103,-4.96058 11.988061,-8.26763 5.37396,-3.30705 7.854247,-10.61013 8.267629,-14.88173 0.174444,-1.80258 1.085026,-4.39038 2.234715,-7.29743 1.574745,-3.98182 3.598082,-8.56259 4.792772,-12.54489 2.066906,-6.88969 8.405421,-10.47233 12.814823,-15.295108 4.4094,-4.822785 16.25967,-1.102352 24.80289,-1.240144 8.54322,-0.137795 6.6141,18.188782 9.92116,22.735982 3.30705,4.54719 -18.87776,-1.24015 -20.66908,3.30705"
       inkscape:path-effect="#path-effect1081" />
  </g>
  <g
     id="use1029"
     inkscape:tile-x0="11"
     inkscape:tile-y0="13.609731"
     transform="translate(403.34416)">
    <text
       xml:space="preserve"
       style="font-size:14.1111px;font-family:sans-serif;-inkscape-font-specification:sans-serif;text-align:start;writing-mode:lr-tb;direction:ltr;text-anchor:start;fill:#000000;stroke-width:0.264583"
       id="text1087"
       inkscape:transform-center-x="3.8033404"
       inkscape:transform-center-y="4.741787"
       x="508.38391"
       y="0"><textPath
         xlink:href="#path19-0"
         startOffset="50%"
         id="textPath1087"
         style="font-style:normal;font-variant:normal;font-weight:normal;font-stretch:normal;font-size:14.1111px;font-family:'Argos George';-inkscape-font-specification:'Argos George';text-align:center;text-anchor:middle;stroke-width:0.264583">Nelle</textPath></text>
    <path
       style="fill:none;stroke:#818181;stroke-width:0.264999;stroke-linecap:butt;stroke-linejoin:miter;stroke-dasharray:none;stroke-opacity:1;paint-order:fill markers stroke"
       d="m 11.57468,129.80177 c 0.89502,2.45684 1.722203,4.93839 2.480289,7.44087 0.847517,2.7977 1.615212,5.63876 2.89367,8.26763 1.780037,3.66025 4.613716,6.88801 8.267631,8.68102 3.807506,1.86837 8.179514,2.07626 12.401443,2.48029 7.298182,0.69842 14.626278,2.08277 21.909219,1.24014 0.833077,-0.0964 1.663786,-0.22198 2.480288,-0.41338 4.810616,-1.12765 8.828198,-4.46909 11.988061,-8.26763 3.648694,-4.38617 6.39501,-9.49241 8.267629,-14.88173 0.835065,-2.40328 1.498895,-4.86193 2.234715,-7.29743 1.296066,-4.28986 2.820732,-8.52074 4.792772,-12.54489 2.966031,-6.05249 7.084977,-11.74562 12.814823,-15.295108 3.67186,-2.274616 7.92708,-3.597257 12.2411,-3.810952 4.31401,-0.213695 8.67765,0.681397 12.56179,2.570808 4.14741,2.017479 7.79518,5.244472 9.80721,9.394532 1.00602,2.07503 1.59293,4.36065 1.63722,6.66626 0.0443,2.30562 -0.46052,4.62863 -1.52327,6.67519 -1.86721,3.59573 -5.50094,6.21877 -9.50168,6.85889 -4.00075,0.64012 -8.2715,-0.71821 -11.1674,-3.55184"
       id="path1087"
       sodipodi:nodetypes="csssssssssssssc"
       transform="translate(-0.45018429,-81.62737)"
       inkscape:original-d="m 11.57468,129.80177 c -2.6180814,-0.82676 5.925135,8.26763 2.480289,7.44087 -3.444845,-0.82676 7.165279,5.51176 2.89367,8.26763 -4.271607,2.75588 10.334539,2.89368 8.267631,8.68102 -2.066907,5.78734 12.263649,-3.44485 12.401443,2.48029 0.137794,5.92513 15.84629,-1.79133 21.909219,1.24014 6.062927,3.03146 -8.543219,-0.27559 2.480288,-0.41338 11.023504,-0.1378 6.614103,-4.96058 11.988061,-8.26763 5.37396,-3.30705 7.854247,-10.61013 8.267629,-14.88173 0.174444,-1.80258 1.085026,-4.39038 2.234715,-7.29743 1.574745,-3.98182 3.598082,-8.56259 4.792772,-12.54489 2.066906,-6.88969 8.405421,-10.47233 12.814823,-15.295108 4.4094,-4.822785 16.25967,-1.102352 24.80289,-1.240144 8.54322,-0.137795 6.6141,18.188782 9.92116,22.735982 3.30705,4.54719 -18.87776,-1.24015 -20.66908,3.30705"
       inkscape:path-effect="#path-effect1089" />
  </g>
  <g
     id="use1030"
     inkscape:tile-x0="11"
     inkscape:tile-y0="13.609731"
     transform="translate(403.34416,81.04652)">
    <text
       xml:space="preserve"
       style="font-size:14.1111px;font-family:sans-serif;-inkscape-font-specification:sans-serif;text-align:start;writing-mode:lr-tb;direction:ltr;text-anchor:start;fill:#000000;stroke-width:0.264583"
       id="text1089"
       inkscape:transform-center-x="3.8033404"
       inkscape:transform-center-y="4.741787"
       x="508.38391"
       y="0"><textPath
         xlink:href="#path19-0"
         startOffset="50%"
         id="textPath1089"
         style="font-style:normal;font-variant:normal;font-weight:normal;font-stretch:normal;font-size:14.1111px;font-family:'Argos George';-inkscape-font-specification:'Argos George';text-align:center;text-anchor:middle;stroke-width:0.264583">Flora Forscherin</textPath></text>
    <path
       style="fill:none;stroke:#818181;stroke-width:0.264999;stroke-linecap:butt;stroke-linejoin:miter;stroke-dasharray:none;stroke-opacity:1;paint-order:fill markers stroke"
       d="m 11.57468,129.80177 c 0.89502,2.45684 1.722203,4.93839 2.480289,7.44087 0.847517,2.7977 1.615212,5.63876 2.89367,8.26763 1.780037,3.66025 4.613716,6.88801 8.267631,8.68102 3.807506,1.86837 8.179514,2.07626 12.401443,2.48029 7.298182,0.69842 14.626278,2.08277 21.909219,1.24014 0.833077,-0.0964 1.663786,-0.22198 2.480288,-0.41338 4.810616,-1.12765 8.828198,-4.46909 11.988061,-8.26763 3.648694,-4.38617 6.39501,-9.49241 8.267629,-14.88173 0.835065,-2.40328 1.498895,-4.86193 2.234715,-7.29743 1.296066,-4.28986 2.820732,-8.52074 4.792772,-12.54489 2.966031,-6.05249 7.084977,-11.74562 12.814823,-15.295108 3.67186,-2.274616 7.92708,-3.597257 12.2411,-3.810952 4.31401,-0.213695 8.67765,0.681397 12.56179,2.570808 4.14741,2.017479 7.79518,5.244472 9.80721,9.394532 1.00602,2.07503 1.59293,4.36065 1.63722,6.66626 0.0443,2.30562 -0.46052,4.62863 -1.52327,6.67519 -1.86721,3.59573 -5.50094,6.21877 -9.50168,6.85889 -4.00075,0.64012 -8.2715,-0.71821 -11.1674,-3.55184"
       id="path1089"
       sodipodi:nodetypes="csssssssssssssc"
       transform="translate(-0.45018429,-81.62737)"
       inkscape:original-d="m 11.57468,129.80177 c -2.6180814,-0.82676 5.925135,8.26763 2.480289,7.44087 -3.444845,-0.82676 7.165279,5.51176 2.89367,8.26763 -4.271607,2.75588 10.334539,2.89368 8.267631,8.68102 -2.066907,5.78734 12.263649,-3.44485 12.401443,2.48029 0.137794,5.92513 15.84629,-1.79133 21.909219,1.24014 6.062927,3.03146 -8.543219,-0.27559 2.480288,-0.41338 11.023504,-0.1378 6.614103,-4.96058 11.988061,-8.26763 5.37396,-3.30705 7.854247,-10.61013 8.267629,-14.88173 0.174444,-1.80258 1.085026,-4.39038 2.234715,-7.29743 1.574745,-3.98182 3.598082,-8.56259 4.792772,-12.54489 2.066906,-6.88969 8.405421,-10.47233 12.814823,-15.295108 4.4094,-4.822785 16.25967,-1.102352 24.80289,-1.240144 8.54322,-0.137795 6.6141,18.188782 9.92116,22.735982 3.30705,4.54719 -18.87776,-1.24015 -20.66908,3.30705"
       inkscape:path-effect="#path-effect1091" />
  </g>
  <g
     id="use1034"
     inkscape:tile-x0="11"
     inkscape:tile-y0="13.609731"
     transform="translate(484.01299)">
    <text
       xml:space="preserve"
       style="font-size:14.1111px;font-family:sans-serif;-inkscape-font-specification:sans-serif;text-align:start;writing-mode:lr-tb;direction:ltr;text-anchor:start;fill:#000000;stroke-width:0.264583"
       id="text1097"
       inkscape:transform-center-x="3.8033404"
       inkscape:transform-center-y="4.741787"
       x="508.38391"
       y="0"><textPath
         xlink:href="#path19-0"
         startOffset="50%"
         id="textPath1097"
         style="font-style:normal;font-variant:normal;font-weight:normal;font-stretch:normal;font-size:14.1111px;font-family:'Argos George';-inkscape-font-specification:'Argos George';text-align:center;text-anchor:middle;stroke-width:0.264583">Augusta Niebuhr</textPath></text>
    <path
       style="fill:none;stroke:#818181;stroke-width:0.264999;stroke-linecap:butt;stroke-linejoin:miter;stroke-dasharray:none;stroke-opacity:1;paint-order:fill markers stroke"
       d="m 11.57468,129.80177 c 0.89502,2.45684 1.722203,4.93839 2.480289,7.44087 0.847517,2.7977 1.615212,5.63876 2.89367,8.26763 1.780037,3.66025 4.613716,6.88801 8.267631,8.68102 3.807506,1.86837 8.179514,2.07626 12.401443,2.48029 7.298182,0.69842 14.626278,2.08277 21.909219,1.24014 0.833077,-0.0964 1.663786,-0.22198 2.480288,-0.41338 4.810616,-1.12765 8.828198,-4.46909 11.988061,-8.26763 3.648694,-4.38617 6.39501,-9.49241 8.267629,-14.88173 0.835065,-2.40328 1.498895,-4.86193 2.234715,-7.29743 1.296066,-4.28986 2.820732,-8.52074 4.792772,-12.54489 2.966031,-6.05249 7.084977,-11.74562 12.814823,-15.295108 3.67186,-2.274616 7.92708,-3.597257 12.2411,-3.810952 4.31401,-0.213695 8.67765,0.681397 12.56179,2.570808 4.14741,2.017479 7.79518,5.244472 9.80721,9.394532 1.00602,2.07503 1.59293,4.36065 1.63722,6.66626 0.0443,2.30562 -0.46052,4.62863 -1.52327,6.67519 -1.86721,3.59573 -5.50094,6.21877 -9.50168,6.85889 -4.00075,0.64012 -8.2715,-0.71821 -11.1674,-3.55184"
       id="path1097"
       sodipodi:nodetypes="csssssssssssssc"
       transform="translate(-0.45018429,-81.62737)"
       inkscape:original-d="m 11.57468,129.80177 c -2.6180814,-0.82676 5.925135,8.26763 2.480289,7.44087 -3.444845,-0.82676 7.165279,5.51176 2.89367,8.26763 -4.271607,2.75588 10.334539,2.89368 8.267631,8.68102 -2.066907,5.78734 12.263649,-3.44485 12.401443,2.48029 0.137794,5.92513 15.84629,-1.79133 21.909219,1.24014 6.062927,3.03146 -8.543219,-0.27559 2.480288,-0.41338 11.023504,-0.1378 6.614103,-4.96058 11.988061,-8.26763 5.37396,-3.30705 7.854247,-10.61013 8.267629,-14.88173 0.174444,-1.80258 1.085026,-4.39038 2.234715,-7.29743 1.574745,-3.98182 3.598082,-8.56259 4.792772,-12.54489 2.066906,-6.88969 8.405421,-10.47233 12.814823,-15.295108 4.4094,-4.822785 16.25967,-1.102352 24.80289,-1.240144 8.54322,-0.137795 6.6141,18.188782 9.92116,22.735982 3.30705,4.54719 -18.87776,-1.24015 -20.66908,3.30705"
       inkscape:path-effect="#path-effect1099" />
  </g>
</svg>
