<?xml version="1.0" standalone="no"?>
<!DOCTYPE svg PUBLIC "-//W3C//DTD SVG 1.1//EN" "http://www.w3.org/Graphics/SVG/1.1/DTD/svg11.dtd">
<svg xmlns="http://www.w3.org/2000/svg" width="500mm" height="350mm" viewBox="0 0 500 350" version="1.1">
<polyline points="7,335.33 10.088,336.177 12.636,336.627 14.928,336.821 16.998,336.811 18.875,336.633 20.588,336.314 22.323,335.816 23.898,335.19 25.339,334.449 26.769,333.535 28.129,332.479 29.47,331.228 30.794,329.756 32.089,328.03 33.341,326.017 34.521,323.689 35.585,321.03 36.518,317.909 37.164,314.68 37.52,311.309 37.562,307.846 37.277,304.268 37.002,302.421 36.511,300.413 36.103,298.384 35.405,293.131 35.166,287.964 35.374,282.872 35.68,280.464 35.951,279.234 36.207,278.436 36.511,277.72 36.915,276.968 37.418,276.211 38.091,275.363 39.395,273.991 42.407,271.346 48.383,266.7 148.708,266.7 142.535,271.5 139.534,274.135 138.242,275.495 137.58,276.329 137.087,277.07 136.691,277.806 136.395,278.506 136.145,279.286 135.877,280.498 135.574,282.888 135.366,287.964 135.605,293.113 136.301,298.352 136.706,300.369 137.198,302.383 137.476,304.246 137.762,307.84 137.72,311.321 137.362,314.71 136.712,317.957 135.774,321.096 134.703,323.771 133.515,326.115 132.254,328.144 130.948,329.884 129.613,331.368 128.259,332.631 126.885,333.699 125.439,334.623 123.981,335.372 122.387,336.006 120.634,336.508 118.903,336.831 117.008,337.011 114.92,337.021 112.61,336.825 110.044,336.373 106.938,335.52 103.726,334.309 100.156,332.584 96.21,330.22 91.883,327.072 87.201,322.977 86.519,322.26 85.911,321.48 85.382,320.643 84.937,319.759 84.582,318.835 84.318,317.881 84.149,316.906 84.077,315.918 84.101,314.93 84.222,313.947 84.438,312.981 84.748,312.042 85.148,311.137 85.635,310.276 86.205,309.465 86.85,308.715 87.566,308.032 88.345,307.422 89.18,306.891 90.064,306.445 90.986,306.087 91.94,305.821 92.914,305.65 93.901,305.575 94.891,305.596 95.874,305.715 96.839,305.929 97.781,306.236 98.683,306.634 108.547,311.125 112.183,312.39 114.029,312.867 115.348,313.101 116.287,313.187 116.98,313.191 117.509,313.148 117.927,313.077 118.263,312.988 118.542,312.888 118.796,312.768 118.997,312.649 119.172,312.523 119.343,312.373 119.493,312.215 119.624,312.044 119.744,311.857 119.861,311.629 119.962,311.381 120.051,311.09 120.125,310.743 120.179,310.327 120.202,309.681 120.161,308.974 120.01,307.954 119.676,306.592 119.057,304.803 118.214,302.916 116.99,300.693 115.414,298.357 113.642,296.22 111.785,294.374 109.675,292.638 107.387,291.086 104.847,289.682 102.031,288.44 98.907,287.386 95.458,286.557 91.673,286.001 89.523,285.846 86.329,285.846 83.471,286.101 80.918,286.563 78.629,287.19 76.565,287.961 74.692,288.86 72.792,290.005 71.078,291.285 69.553,292.675 68.127,294.244 66.773,296.033 65.422,298.183 64.107,300.742 62.878,303.753 61.807,307.223 60.978,311.116 60.49,315.169 60.456,315.675 60.379,319.739 60.458,321.465 59.868,327.985 58.431,335.773 55.951,344.986 54.889,348.395 54.229,350.079 53.602,351.354 52.932,352.457 52.077,353.602 51.102,354.674 49.907,355.768 48.451,356.9 -51.875,356.9 -50.222,355.615 -49.04,354.532 -48.077,353.474 -47.234,352.345 -46.573,351.258 -45.954,349.999 -45.3,348.329 -44.241,344.93 -41.763,335.729 -40.33,327.957 -39.742,321.461 -39.821,319.741 -39.744,315.667 -39.709,315.151 -39.22,311.084 -38.387,307.173 -37.31,303.685 -36.075,300.658 -34.752,298.083 -33.392,295.919 -32.027,294.116 -30.589,292.533 -29.05,291.131 -27.32,289.839 -25.403,288.684 -23.513,287.777 -21.433,287 -19.126,286.367 -16.556,285.903 -13.68,285.646 -10.47,285.646 -8.305,285.803 -4.504,286.361 -1.037,287.194 2.103,288.254 4.936,289.502 7.492,290.916 9.795,292.478 11.919,294.226 13.79,296.084 15.574,298.237 17.161,300.589 18.393,302.826 19.243,304.729 19.868,306.536 20.206,307.916 20.36,308.954 20.402,309.679 20.379,310.343 20.322,310.777 20.244,311.14 20.15,311.448 20.043,311.713 19.917,311.957 19.788,312.159 19.645,312.345 19.482,312.517 19.297,312.679 19.107,312.817 18.89,312.944 18.619,313.072 18.323,313.18 17.969,313.273 17.534,313.346 16.988,313.391 16.277,313.387 15.322,313.299 13.987,313.063 12.125,312.582 8.473,311.311 -1.399,306.816 -2.291,306.424 -3.214,306.123 -4.16,305.913 -5.123,305.796 -6.094,305.775 -7.061,305.848 -8.016,306.017 -8.951,306.277 -9.854,306.627 -10.721,307.065 -11.539,307.586 -12.303,308.184 -13.005,308.853 -13.637,309.589 -14.196,310.382 -14.673,311.227 -15.065,312.114 -15.369,313.035 -15.58,313.981 -15.699,314.944 -15.723,315.914 -15.652,316.882 -15.486,317.837 -15.228,318.773 -14.88,319.678 -14.444,320.545 -13.925,321.364 -13.329,322.13 -12.661,322.833 -7.992,326.916 -3.68,330.054 0.251,332.408 3.805,334.125 7,335.33" fill="none" stroke="black" stroke-width="0.1mm" />
<polyline points="-4.504,377.561 -1.037,378.394 2.103,379.454 4.936,380.702 7.492,382.116 9.795,383.678 11.919,385.426 13.79,387.284 15.574,389.437 17.161,391.789 18.393,394.026 19.243,395.929 19.868,397.736 20.206,399.116 20.36,400.154 20.402,400.879 20.379,401.543 20.322,401.977 20.244,402.34 20.15,402.648 20.043,402.913 19.917,403.157 19.788,403.359 19.645,403.545 19.482,403.717 19.297,403.879 19.107,404.017 18.89,404.144 18.619,404.272 18.323,404.38 17.969,404.473 17.534,404.546 16.988,404.591 16.277,404.587 15.322,404.499 13.987,404.263 12.125,403.782 8.473,402.511 -1.399,398.016 -2.291,397.624 -3.214,397.323 -4.16,397.113 -5.123,396.996 -6.094,396.975 -7.061,397.048 -8.016,397.217 -8.951,397.477 -9.854,397.827 -10.721,398.265 -11.539,398.786 -12.303,399.384 -13.005,400.053 -13.637,400.789 -14.196,401.582 -14.673,402.427 -15.065,403.314 -15.369,404.235 -15.58,405.181 -15.699,406.144 -15.723,407.114 -15.652,408.082 -15.486,409.037 -15.228,409.973 -14.88,410.878 -14.444,411.745 -13.925,412.564 -13.329,413.33 -12.661,414.033 -7.992,418.116 -3.68,421.254 0.251,423.608 3.805,425.325 7,426.53 10.088,427.377 12.636,427.827 14.928,428.021 16.998,428.011 18.875,427.833 20.588,427.514 22.323,427.016 23.898,426.39 25.339,425.649 26.769,424.735 28.129,423.679 29.47,422.428 30.794,420.956 32.089,419.23 33.341,417.217 34.521,414.889 35.585,412.23 36.518,409.109 37.164,405.88 37.52,402.509 37.562,399.046 37.277,395.468 37.002,393.621 36.511,391.613 36.103,389.584 35.405,384.331 35.166,379.164 35.374,374.072 35.68,371.664 35.951,370.434 36.207,369.636 36.511,368.92 36.915,368.168 37.418,367.411 38.091,366.563 39.395,365.191 42.407,362.546 48.383,357.9 148.708,357.9 142.535,362.7 139.534,365.335 138.242,366.695 137.58,367.529 137.087,368.27 136.691,369.006 136.395,369.706 136.145,370.486 135.877,371.698 135.574,374.088 135.366,379.164 135.605,384.313 136.301,389.552 136.706,391.569 137.198,393.583 137.476,395.446 137.762,399.04 137.72,402.521 137.362,405.91 136.712,409.157 135.774,412.296 134.703,414.971 133.515,417.315 132.254,419.344 130.948,421.084 129.613,422.568 128.259,423.831 126.885,424.899 125.439,425.823 123.981,426.572 122.387,427.206 120.634,427.708 118.903,428.031 117.008,428.211 114.92,428.221 112.61,428.025 110.044,427.573 106.938,426.72 103.726,425.509 100.156,423.784 96.21,421.42 91.883,418.272 87.201,414.177 86.519,413.46 85.911,412.68 85.382,411.843 84.937,410.959 84.582,410.035 84.318,409.081 84.149,408.106 84.077,407.118 84.101,406.13 84.222,405.147 84.438,404.181 84.748,403.242 85.148,402.337 85.635,401.476 86.205,400.665 86.85,399.915 87.566,399.232 88.345,398.622 89.18,398.091 90.064,397.645 90.986,397.287 91.94,397.021 92.914,396.85 93.901,396.775 94.891,396.796 95.874,396.915 96.839,397.129 97.781,397.436 98.683,397.834 108.547,402.325 112.183,403.59 114.029,404.067 115.348,404.301 116.287,404.387 116.98,404.391 117.509,404.348 117.927,404.277 118.263,404.188 118.542,404.088 118.796,403.968 118.997,403.849 119.172,403.723 119.343,403.573 119.493,403.415 119.624,403.244 119.744,403.057 119.861,402.829 119.962,402.581 120.051,402.29 120.125,401.943 120.179,401.527 120.202,400.881 120.161,400.174 120.01,399.154 119.676,397.792 119.057,396.003 118.214,394.116 116.99,391.893 115.414,389.557 113.642,387.42 111.785,385.574 109.675,383.838 107.387,382.286 104.847,380.882 102.031,379.64 98.907,378.586 95.458,377.757 91.673,377.201 89.523,377.046 86.329,377.046 83.471,377.301 80.918,377.763 78.629,378.39 76.565,379.161 74.692,380.06 72.792,381.205 71.078,382.485 69.553,383.875 68.127,385.444 66.773,387.233 65.422,389.383 64.107,391.942 62.878,394.953 61.807,398.423 60.978,402.316 60.49,406.369 60.456,406.875 60.379,410.939 60.458,412.665 59.868,419.185 58.431,426.973 55.951,436.186 54.889,439.595 54.229,441.279 53.602,442.554 52.932,443.657 52.077,444.802 51.102,445.874 49.907,446.968 48.451,448.1 -51.875,448.1 -50.222,446.815 -49.04,445.732 -48.077,444.674 -47.234,443.545 -46.573,442.458 -45.954,441.199 -45.3,439.529 -44.241,436.13 -41.763,426.929 -40.33,419.157 -39.742,412.661 -39.821,410.941 -39.744,406.867 -39.709,406.351 -39.22,402.284 -38.387,398.373 -37.31,394.885 -36.075,391.858 -34.752,389.283 -33.392,387.119 -32.027,385.316 -30.589,383.733 -29.05,382.331 -27.32,381.039 -25.403,379.884 -23.513,378.977 -21.433,378.2 -19.126,377.567 -16.556,377.103 -13.68,376.846 -10.47,376.846 -8.305,377.003 -4.504,377.561" fill="none" stroke="black" stroke-width="0.1mm" />
<polyline points="-51.875,265.7 -50.222,264.415 -49.04,263.332 -48.077,262.274 -47.234,261.145 -46.574,260.058 -45.954,258.799 -45.3,257.129 -44.241,253.73 -41.764,244.529 -40.33,236.757 -39.742,230.261 -39.821,228.541 -39.744,224.467 -39.709,223.951 -39.22,219.884 -38.387,215.973 -37.31,212.485 -36.075,209.458 -34.752,206.883 -33.392,204.719 -32.027,202.916 -30.589,201.333 -29.05,199.931 -27.32,198.639 -25.403,197.484 -23.513,196.577 -21.433,195.8 -19.126,195.167 -16.556,194.703 -13.68,194.446 -10.47,194.446 -8.305,194.603 -4.504,195.161 -1.037,195.994 2.103,197.054 4.936,198.302 7.492,199.716 9.795,201.278 11.919,203.026 13.79,204.884 15.574,207.037 17.161,209.389 18.393,211.626 19.243,213.529 19.868,215.336 20.206,216.716 20.36,217.754 20.402,218.479 20.379,219.143 20.322,219.577 20.244,219.94 20.15,220.248 20.043,220.513 19.918,220.757 19.788,220.96 19.645,221.145 19.482,221.317 19.297,221.479 19.107,221.617 18.89,221.744 18.619,221.872 18.323,221.98 17.969,222.073 17.534,222.146 16.988,222.191 16.277,222.187 15.322,222.099 13.987,221.863 12.125,221.382 8.473,220.111 -1.399,215.616 -2.291,215.224 -3.214,214.923 -4.16,214.713 -5.123,214.596 -6.094,214.575 -7.061,214.648 -8.016,214.817 -8.951,215.077 -9.854,215.427 -10.721,215.865 -11.539,216.386 -12.303,216.984 -13.005,217.653 -13.637,218.389 -14.196,219.182 -14.673,220.027 -15.065,220.914 -15.369,221.835 -15.58,222.781 -15.699,223.744 -15.723,224.714 -15.652,225.682 -15.486,226.637 -15.228,227.573 -14.88,228.478 -14.444,229.345 -13.925,230.164 -13.329,230.93 -12.661,231.633 -7.992,235.716 -3.68,238.854 0.251,241.208 3.805,242.925 7,244.13 10.088,244.977 12.636,245.427 14.928,245.621 16.998,245.611 18.875,245.433 20.588,245.114 22.323,244.616 23.898,243.99 25.339,243.249 26.769,242.335 28.129,241.279 29.47,240.028 30.794,238.556 32.089,236.83 33.341,234.817 34.521,232.489 35.585,229.83 36.518,226.709 37.164,223.48 37.52,220.109 37.562,216.646 37.277,213.068 37.002,211.221 36.511,209.213 36.103,207.184 35.405,201.931 35.166,196.764 35.374,191.672 35.68,189.264 35.951,188.034 36.207,187.236 36.511,186.52 36.915,185.768 37.418,185.011 38.091,184.163 39.395,182.791 42.407,180.146 48.383,175.5 148.708,175.5 142.535,180.3 139.534,182.935 138.242,184.295 137.58,185.129 137.087,185.87 136.691,186.606 136.395,187.306 136.145,188.086 135.877,189.298 135.574,191.688 135.366,196.764 135.605,201.913 136.301,207.152 136.706,209.169 137.198,211.183 137.476,213.046 137.762,216.64 137.72,220.121 137.362,223.51 136.712,226.757 135.774,229.896 134.703,232.571 133.515,234.915 132.254,236.944 130.948,238.684 129.613,240.168 128.259,241.431 126.885,242.499 125.439,243.423 123.981,244.172 122.387,244.806 120.634,245.308 118.903,245.631 117.008,245.811 114.92,245.821 112.61,245.625 110.044,245.173 106.938,244.32 103.726,243.109 100.156,241.384 96.21,239.02 91.883,235.872 87.201,231.777 86.519,231.06 85.911,230.28 85.382,229.443 84.937,228.559 84.582,227.635 84.318,226.681 84.149,225.706 84.077,224.718 84.101,223.73 84.222,222.747 84.438,221.781 84.748,220.842 85.148,219.937 85.635,219.076 86.205,218.265 86.85,217.515 87.566,216.832 88.345,216.222 89.18,215.691 90.064,215.245 90.986,214.887 91.94,214.621 92.914,214.45 93.901,214.375 94.891,214.396 95.874,214.515 96.839,214.729 97.781,215.036 98.683,215.434 108.547,219.925 112.183,221.19 114.029,221.667 115.348,221.901 116.287,221.987 116.98,221.991 117.509,221.948 117.927,221.877 118.263,221.788 118.542,221.688 118.796,221.568 118.997,221.449 119.172,221.323 119.343,221.173 119.493,221.015 119.624,220.844 119.744,220.657 119.861,220.429 119.962,220.182 120.05,219.89 120.125,219.543 120.179,219.127 120.202,218.481 120.161,217.774 120.01,216.754 119.676,215.392 119.057,213.603 118.214,211.716 116.99,209.493 115.414,207.157 113.642,205.02 111.785,203.174 109.675,201.438 107.387,199.886 104.847,198.482 102.031,197.24 98.907,196.186 95.458,195.357 91.673,194.801 89.523,194.646 86.329,194.646 83.471,194.901 80.918,195.363 78.629,195.99 76.565,196.761 74.692,197.66 72.792,198.805 71.078,200.085 69.553,201.475 68.127,203.044 66.773,204.833 65.422,206.983 64.107,209.542 62.878,212.553 61.807,216.023 60.978,219.916 60.49,223.969 60.456,224.475 60.379,228.539 60.458,230.265 59.868,236.785 58.432,244.573 55.951,253.786 54.889,257.195 54.229,258.879 53.602,260.154 52.932,261.257 52.077,262.402 51.102,263.474 49.907,264.568 48.451,265.7 -51.875,265.7" fill="none" stroke="black" stroke-width="0.1mm" />
<polyline points="-51.875,174.5 -50.222,173.215 -49.04,172.132 -48.077,171.074 -47.234,169.945 -46.574,168.858 -45.954,167.599 -45.3,165.929 -44.241,162.53 -41.764,153.329 -40.33,145.557 -39.742,139.061 -39.821,137.341 -39.744,133.267 -39.709,132.751 -39.22,128.684 -38.387,124.773 -37.31,121.285 -36.075,118.258 -34.752,115.683 -33.392,113.519 -32.027,111.716 -30.589,110.133 -29.05,108.731 -27.32,107.439 -25.403,106.284 -23.513,105.377 -21.433,104.6 -19.126,103.967 -16.556,103.503 -13.68,103.246 -10.47,103.246 -8.305,103.403 -4.504,103.961 -1.037,104.794 2.103,105.854 4.936,107.102 7.492,108.516 9.795,110.078 11.919,111.826 13.79,113.684 15.574,115.837 17.161,118.189 18.393,120.426 19.243,122.329 19.868,124.136 20.206,125.516 20.36,126.554 20.402,127.279 20.379,127.943 20.322,128.377 20.244,128.74 20.15,129.048 20.043,129.313 19.918,129.557 19.788,129.76 19.645,129.945 19.482,130.117 19.297,130.279 19.107,130.417 18.89,130.544 18.619,130.672 18.323,130.78 17.969,130.873 17.534,130.946 16.988,130.991 16.277,130.987 15.322,130.899 13.987,130.663 12.125,130.182 8.473,128.911 -1.399,124.416 -2.291,124.024 -3.214,123.723 -4.16,123.513 -5.123,123.396 -6.094,123.375 -7.061,123.448 -8.016,123.617 -8.951,123.877 -9.854,124.227 -10.721,124.665 -11.539,125.186 -12.303,125.784 -13.005,126.453 -13.637,127.189 -14.196,127.982 -14.673,128.827 -15.065,129.714 -15.369,130.635 -15.58,131.581 -15.699,132.544 -15.723,133.514 -15.652,134.482 -15.486,135.437 -15.228,136.373 -14.88,137.278 -14.444,138.145 -13.925,138.964 -13.329,139.73 -12.661,140.433 -7.992,144.516 -3.68,147.654 0.251,150.008 3.805,151.725 7,152.93 10.088,153.777 12.636,154.227 14.928,154.421 16.998,154.411 18.875,154.233 20.588,153.914 22.323,153.416 23.898,152.79 25.339,152.049 26.769,151.135 28.129,150.079 29.47,148.828 30.794,147.356 32.089,145.63 33.341,143.617 34.521,141.289 35.585,138.63 36.518,135.509 37.164,132.28 37.52,128.909 37.562,125.446 37.277,121.868 37.002,120.021 36.511,118.013 36.103,115.984 35.405,110.731 35.166,105.564 35.374,100.472 35.68,98.064 35.951,96.834 36.207,96.036 36.511,95.32 36.915,94.568 37.418,93.811 38.091,92.963 39.395,91.591 42.407,88.946 48.383,84.3 148.708,84.3 142.535,89.1 139.534,91.735 138.242,93.095 137.58,93.929 137.087,94.67 136.691,95.406 136.395,96.106 136.145,96.886 135.877,98.098 135.574,100.488 135.366,105.564 135.605,110.713 136.301,115.952 136.706,117.969 137.198,119.983 137.476,121.846 137.762,125.44 137.72,128.921 137.362,132.31 136.712,135.557 135.774,138.696 134.703,141.371 133.515,143.715 132.254,145.744 130.948,147.484 129.613,148.968 128.259,150.231 126.885,151.299 125.439,152.223 123.981,152.972 122.387,153.606 120.634,154.108 118.903,154.431 117.008,154.611 114.92,154.621 112.61,154.425 110.044,153.973 106.938,153.12 103.726,151.909 100.156,150.184 96.21,147.82 91.883,144.672 87.201,140.577 86.519,139.86 85.911,139.08 85.382,138.243 84.937,137.359 84.582,136.435 84.318,135.481 84.149,134.506 84.077,133.518 84.101,132.53 84.222,131.547 84.438,130.581 84.748,129.642 85.148,128.737 85.635,127.876 86.205,127.065 86.85,126.315 87.566,125.632 88.345,125.022 89.18,124.491 90.064,124.045 90.986,123.687 91.94,123.421 92.914,123.25 93.901,123.175 94.891,123.196 95.874,123.315 96.839,123.529 97.781,123.836 98.683,124.234 108.547,128.725 112.183,129.99 114.029,130.467 115.348,130.701 116.287,130.787 116.98,130.791 117.509,130.748 117.927,130.677 118.263,130.588 118.542,130.488 118.796,130.368 118.997,130.249 119.172,130.123 119.343,129.973 119.493,129.815 119.624,129.644 119.744,129.457 119.861,129.229 119.962,128.982 120.05,128.69 120.125,128.343 120.179,127.927 120.202,127.281 120.161,126.574 120.01,125.554 119.676,124.192 119.057,122.403 118.214,120.516 116.99,118.293 115.414,115.957 113.642,113.82 111.785,111.974 109.675,110.238 107.387,108.686 104.847,107.282 102.031,106.04 98.907,104.986 95.458,104.157 91.673,103.601 89.523,103.446 86.329,103.446 83.471,103.701 80.918,104.163 78.629,104.79 76.565,105.561 74.692,106.46 72.792,107.605 71.078,108.885 69.553,110.275 68.127,111.844 66.773,113.633 65.422,115.783 64.107,118.342 62.878,121.353 61.807,124.823 60.978,128.716 60.49,132.769 60.456,133.275 60.379,137.339 60.458,139.065 59.868,145.585 58.432,153.373 55.951,162.586 54.889,165.995 54.229,167.679 53.602,168.954 52.932,170.057 52.077,171.202 51.102,172.274 49.907,173.368 48.451,174.5 -51.875,174.5" fill="none" stroke="black" stroke-width="0.1mm" />
<polyline points="-51.875,83.3 -50.222,82.015 -49.04,80.932 -48.077,79.874 -47.234,78.745 -46.574,77.658 -45.954,76.399 -45.3,74.729 -44.241,71.33 -41.764,62.129 -40.33,54.357 -39.742,47.861 -39.821,46.141 -39.744,42.067 -39.709,41.551 -39.22,37.484 -38.387,33.573 -37.31,30.085 -36.075,27.058 -34.752,24.483 -33.392,22.319 -32.027,20.516 -30.589,18.933 -29.05,17.531 -27.32,16.239 -25.403,15.084 -23.513,14.177 -21.433,13.4 -19.126,12.767 -16.556,12.303 -13.68,12.046 -10.47,12.046 -8.305,12.203 -4.504,12.761 -1.037,13.594 2.103,14.654 4.936,15.902 7.492,17.316 9.795,18.878 11.919,20.626 13.79,22.484 15.574,24.637 17.161,26.989 18.393,29.226 19.243,31.129 19.868,32.936 20.206,34.316 20.36,35.354 20.402,36.079 20.379,36.743 20.322,37.177 20.245,37.54 20.15,37.849 20.043,38.113 19.918,38.357 19.788,38.56 19.645,38.745 19.482,38.917 19.297,39.079 19.107,39.217 18.89,39.344 18.619,39.472 18.323,39.58 17.969,39.673 17.534,39.746 16.988,39.791 16.277,39.787 15.322,39.699 13.987,39.463 12.125,38.982 8.473,37.711 -1.399,33.216 -2.291,32.824 -3.214,32.523 -4.16,32.313 -5.123,32.196 -6.094,32.175 -7.061,32.248 -8.016,32.417 -8.951,32.677 -9.854,33.027 -10.721,33.465 -11.539,33.986 -12.303,34.584 -13.005,35.253 -13.637,35.989 -14.196,36.782 -14.673,37.627 -15.065,38.514 -15.369,39.435 -15.58,40.381 -15.699,41.344 -15.723,42.314 -15.652,43.282 -15.486,44.237 -15.228,45.173 -14.88,46.078 -14.444,46.945 -13.925,47.764 -13.329,48.53 -12.661,49.233 -7.992,53.316 -3.68,56.454 0.251,58.808 3.805,60.525 7,61.73 10.088,62.577 12.636,63.027 14.928,63.221 16.998,63.211 18.875,63.033 20.588,62.714 22.323,62.216 23.898,61.59 25.339,60.849 26.769,59.935 28.129,58.879 29.47,57.628 30.794,56.156 32.089,54.43 33.341,52.417 34.521,50.089 35.585,47.43 36.518,44.309 37.164,41.08 37.52,37.709 37.562,34.246 37.277,30.668 37.002,28.821 36.511,26.813 36.103,24.784 35.405,19.531 35.166,14.364 35.374,9.272 35.68,6.864 35.951,5.634 36.207,4.836 36.511,4.12 36.915,3.368 37.418,2.611 38.091,1.763 39.395,0.391 42.407,-2.254 48.383,-6.9 148.708,-6.9 142.535,-2.1 139.534,0.535 138.242,1.895 137.58,2.729 137.087,3.47 136.691,4.206 136.395,4.906 136.145,5.686 135.877,6.898 135.574,9.288 135.366,14.364 135.605,19.513 136.301,24.752 136.706,26.769 137.198,28.783 137.476,30.646 137.762,34.24 137.72,37.721 137.362,41.11 136.712,44.357 135.774,47.496 134.703,50.171 133.515,52.515 132.254,54.544 130.948,56.284 129.613,57.768 128.259,59.031 126.885,60.099 125.439,61.023 123.981,61.772 122.387,62.406 120.634,62.908 118.903,63.231 117.008,63.411 114.92,63.421 112.61,63.225 110.044,62.773 106.938,61.92 103.726,60.709 100.156,58.984 96.21,56.62 91.883,53.472 87.201,49.377 86.519,48.66 85.911,47.88 85.382,47.043 84.937,46.159 84.582,45.235 84.318,44.281 84.149,43.306 84.077,42.318 84.101,41.33 84.222,40.347 84.438,39.381 84.748,38.442 85.148,37.537 85.635,36.676 86.205,35.865 86.85,35.115 87.566,34.432 88.345,33.822 89.18,33.291 90.064,32.845 90.986,32.487 91.94,32.221 92.914,32.05 93.901,31.975 94.891,31.996 95.874,32.115 96.839,32.329 97.781,32.636 98.683,33.034 108.547,37.525 112.183,38.79 114.029,39.267 115.348,39.501 116.287,39.587 116.98,39.591 117.509,39.548 117.927,39.477 118.263,39.388 118.542,39.288 118.796,39.168 118.997,39.049 119.172,38.923 119.343,38.773 119.493,38.615 119.624,38.444 119.744,38.257 119.861,38.029 119.962,37.782 120.05,37.49 120.125,37.143 120.179,36.727 120.202,36.081 120.161,35.374 120.01,34.354 119.676,32.992 119.057,31.203 118.214,29.316 116.99,27.093 115.414,24.757 113.642,22.62 111.785,20.774 109.675,19.038 107.387,17.486 104.847,16.082 102.031,14.84 98.907,13.786 95.458,12.957 91.673,12.401 89.523,12.246 86.329,12.246 83.471,12.501 80.918,12.963 78.629,13.59 76.565,14.361 74.692,15.26 72.792,16.405 71.078,17.685 69.553,19.075 68.127,20.644 66.773,22.433 65.422,24.583 64.107,27.142 62.878,30.153 61.807,33.623 60.978,37.516 60.49,41.569 60.456,42.075 60.379,46.139 60.458,47.865 59.868,54.385 58.431,62.173 55.951,71.386 54.889,74.795 54.229,76.479 53.602,77.754 52.932,78.857 52.077,80.002 51.102,81.074 49.907,82.168 48.451,83.3 -51.875,83.3" fill="none" stroke="black" stroke-width="0.1mm" />
<polyline points="-51.875,-7.9 -50.222,-9.185 -49.04,-10.268 -48.077,-11.326 -47.234,-12.455 -46.574,-13.542 -45.954,-14.801 -45.3,-16.471 -44.241,-19.87 -41.764,-29.071 -40.33,-36.843 -39.742,-43.339 -39.821,-45.059 -39.744,-49.133 -39.709,-49.649 -39.22,-53.716 -38.387,-57.627 -37.31,-61.115 -36.075,-64.142 -34.752,-66.717 -33.392,-68.881 -32.027,-70.684 -30.589,-72.267 -29.05,-73.669 -27.32,-74.961 -25.403,-76.116 -23.513,-77.023 -21.433,-77.8 -19.126,-78.433 -16.556,-78.897 -13.68,-79.154 -10.47,-79.154 -8.305,-78.997 -4.504,-78.439 -1.037,-77.606 2.103,-76.546 4.936,-75.298 7.492,-73.884 9.795,-72.322 11.919,-70.574 13.79,-68.716 15.574,-66.563 17.161,-64.211 18.393,-61.974 19.243,-60.071 19.868,-58.264 20.206,-56.884 20.36,-55.846 20.402,-55.121 20.379,-54.457 20.322,-54.023 20.245,-53.66 20.15,-53.351 20.043,-53.087 19.918,-52.843 19.788,-52.64 19.645,-52.455 19.482,-52.283 19.297,-52.121 19.107,-51.983 18.89,-51.856 18.619,-51.728 18.323,-51.62 17.969,-51.527 17.534,-51.454 16.988,-51.409 16.277,-51.413 15.322,-51.501 13.987,-51.737 12.125,-52.218 8.473,-53.489 -1.399,-57.984 -2.291,-58.376 -3.214,-58.677 -4.16,-58.887 -5.123,-59.004 -6.094,-59.025 -7.061,-58.952 -8.016,-58.783 -8.951,-58.523 -9.854,-58.173 -10.721,-57.735 -11.539,-57.214 -12.303,-56.616 -13.005,-55.947 -13.637,-55.211 -14.196,-54.418 -14.673,-53.573 -15.065,-52.686 -15.369,-51.765 -15.58,-50.819 -15.699,-49.856 -15.723,-48.886 -15.652,-47.918 -15.486,-46.963 -15.228,-46.027 -14.88,-45.122 -14.444,-44.255 -13.925,-43.436 -13.329,-42.67 -12.661,-41.967 -7.992,-37.884 -3.68,-34.746 0.251,-32.392 3.805,-30.675 7,-29.47 10.088,-28.623 12.636,-28.173 14.928,-27.979 16.998,-27.989 18.875,-28.167 20.588,-28.486 22.323,-28.984 23.898,-29.61 25.339,-30.351 26.769,-31.265 28.129,-32.321 29.47,-33.572 30.794,-35.044 32.089,-36.77 33.341,-38.783 34.521,-41.111 35.585,-43.77 36.518,-46.891 37.164,-50.12 37.52,-53.491 37.562,-56.954 37.277,-60.532 37.002,-62.379 36.511,-64.387 36.103,-66.416 35.405,-71.669 35.166,-76.836 35.374,-81.928 35.68,-84.336 35.951,-85.566 36.207,-86.364 36.511,-87.08 36.915,-87.832 37.418,-88.589 38.091,-89.437 39.395,-90.809 42.407,-93.454 48.383,-98.1 148.708,-98.1 142.535,-93.3 139.534,-90.665 138.242,-89.305 137.58,-88.471 137.087,-87.73 136.691,-86.994 136.395,-86.294 136.145,-85.514 135.877,-84.302 135.574,-81.912 135.366,-76.836 135.605,-71.687 136.301,-66.448 136.706,-64.431 137.198,-62.417 137.476,-60.554 137.762,-56.96 137.72,-53.479 137.362,-50.09 136.712,-46.843 135.774,-43.704 134.703,-41.029 133.515,-38.685 132.254,-36.656 130.948,-34.916 129.613,-33.432 128.259,-32.169 126.885,-31.101 125.439,-30.177 123.981,-29.428 122.387,-28.794 120.634,-28.292 118.903,-27.969 117.008,-27.789 114.92,-27.779 112.61,-27.975 110.044,-28.427 106.938,-29.28 103.726,-30.491 100.156,-32.216 96.21,-34.58 91.883,-37.728 87.201,-41.823 86.519,-42.54 85.911,-43.32 85.382,-44.157 84.937,-45.041 84.582,-45.965 84.318,-46.919 84.149,-47.894 84.077,-48.882 84.101,-49.87 84.222,-50.853 84.438,-51.819 84.748,-52.758 85.148,-53.663 85.635,-54.524 86.205,-55.335 86.85,-56.085 87.566,-56.768 88.345,-57.378 89.18,-57.909 90.064,-58.355 90.986,-58.713 91.94,-58.979 92.914,-59.15 93.901,-59.225 94.891,-59.204 95.874,-59.085 96.839,-58.871 97.781,-58.564 98.683,-58.166 108.547,-53.675 112.183,-52.41 114.029,-51.933 115.348,-51.699 116.287,-51.613 116.98,-51.609 117.509,-51.652 117.927,-51.723 118.263,-51.812 118.542,-51.912 118.796,-52.032 118.997,-52.151 119.172,-52.277 119.343,-52.427 119.493,-52.585 119.624,-52.756 119.744,-52.943 119.861,-53.171 119.962,-53.418 120.05,-53.71 120.125,-54.057 120.179,-54.473 120.202,-55.119 120.161,-55.826 120.01,-56.846 119.676,-58.208 119.057,-59.997 118.214,-61.884 116.99,-64.107 115.414,-66.443 113.642,-68.58 111.785,-70.426 109.675,-72.162 107.387,-73.714 104.847,-75.118 102.031,-76.36 98.907,-77.414 95.458,-78.243 91.673,-78.799 89.523,-78.954 86.329,-78.954 83.471,-78.699 80.918,-78.237 78.629,-77.61 76.565,-76.839 74.692,-75.94 72.792,-74.795 71.078,-73.515 69.553,-72.125 68.127,-70.556 66.773,-68.767 65.422,-66.617 64.107,-64.058 62.878,-61.047 61.807,-57.577 60.978,-53.684 60.49,-49.631 60.456,-49.125 60.379,-45.061 60.458,-43.335 59.868,-36.815 58.431,-29.027 55.951,-19.814 54.889,-16.405 54.229,-14.721 53.602,-13.446 52.932,-12.343 52.077,-11.198 51.102,-10.126 49.907,-9.032 48.451,-7.9 -51.875,-7.9" fill="none" stroke="black" stroke-width="0.1mm" />
<polyline points="149.708,-7.9 151.362,-9.185 152.543,-10.268 153.506,-11.326 154.349,-12.455 155.009,-13.542 155.629,-14.801 156.284,-16.471 157.342,-19.87 159.819,-29.071 161.253,-36.843 161.841,-43.339 161.762,-45.059 161.839,-49.133 161.874,-49.649 162.363,-53.716 163.196,-57.627 164.273,-61.115 165.508,-64.142 166.831,-66.717 168.192,-68.881 169.556,-70.684 170.994,-72.267 172.533,-73.669 174.263,-74.961 176.181,-76.116 178.07,-77.023 180.15,-77.8 182.457,-78.433 185.028,-78.897 187.904,-79.154 191.114,-79.154 193.278,-78.997 197.079,-78.439 200.546,-77.606 203.686,-76.546 206.52,-75.298 209.075,-73.884 211.378,-72.322 213.502,-70.574 215.373,-68.716 217.157,-66.563 218.744,-64.211 219.977,-61.974 220.826,-60.071 221.451,-58.264 221.789,-56.884 221.944,-55.846 221.985,-55.121 221.962,-54.457 221.906,-54.023 221.828,-53.66 221.733,-53.351 221.626,-53.087 221.501,-52.843 221.371,-52.64 221.228,-52.455 221.066,-52.283 220.88,-52.121 220.69,-51.983 220.473,-51.856 220.203,-51.728 219.906,-51.62 219.552,-51.527 219.117,-51.454 218.571,-51.409 217.86,-51.413 216.905,-51.501 215.57,-51.737 213.708,-52.218 210.056,-53.489 200.184,-57.984 199.292,-58.376 198.37,-58.677 197.423,-58.887 196.46,-59.004 195.49,-59.025 194.523,-58.952 193.567,-58.783 192.633,-58.523 191.729,-58.173 190.863,-57.735 190.044,-57.214 189.281,-56.616 188.579,-55.947 187.946,-55.211 187.388,-54.418 186.911,-53.573 186.518,-52.686 186.215,-51.765 186.003,-50.819 185.884,-49.856 185.86,-48.886 185.931,-47.918 186.097,-46.963 186.355,-46.027 186.704,-45.122 187.139,-44.255 187.658,-43.436 188.254,-42.67 188.922,-41.967 193.592,-37.884 197.903,-34.746 201.835,-32.392 205.388,-30.675 208.583,-29.47 211.671,-28.623 214.219,-28.173 216.511,-27.979 218.581,-27.989 220.458,-28.167 222.171,-28.486 223.906,-28.984 225.482,-29.61 226.922,-30.351 228.352,-31.265 229.712,-32.321 231.054,-33.572 232.377,-35.044 233.672,-36.77 234.924,-38.783 236.104,-41.111 237.169,-43.77 238.101,-46.891 238.747,-50.12 239.103,-53.491 239.145,-56.954 238.861,-60.532 238.585,-62.379 238.094,-64.387 237.686,-66.416 236.988,-71.669 236.749,-76.836 236.957,-81.928 237.263,-84.336 237.534,-85.566 237.79,-86.364 238.094,-87.08 238.498,-87.832 239.001,-88.589 239.675,-89.437 240.979,-90.809 243.99,-93.454 249.966,-98.1 350.292,-98.1 344.118,-93.3 341.117,-90.665 339.826,-89.305 339.163,-88.471 338.67,-87.73 338.274,-86.994 337.978,-86.294 337.728,-85.514 337.461,-84.302 337.157,-81.912 336.949,-76.836 337.188,-71.687 337.884,-66.448 338.29,-64.431 338.781,-62.417 339.059,-60.554 339.345,-56.96 339.303,-53.479 338.945,-50.09 338.295,-46.843 337.358,-43.704 336.286,-41.029 335.098,-38.685 333.838,-36.656 332.531,-34.916 331.196,-33.432 329.842,-32.169 328.468,-31.101 327.022,-30.177 325.564,-29.428 323.97,-28.794 322.217,-28.292 320.486,-27.969 318.591,-27.789 316.503,-27.779 314.193,-27.975 311.627,-28.427 308.521,-29.28 305.31,-30.491 301.74,-32.216 297.793,-34.58 293.467,-37.728 288.784,-41.823 288.102,-42.54 287.494,-43.32 286.965,-44.157 286.521,-45.041 286.165,-45.965 285.901,-46.919 285.733,-47.894 285.66,-48.882 285.684,-49.87 285.805,-50.853 286.022,-51.819 286.332,-52.758 286.732,-53.663 287.218,-54.524 287.788,-55.335 288.433,-56.085 289.15,-56.768 289.928,-57.378 290.764,-57.909 291.647,-58.355 292.569,-58.713 293.523,-58.979 294.498,-59.15 295.484,-59.225 296.474,-59.204 297.457,-59.085 298.422,-58.871 299.364,-58.564 300.266,-58.166 310.13,-53.675 313.766,-52.41 315.612,-51.933 316.931,-51.699 317.87,-51.613 318.563,-51.609 319.093,-51.652 319.51,-51.723 319.846,-51.812 320.126,-51.912 320.379,-52.032 320.58,-52.151 320.756,-52.277 320.927,-52.427 321.076,-52.585 321.207,-52.756 321.327,-52.943 321.444,-53.171 321.545,-53.418 321.633,-53.71 321.708,-54.057 321.762,-54.473 321.785,-55.119 321.744,-55.826 321.593,-56.846 321.259,-58.208 320.64,-59.997 319.797,-61.884 318.574,-64.107 316.997,-66.443 315.225,-68.58 313.368,-70.426 311.258,-72.162 308.971,-73.714 306.431,-75.118 303.614,-76.36 300.49,-77.414 297.041,-78.243 293.256,-78.799 291.106,-78.954 287.912,-78.954 285.055,-78.699 282.501,-78.237 280.212,-77.61 278.148,-76.839 276.276,-75.94 274.375,-74.795 272.661,-73.515 271.136,-72.125 269.71,-70.556 268.356,-68.767 267.005,-66.617 265.69,-64.058 264.461,-61.047 263.39,-57.577 262.561,-53.684 262.074,-49.631 262.039,-49.125 261.962,-45.061 262.041,-43.335 261.451,-36.815 260.015,-29.027 257.534,-19.814 256.472,-16.405 255.813,-14.721 255.185,-13.446 254.515,-12.343 253.66,-11.198 252.685,-10.126 251.491,-9.032 250.034,-7.9 149.708,-7.9" fill="none" stroke="black" stroke-width="0.1mm" />
<polyline points="172.533,17.531 174.263,16.239 176.181,15.084 178.07,14.177 180.15,13.4 182.457,12.767 185.028,12.303 187.904,12.046 191.114,12.046 193.278,12.203 197.079,12.761 200.546,13.594 203.686,14.654 206.52,15.902 209.075,17.316 211.378,18.878 213.502,20.626 215.373,22.484 217.157,24.637 218.744,26.989 219.977,29.226 220.826,31.129 221.451,32.936 221.789,34.316 221.944,35.354 221.985,36.079 221.962,36.743 221.906,37.177 221.828,37.54 221.733,37.849 221.626,38.113 221.501,38.357 221.371,38.56 221.228,38.745 221.066,38.917 220.88,39.079 220.69,39.217 220.473,39.344 220.203,39.472 219.906,39.58 219.552,39.673 219.117,39.746 218.571,39.791 217.86,39.787 216.905,39.699 215.57,39.463 213.708,38.982 210.056,37.711 200.184,33.216 199.292,32.824 198.37,32.523 197.423,32.313 196.46,32.196 195.49,32.175 194.523,32.248 193.567,32.417 192.633,32.677 191.729,33.027 190.863,33.465 190.044,33.986 189.281,34.584 188.579,35.253 187.946,35.989 187.388,36.782 186.911,37.627 186.518,38.514 186.215,39.435 186.003,40.381 185.884,41.344 185.86,42.314 185.931,43.282 186.097,44.237 186.355,45.173 186.704,46.078 187.139,46.945 187.658,47.764 188.254,48.53 188.922,49.233 193.592,53.316 197.903,56.454 201.835,58.808 205.388,60.525 208.583,61.73 211.671,62.577 214.219,63.027 216.511,63.221 218.581,63.211 220.458,63.033 222.171,62.714 223.906,62.216 225.482,61.59 226.922,60.849 228.352,59.935 229.712,58.879 231.054,57.628 232.377,56.156 233.672,54.43 234.924,52.417 236.104,50.089 237.169,47.43 238.101,44.309 238.747,41.08 239.103,37.709 239.145,34.246 238.861,30.668 238.585,28.821 238.094,26.813 237.686,24.784 236.988,19.531 236.749,14.364 236.957,9.272 237.263,6.864 237.534,5.634 237.79,4.836 238.094,4.12 238.498,3.368 239.001,2.611 239.675,1.763 240.979,0.391 243.99,-2.254 249.966,-6.9 350.292,-6.9 344.118,-2.1 341.117,0.535 339.826,1.895 339.163,2.729 338.67,3.47 338.274,4.206 337.978,4.906 337.728,5.686 337.461,6.898 337.157,9.288 336.949,14.364 337.188,19.513 337.884,24.752 338.29,26.769 338.781,28.783 339.059,30.646 339.345,34.24 339.303,37.721 338.945,41.11 338.295,44.357 337.358,47.496 336.286,50.171 335.098,52.515 333.838,54.544 332.531,56.284 331.196,57.768 329.842,59.031 328.468,60.099 327.022,61.023 325.564,61.772 323.97,62.406 322.217,62.908 320.486,63.231 318.591,63.411 316.503,63.421 314.193,63.225 311.627,62.773 308.521,61.92 305.31,60.709 301.74,58.984 297.793,56.62 293.467,53.472 288.784,49.377 288.102,48.66 287.494,47.88 286.965,47.043 286.521,46.159 286.165,45.235 285.901,44.281 285.733,43.306 285.66,42.318 285.684,41.33 285.805,40.347 286.022,39.381 286.332,38.442 286.732,37.537 287.218,36.676 287.788,35.865 288.433,35.115 289.15,34.432 289.928,33.822 290.764,33.291 291.647,32.845 292.569,32.487 293.523,32.221 294.498,32.05 295.484,31.975 296.474,31.996 297.457,32.115 298.422,32.329 299.364,32.636 300.266,33.034 310.13,37.525 313.766,38.79 315.612,39.267 316.931,39.501 317.87,39.587 318.563,39.591 319.093,39.548 319.51,39.477 319.846,39.388 320.126,39.288 320.379,39.168 320.58,39.049 320.756,38.923 320.927,38.773 321.076,38.615 321.207,38.444 321.327,38.257 321.444,38.029 321.545,37.782 321.633,37.49 321.708,37.143 321.762,36.727 321.785,36.081 321.744,35.374 321.593,34.354 321.259,32.992 320.64,31.203 319.797,29.316 318.574,27.093 316.997,24.757 315.225,22.62 313.368,20.774 311.258,19.038 308.971,17.486 306.431,16.082 303.614,14.84 300.49,13.786 297.041,12.957 293.256,12.401 291.106,12.246 287.912,12.246 285.055,12.501 282.501,12.963 280.212,13.59 278.148,14.361 276.276,15.26 274.375,16.405 272.661,17.685 271.136,19.075 269.71,20.644 268.356,22.433 267.005,24.583 265.69,27.142 264.461,30.153 263.39,33.623 262.561,37.516 262.074,41.569 262.039,42.075 261.962,46.139 262.041,47.865 261.451,54.385 260.015,62.173 257.534,71.386 256.472,74.795 255.813,76.479 255.185,77.754 254.515,78.857 253.66,80.002 252.685,81.074 251.491,82.168 250.034,83.3 149.708,83.3 151.362,82.015 152.543,80.932 153.506,79.874 154.349,78.745 155.009,77.658 155.629,76.399 156.284,74.729 157.342,71.33 159.819,62.129 161.253,54.357 161.841,47.861 161.762,46.141 161.839,42.067 161.874,41.551 162.363,37.484 163.196,33.573 164.273,30.085 165.508,27.058 166.831,24.483 168.192,22.319 169.556,20.516 170.994,18.933 172.533,17.531" fill="none" stroke="black" stroke-width="0.1mm" />
<polyline points="185.028,103.503 187.904,103.246 191.114,103.246 193.278,103.403 197.079,103.961 200.546,104.794 203.686,105.854 206.52,107.102 209.075,108.516 211.378,110.078 213.502,111.826 215.373,113.684 217.157,115.837 218.744,118.189 219.977,120.426 220.826,122.329 221.451,124.136 221.789,125.516 221.944,126.554 221.985,127.279 221.962,127.943 221.906,128.377 221.827,128.74 221.733,129.048 221.626,129.313 221.501,129.557 221.371,129.76 221.228,129.945 221.066,130.117 220.88,130.279 220.69,130.417 220.473,130.544 220.203,130.672 219.906,130.78 219.552,130.873 219.117,130.946 218.571,130.991 217.86,130.987 216.905,130.899 215.57,130.663 213.708,130.182 210.056,128.911 200.184,124.416 199.292,124.024 198.37,123.723 197.423,123.513 196.46,123.396 195.49,123.375 194.523,123.448 193.567,123.617 192.633,123.877 191.729,124.227 190.863,124.665 190.044,125.186 189.281,125.784 188.579,126.453 187.946,127.189 187.388,127.982 186.911,128.827 186.519,129.714 186.215,130.635 186.003,131.581 185.884,132.544 185.86,133.514 185.931,134.482 186.097,135.437 186.355,136.373 186.704,137.278 187.139,138.145 187.658,138.964 188.254,139.73 188.922,140.433 193.592,144.516 197.903,147.654 201.835,150.008 205.388,151.725 208.583,152.93 211.671,153.777 214.219,154.227 216.511,154.421 218.581,154.411 220.458,154.233 222.171,153.914 223.906,153.416 225.482,152.79 226.922,152.049 228.352,151.135 229.712,150.079 231.054,148.828 232.377,147.356 233.672,145.63 234.924,143.617 236.104,141.289 237.169,138.63 238.101,135.509 238.747,132.28 239.103,128.909 239.145,125.446 238.861,121.868 238.585,120.021 238.094,118.013 237.686,115.984 236.988,110.731 236.749,105.564 236.957,100.472 237.263,98.064 237.534,96.834 237.79,96.036 238.094,95.32 238.498,94.568 239.001,93.811 239.675,92.963 240.979,91.591 243.99,88.946 249.966,84.3 350.292,84.3 344.118,89.1 341.117,91.735 339.826,93.095 339.163,93.929 338.67,94.67 338.274,95.406 337.978,96.106 337.728,96.886 337.461,98.098 337.157,100.488 336.949,105.564 337.188,110.713 337.884,115.952 338.29,117.969 338.781,119.983 339.059,121.846 339.345,125.44 339.303,128.921 338.945,132.31 338.295,135.557 337.358,138.696 336.286,141.371 335.098,143.715 333.838,145.744 332.531,147.484 331.196,148.968 329.842,150.231 328.468,151.299 327.022,152.223 325.564,152.972 323.97,153.606 322.217,154.108 320.486,154.431 318.591,154.611 316.503,154.621 314.193,154.425 311.627,153.973 308.521,153.12 305.31,151.909 301.74,150.184 297.793,147.82 293.467,144.672 288.784,140.577 288.102,139.86 287.494,139.08 286.965,138.243 286.521,137.359 286.165,136.435 285.901,135.481 285.733,134.506 285.66,133.518 285.684,132.53 285.805,131.547 286.022,130.581 286.332,129.642 286.732,128.737 287.218,127.876 287.788,127.065 288.433,126.315 289.15,125.632 289.928,125.022 290.764,124.491 291.647,124.045 292.57,123.687 293.523,123.421 294.498,123.25 295.484,123.175 296.474,123.196 297.457,123.315 298.422,123.529 299.364,123.836 300.266,124.234 310.13,128.725 313.766,129.99 315.612,130.467 316.931,130.701 317.87,130.787 318.563,130.791 319.093,130.748 319.51,130.677 319.846,130.588 320.126,130.488 320.379,130.368 320.58,130.249 320.756,130.123 320.927,129.973 321.076,129.815 321.207,129.644 321.327,129.457 321.444,129.229 321.545,128.982 321.633,128.69 321.708,128.343 321.762,127.927 321.785,127.281 321.744,126.574 321.593,125.554 321.259,124.192 320.64,122.403 319.797,120.516 318.574,118.293 316.997,115.957 315.225,113.82 313.368,111.974 311.258,110.238 308.971,108.686 306.431,107.282 303.614,106.04 300.49,104.986 297.041,104.157 293.256,103.601 291.106,103.446 287.912,103.446 285.055,103.701 282.501,104.163 280.212,104.79 278.148,105.561 276.276,106.46 274.375,107.605 272.661,108.885 271.136,110.275 269.71,111.844 268.356,113.633 267.005,115.783 265.69,118.342 264.461,121.353 263.39,124.823 262.561,128.716 262.074,132.769 262.039,133.275 261.962,137.339 262.041,139.065 261.451,145.585 260.016,153.373 257.534,162.586 256.472,165.995 255.813,167.679 255.185,168.954 254.515,170.057 253.66,171.202 252.685,172.274 251.491,173.368 250.034,174.5 149.708,174.5 151.362,173.215 152.543,172.132 153.506,171.074 154.349,169.945 155.009,168.858 155.629,167.599 156.284,165.929 157.342,162.53 159.819,153.329 161.253,145.557 161.841,139.061 161.762,137.341 161.839,133.267 161.874,132.751 162.363,128.684 163.196,124.773 164.273,121.285 165.508,118.258 166.831,115.683 168.192,113.519 169.556,111.716 170.994,110.133 172.533,108.731 174.263,107.439 176.181,106.284 178.07,105.377 180.15,104.6 182.457,103.967 185.028,103.503" fill="none" stroke="black" stroke-width="0.1mm" />
<polyline points="187.904,194.446 191.114,194.446 193.278,194.603 197.079,195.161 200.546,195.994 203.686,197.054 206.52,198.302 209.075,199.716 211.378,201.278 213.502,203.026 215.373,204.884 217.157,207.037 218.744,209.389 219.977,211.626 220.826,213.529 221.451,215.336 221.789,216.716 221.944,217.754 221.985,218.479 221.962,219.143 221.906,219.577 221.827,219.94 221.733,220.248 221.626,220.513 221.501,220.757 221.371,220.96 221.228,221.145 221.066,221.317 220.88,221.479 220.69,221.617 220.473,221.744 220.203,221.872 219.906,221.98 219.552,222.073 219.117,222.146 218.571,222.191 217.86,222.187 216.905,222.099 215.57,221.863 213.708,221.382 210.056,220.111 200.184,215.616 199.292,215.224 198.37,214.923 197.423,214.713 196.46,214.596 195.49,214.575 194.523,214.648 193.567,214.817 192.633,215.077 191.729,215.427 190.863,215.865 190.044,216.386 189.281,216.984 188.579,217.653 187.946,218.389 187.388,219.182 186.911,220.027 186.519,220.914 186.215,221.835 186.003,222.781 185.884,223.744 185.86,224.714 185.931,225.682 186.097,226.637 186.355,227.573 186.704,228.478 187.139,229.345 187.658,230.164 188.254,230.93 188.922,231.633 193.592,235.716 197.903,238.854 201.835,241.208 205.388,242.925 208.583,244.13 211.671,244.977 214.219,245.427 216.511,245.621 218.581,245.611 220.458,245.433 222.171,245.114 223.906,244.616 225.482,243.99 226.922,243.249 228.352,242.335 229.712,241.279 231.054,240.028 232.377,238.556 233.672,236.83 234.924,234.817 236.104,232.489 237.169,229.83 238.101,226.709 238.747,223.48 239.103,220.109 239.145,216.646 238.861,213.068 238.585,211.221 238.094,209.213 237.686,207.184 236.988,201.931 236.749,196.764 236.957,191.672 237.263,189.264 237.534,188.034 237.79,187.236 238.094,186.52 238.498,185.768 239.001,185.011 239.675,184.163 240.979,182.791 243.99,180.146 249.966,175.5 350.292,175.5 344.118,180.3 341.117,182.935 339.826,184.295 339.163,185.129 338.67,185.87 338.274,186.606 337.978,187.306 337.728,188.086 337.461,189.298 337.157,191.688 336.949,196.764 337.188,201.913 337.884,207.152 338.29,209.169 338.781,211.183 339.059,213.046 339.345,216.64 339.303,220.121 338.945,223.51 338.295,226.757 337.358,229.896 336.286,232.571 335.098,234.915 333.838,236.944 332.531,238.684 331.196,240.168 329.842,241.431 328.468,242.499 327.022,243.423 325.564,244.172 323.97,244.806 322.217,245.308 320.486,245.631 318.591,245.811 316.503,245.821 314.193,245.625 311.627,245.173 308.521,244.32 305.31,243.109 301.74,241.384 297.793,239.02 293.467,235.872 288.784,231.777 288.102,231.06 287.494,230.28 286.965,229.443 286.521,228.559 286.165,227.635 285.901,226.681 285.733,225.706 285.66,224.718 285.684,223.73 285.805,222.747 286.022,221.781 286.332,220.842 286.732,219.937 287.218,219.076 287.788,218.265 288.433,217.515 289.15,216.832 289.928,216.222 290.764,215.691 291.647,215.245 292.57,214.887 293.523,214.621 294.498,214.45 295.484,214.375 296.474,214.396 297.457,214.515 298.422,214.729 299.364,215.036 300.266,215.434 310.13,219.925 313.766,221.19 315.612,221.667 316.931,221.901 317.87,221.987 318.563,221.991 319.093,221.948 319.51,221.877 319.846,221.788 320.126,221.688 320.379,221.568 320.58,221.449 320.756,221.323 320.927,221.173 321.076,221.015 321.207,220.844 321.327,220.657 321.444,220.429 321.545,220.182 321.633,219.89 321.708,219.543 321.762,219.127 321.785,218.481 321.744,217.774 321.593,216.754 321.259,215.392 320.64,213.603 319.797,211.716 318.574,209.493 316.997,207.157 315.225,205.02 313.368,203.174 311.258,201.438 308.971,199.886 306.431,198.482 303.614,197.24 300.49,196.186 297.041,195.357 293.256,194.801 291.106,194.646 287.912,194.646 285.055,194.901 282.501,195.363 280.212,195.99 278.148,196.761 276.276,197.66 274.375,198.805 272.661,200.085 271.136,201.475 269.71,203.044 268.356,204.833 267.005,206.983 265.69,209.542 264.461,212.553 263.39,216.023 262.561,219.916 262.074,223.969 262.039,224.475 261.962,228.539 262.041,230.265 261.451,236.785 260.016,244.573 257.534,253.786 256.472,257.195 255.813,258.879 255.185,260.154 254.515,261.257 253.66,262.402 252.685,263.474 251.491,264.568 250.034,265.7 149.708,265.7 151.362,264.415 152.543,263.332 153.506,262.274 154.349,261.145 155.009,260.058 155.629,258.799 156.284,257.129 157.342,253.73 159.819,244.529 161.253,236.757 161.841,230.261 161.762,228.541 161.839,224.467 161.874,223.951 162.363,219.884 163.196,215.973 164.273,212.485 165.508,209.458 166.831,206.883 168.192,204.719 169.556,202.916 170.994,201.333 172.533,199.931 174.263,198.639 176.181,197.484 178.07,196.577 180.15,195.8 182.457,195.167 185.028,194.703 187.904,194.446" fill="none" stroke="black" stroke-width="0.1mm" />
<polyline points="187.904,285.646 191.114,285.646 193.278,285.803 197.079,286.361 200.546,287.194 203.686,288.254 206.52,289.502 209.075,290.916 211.378,292.478 213.502,294.226 215.373,296.084 217.157,298.237 218.744,300.589 219.977,302.826 220.826,304.729 221.451,306.536 221.789,307.916 221.944,308.954 221.985,309.679 221.962,310.343 221.906,310.777 221.827,311.14 221.733,311.448 221.626,311.713 221.5,311.957 221.371,312.159 221.228,312.345 221.066,312.517 220.88,312.679 220.69,312.817 220.473,312.944 220.203,313.072 219.906,313.18 219.552,313.273 219.118,313.346 218.571,313.391 217.86,313.387 216.905,313.299 215.57,313.063 213.708,312.582 210.056,311.311 200.184,306.816 199.292,306.424 198.37,306.123 197.423,305.913 196.46,305.796 195.49,305.775 194.523,305.848 193.567,306.017 192.633,306.277 191.729,306.627 190.863,307.065 190.044,307.586 189.281,308.184 188.579,308.853 187.946,309.589 187.388,310.382 186.911,311.227 186.519,312.114 186.215,313.035 186.003,313.981 185.884,314.944 185.86,315.914 185.931,316.882 186.097,317.837 186.355,318.773 186.704,319.678 187.139,320.545 187.658,321.364 188.254,322.13 188.922,322.833 193.592,326.916 197.903,330.054 201.835,332.408 205.388,334.125 208.583,335.33 211.671,336.177 214.219,336.627 216.511,336.821 218.581,336.811 220.458,336.633 222.171,336.314 223.906,335.816 225.482,335.19 226.922,334.449 228.352,333.535 229.712,332.479 231.054,331.228 232.377,329.756 233.673,328.03 234.924,326.017 236.104,323.689 237.169,321.03 238.101,317.909 238.747,314.68 239.103,311.309 239.145,307.846 238.861,304.268 238.585,302.421 238.094,300.413 237.686,298.384 236.988,293.131 236.749,287.964 236.957,282.872 237.263,280.464 237.534,279.234 237.79,278.436 238.094,277.72 238.498,276.968 239.001,276.211 239.675,275.363 240.979,273.991 243.99,271.346 249.966,266.7 350.292,266.7 344.118,271.5 341.117,274.135 339.826,275.495 339.163,276.329 338.67,277.07 338.274,277.806 337.978,278.506 337.728,279.286 337.461,280.498 337.157,282.888 336.949,287.964 337.188,293.113 337.884,298.352 338.29,300.369 338.781,302.383 339.059,304.246 339.345,307.84 339.303,311.321 338.945,314.71 338.295,317.957 337.358,321.096 336.286,323.771 335.098,326.115 333.838,328.144 332.531,329.884 331.196,331.368 329.842,332.631 328.468,333.699 327.022,334.623 325.565,335.372 323.97,336.006 322.217,336.508 320.486,336.831 318.591,337.011 316.503,337.021 314.193,336.825 311.627,336.373 308.521,335.52 305.31,334.309 301.74,332.584 297.793,330.22 293.467,327.072 288.784,322.977 288.102,322.26 287.494,321.48 286.965,320.643 286.521,319.759 286.165,318.835 285.901,317.881 285.733,316.906 285.66,315.918 285.684,314.93 285.805,313.947 286.022,312.981 286.332,312.042 286.732,311.137 287.218,310.276 287.788,309.465 288.433,308.715 289.15,308.032 289.928,307.422 290.764,306.891 291.647,306.445 292.57,306.087 293.523,305.821 294.498,305.65 295.484,305.575 296.474,305.596 297.457,305.715 298.422,305.929 299.364,306.236 300.266,306.634 310.13,311.125 313.766,312.39 315.612,312.867 316.931,313.101 317.87,313.187 318.563,313.191 319.093,313.148 319.51,313.077 319.846,312.988 320.126,312.888 320.379,312.768 320.58,312.649 320.756,312.523 320.927,312.373 321.076,312.215 321.207,312.044 321.327,311.857 321.444,311.629 321.545,311.381 321.634,311.09 321.708,310.743 321.762,310.327 321.785,309.681 321.744,308.974 321.593,307.954 321.259,306.592 320.64,304.803 319.797,302.916 318.574,300.693 316.997,298.357 315.225,296.22 313.368,294.374 311.258,292.638 308.971,291.086 306.431,289.682 303.614,288.44 300.49,287.386 297.041,286.557 293.256,286.001 291.106,285.846 287.912,285.846 285.055,286.101 282.501,286.563 280.212,287.19 278.148,287.961 276.276,288.86 274.375,290.005 272.661,291.285 271.136,292.675 269.71,294.244 268.356,296.033 267.005,298.183 265.69,300.742 264.461,303.753 263.39,307.223 262.561,311.116 262.074,315.169 262.039,315.675 261.962,319.739 262.041,321.465 261.451,327.985 260.015,335.773 257.534,344.986 256.472,348.395 255.813,350.079 255.185,351.354 254.515,352.457 253.66,353.602 252.685,354.674 251.491,355.768 250.034,356.9 149.708,356.9 151.362,355.615 152.543,354.532 153.506,353.474 154.349,352.345 155.01,351.258 155.63,349.999 156.284,348.329 157.342,344.93 159.82,335.729 161.253,327.957 161.841,321.461 161.762,319.741 161.839,315.667 161.874,315.151 162.363,311.084 163.196,307.173 164.273,303.685 165.508,300.658 166.831,298.083 168.192,295.919 169.556,294.116 170.994,292.533 172.533,291.131 174.263,289.839 176.181,288.684 178.07,287.777 180.15,287 182.457,286.367 185.028,285.903 187.904,285.646" fill="none" stroke="black" stroke-width="0.1mm" />
<polyline points="187.904,376.846 191.114,376.846 193.278,377.003 197.079,377.561 200.546,378.394 203.686,379.454 206.52,380.702 209.075,382.116 211.378,383.678 213.502,385.426 215.373,387.284 217.157,389.437 218.744,391.789 219.977,394.026 220.826,395.929 221.451,397.736 221.789,399.116 221.944,400.154 221.985,400.879 221.962,401.543 221.906,401.977 221.827,402.34 221.733,402.648 221.626,402.913 221.5,403.157 221.371,403.359 221.228,403.545 221.066,403.717 220.88,403.879 220.69,404.017 220.473,404.144 220.203,404.272 219.906,404.38 219.552,404.473 219.118,404.546 218.571,404.591 217.86,404.587 216.905,404.499 215.57,404.263 213.708,403.782 210.056,402.511 200.184,398.016 199.292,397.624 198.37,397.323 197.423,397.113 196.46,396.996 195.49,396.975 194.523,397.048 193.567,397.217 192.633,397.477 191.729,397.827 190.863,398.265 190.044,398.786 189.281,399.384 188.579,400.053 187.946,400.789 187.388,401.582 186.911,402.427 186.519,403.314 186.215,404.235 186.003,405.181 185.884,406.144 185.86,407.114 185.931,408.082 186.097,409.037 186.355,409.973 186.704,410.878 187.139,411.745 187.658,412.564 188.254,413.33 188.922,414.033 193.592,418.116 197.903,421.254 201.835,423.608 205.388,425.325 208.583,426.53 211.671,427.377 214.219,427.827 216.511,428.021 218.581,428.011 220.458,427.833 222.171,427.514 223.906,427.016 225.482,426.39 226.922,425.649 228.352,424.735 229.712,423.679 231.054,422.428 232.377,420.956 233.673,419.23 234.924,417.217 236.104,414.889 237.169,412.23 238.101,409.109 238.747,405.88 239.103,402.509 239.145,399.046 238.861,395.468 238.585,393.621 238.094,391.613 237.686,389.584 236.988,384.331 236.749,379.164 236.957,374.072 237.263,371.664 237.534,370.434 237.79,369.636 238.094,368.92 238.498,368.168 239.001,367.411 239.675,366.563 240.979,365.191 243.99,362.546 249.966,357.9 350.292,357.9 344.118,362.7 341.117,365.335 339.826,366.695 339.163,367.529 338.67,368.27 338.274,369.006 337.978,369.706 337.728,370.486 337.461,371.698 337.157,374.088 336.949,379.164 337.188,384.313 337.884,389.552 338.29,391.569 338.781,393.583 339.059,395.446 339.345,399.04 339.303,402.521 338.945,405.91 338.295,409.157 337.358,412.296 336.286,414.971 335.098,417.315 333.838,419.344 332.531,421.084 331.196,422.568 329.842,423.831 328.468,424.899 327.022,425.823 325.565,426.572 323.97,427.206 322.217,427.708 320.486,428.031 318.591,428.211 316.503,428.221 314.193,428.025 311.627,427.573 308.521,426.72 305.31,425.509 301.74,423.784 297.793,421.42 293.467,418.272 288.784,414.177 288.102,413.46 287.494,412.68 286.965,411.843 286.521,410.959 286.165,410.035 285.901,409.081 285.733,408.106 285.66,407.118 285.684,406.13 285.805,405.147 286.022,404.181 286.332,403.242 286.732,402.337 287.218,401.476 287.788,400.665 288.433,399.915 289.15,399.232 289.928,398.622 290.764,398.091 291.647,397.645 292.57,397.287 293.523,397.021 294.498,396.85 295.484,396.775 296.474,396.796 297.457,396.915 298.422,397.129 299.364,397.436 300.266,397.834 310.13,402.325 313.766,403.59 315.612,404.067 316.931,404.301 317.87,404.387 318.563,404.391 319.093,404.348 319.51,404.277 319.846,404.188 320.126,404.088 320.379,403.968 320.58,403.849 320.756,403.723 320.927,403.573 321.076,403.415 321.207,403.244 321.327,403.057 321.444,402.829 321.545,402.581 321.634,402.29 321.708,401.943 321.762,401.527 321.785,400.881 321.744,400.174 321.593,399.154 321.259,397.792 320.64,396.003 319.797,394.116 318.574,391.893 316.997,389.557 315.225,387.42 313.368,385.574 311.258,383.838 308.971,382.286 306.431,380.882 303.614,379.64 300.49,378.586 297.041,377.757 293.256,377.201 291.106,377.046 287.912,377.046 285.055,377.301 282.501,377.763 280.212,378.39 278.148,379.161 276.276,380.06 274.375,381.205 272.661,382.485 271.136,383.875 269.71,385.444 268.356,387.233 267.005,389.383 265.69,391.942 264.461,394.953 263.39,398.423 262.561,402.316 262.074,406.369 262.039,406.875 261.962,410.939 262.041,412.665 261.451,419.185 260.015,426.973 257.534,436.186 256.472,439.595 255.813,441.279 255.185,442.554 254.515,443.657 253.66,444.802 252.685,445.874 251.491,446.968 250.034,448.1 149.708,448.1 151.362,446.815 152.543,445.732 153.506,444.674 154.349,443.545 155.01,442.458 155.63,441.199 156.284,439.529 157.342,436.13 159.82,426.929 161.253,419.157 161.841,412.661 161.762,410.941 161.839,406.867 161.874,406.351 162.363,402.284 163.196,398.373 164.273,394.885 165.508,391.858 166.831,389.283 168.192,387.119 169.556,385.316 170.994,383.733 172.533,382.331 174.263,381.039 176.181,379.884 178.07,378.977 180.15,378.2 182.457,377.567 185.028,377.103 187.904,376.846" fill="none" stroke="black" stroke-width="0.1mm" />
<polyline points="351.292,356.9 352.945,355.615 354.126,354.532 355.089,353.474 355.932,352.345 356.594,351.258 357.213,349.999 357.867,348.329 358.925,344.93 361.404,335.729 362.836,327.957 363.424,321.461 363.345,319.741 363.422,315.667 363.458,315.151 363.947,311.084 364.779,307.173 365.856,303.685 367.091,300.658 368.414,298.083 369.775,295.919 371.139,294.116 372.577,292.533 374.117,291.131 375.846,289.839 377.764,288.684 379.653,287.777 381.734,287 384.04,286.367 386.611,285.903 389.487,285.646 392.697,285.646 394.861,285.803 398.662,286.361 402.129,287.194 405.27,288.254 408.103,289.502 410.659,290.916 412.961,292.478 415.085,294.226 416.956,296.084 418.74,298.237 420.328,300.589 421.56,302.826 422.409,304.729 423.034,306.536 423.373,307.916 423.527,308.954 423.568,309.679 423.545,310.343 423.489,310.777 423.41,311.14 423.317,311.448 423.209,311.713 423.083,311.957 422.954,312.159 422.811,312.345 422.649,312.517 422.464,312.679 422.273,312.817 422.056,312.944 421.786,313.072 421.489,313.18 421.135,313.273 420.701,313.346 420.154,313.391 419.443,313.387 418.488,313.299 417.153,313.063 415.291,312.582 411.639,311.311 401.767,306.816 400.876,306.424 399.953,306.123 399.006,305.913 398.043,305.796 397.073,305.775 396.106,305.848 395.15,306.017 394.216,306.277 393.312,306.627 392.446,307.065 391.627,307.586 390.864,308.184 390.162,308.853 389.529,309.589 388.971,310.382 388.494,311.227 388.102,312.114 387.798,313.035 387.586,313.981 387.467,314.944 387.443,315.914 387.515,316.882 387.68,317.837 387.938,318.773 388.287,319.678 388.722,320.545 389.241,321.364 389.837,322.13 390.506,322.833 395.175,326.916 399.487,330.054 403.418,332.408 406.972,334.125 410.166,335.33 413.254,336.177 415.802,336.627 418.094,336.821 420.164,336.811 422.041,336.633 423.754,336.314 425.489,335.816 427.065,335.19 428.505,334.449 429.936,333.535 431.295,332.479 432.637,331.228 433.96,329.756 435.256,328.03 436.507,326.017 437.687,323.689 438.752,321.03 439.684,317.909 440.33,314.68 440.686,311.309 440.728,307.846 440.444,304.268 440.168,302.421 439.678,300.413 439.27,298.384 438.572,293.131 438.332,287.964 438.541,282.872 438.847,280.464 439.118,279.234 439.373,278.436 439.677,277.72 440.081,276.968 440.584,276.211 441.258,275.363 442.562,273.991 445.574,271.346 451.549,266.7 551.875,266.7 545.701,271.5 542.701,274.135 541.409,275.495 540.746,276.329 540.253,277.07 539.858,277.806 539.561,278.506 539.311,279.286 539.044,280.498 538.74,282.888 538.532,287.964 538.771,293.113 539.467,298.352 539.873,300.369 540.365,302.383 540.643,304.246 540.928,307.84 540.886,311.321 540.528,314.71 539.878,317.957 538.941,321.096 537.869,323.771 536.682,326.115 535.421,328.144 534.115,329.884 532.78,331.368 531.425,332.631 530.051,333.699 528.605,334.623 527.148,335.372 525.554,336.006 523.8,336.508 522.069,336.831 520.174,337.011 518.086,337.021 515.776,336.825 513.21,336.373 510.104,335.52 506.893,334.309 503.323,332.584 499.376,330.22 495.05,327.072 490.367,322.977 489.685,322.26 489.077,321.48 488.548,320.643 488.104,319.759 487.748,318.835 487.485,317.881 487.316,316.906 487.243,315.918 487.267,314.93 487.389,313.947 487.605,312.981 487.915,312.042 488.315,311.137 488.802,310.276 489.371,309.465 490.017,308.715 490.733,308.032 491.511,307.422 492.347,306.891 493.231,306.445 494.153,306.087 495.106,305.821 496.081,305.65 497.068,305.575 498.057,305.596 499.04,305.715 500.006,305.929 500.947,306.236 501.849,306.634 511.714,311.125 515.349,312.39 517.195,312.867 518.515,313.101 519.453,313.187 520.146,313.191 520.676,313.148 521.093,313.077 521.429,312.988 521.709,312.888 521.962,312.768 522.164,312.649 522.339,312.523 522.51,312.373 522.659,312.215 522.79,312.044 522.911,311.857 523.027,311.629 523.128,311.381 523.217,311.09 523.292,310.743 523.346,310.327 523.368,309.681 523.328,308.974 523.176,307.954 522.842,306.592 522.223,304.803 521.381,302.916 520.157,300.693 518.58,298.357 516.808,296.22 514.951,294.374 512.841,292.638 510.554,291.086 508.014,289.682 505.197,288.44 502.074,287.386 498.624,286.557 494.839,286.001 492.69,285.846 489.496,285.846 486.638,286.101 484.084,286.563 481.795,287.19 479.732,287.961 477.859,288.86 475.958,290.005 474.244,291.285 472.719,292.675 471.293,294.244 469.94,296.033 468.588,298.183 467.273,300.742 466.045,303.753 464.973,307.223 464.144,311.116 463.657,315.169 463.622,315.675 463.545,319.739 463.625,321.465 463.034,327.985 461.598,335.773 459.117,344.986 458.056,348.395 457.396,350.079 456.768,351.354 456.098,352.457 455.244,353.602 454.268,354.674 453.074,355.768 451.618,356.9 351.292,356.9" fill="none" stroke="black" stroke-width="0.1mm" />
<polyline points="374.117,382.331 375.846,381.039 377.764,379.884 379.653,378.977 381.734,378.2 384.04,377.567 386.611,377.103 389.487,376.846 392.697,376.846 394.861,377.003 398.662,377.561 402.129,378.394 405.27,379.454 408.103,380.702 410.659,382.116 412.961,383.678 415.085,385.426 416.956,387.284 418.74,389.437 420.328,391.789 421.56,394.026 422.409,395.929 423.034,397.736 423.373,399.116 423.527,400.154 423.568,400.879 423.545,401.543 423.489,401.977 423.41,402.34 423.317,402.648 423.209,402.913 423.083,403.157 422.954,403.359 422.811,403.545 422.649,403.717 422.464,403.879 422.273,404.017 422.056,404.144 421.786,404.272 421.489,404.38 421.135,404.473 420.701,404.546 420.154,404.591 419.443,404.587 418.488,404.499 417.153,404.263 415.291,403.782 411.639,402.511 401.767,398.016 400.876,397.624 399.953,397.323 399.006,397.113 398.043,396.996 397.073,396.975 396.106,397.048 395.15,397.217 394.216,397.477 393.312,397.827 392.446,398.265 391.627,398.786 390.864,399.384 390.162,400.053 389.529,400.789 388.971,401.582 388.494,402.427 388.102,403.314 387.798,404.235 387.586,405.181 387.467,406.144 387.443,407.114 387.515,408.082 387.68,409.037 387.938,409.973 388.287,410.878 388.722,411.745 389.241,412.564 389.837,413.33 390.506,414.033 395.175,418.116 399.487,421.254 403.418,423.608 406.972,425.325 410.166,426.53 413.254,427.377 415.802,427.827 418.094,428.021 420.164,428.011 422.041,427.833 423.754,427.514 425.489,427.016 427.065,426.39 428.505,425.649 429.936,424.735 431.295,423.679 432.637,422.428 433.96,420.956 435.256,419.23 436.507,417.217 437.687,414.889 438.752,412.23 439.684,409.109 440.33,405.88 440.686,402.509 440.728,399.046 440.444,395.468 440.168,393.621 439.678,391.613 439.27,389.584 438.572,384.331 438.332,379.164 438.541,374.072 438.847,371.664 439.118,370.434 439.373,369.636 439.677,368.92 440.081,368.168 440.584,367.411 441.258,366.563 442.562,365.191 445.574,362.546 451.549,357.9 551.875,357.9 545.701,362.7 542.701,365.335 541.409,366.695 540.746,367.529 540.253,368.27 539.858,369.006 539.561,369.706 539.311,370.486 539.044,371.698 538.74,374.088 538.532,379.164 538.771,384.313 539.467,389.552 539.873,391.569 540.365,393.583 540.643,395.446 540.928,399.04 540.886,402.521 540.528,405.91 539.878,409.157 538.941,412.296 537.869,414.971 536.682,417.315 535.421,419.344 534.115,421.084 532.78,422.568 531.425,423.831 530.051,424.899 528.605,425.823 527.148,426.572 525.554,427.206 523.8,427.708 522.069,428.031 520.174,428.211 518.086,428.221 515.776,428.025 513.21,427.573 510.104,426.72 506.893,425.509 503.323,423.784 499.376,421.42 495.05,418.272 490.367,414.177 489.685,413.46 489.077,412.68 488.548,411.843 488.104,410.959 487.748,410.035 487.485,409.081 487.316,408.106 487.243,407.118 487.267,406.13 487.389,405.147 487.605,404.181 487.915,403.242 488.315,402.337 488.802,401.476 489.371,400.665 490.017,399.915 490.733,399.232 491.511,398.622 492.347,398.091 493.231,397.645 494.153,397.287 495.106,397.021 496.081,396.85 497.068,396.775 498.057,396.796 499.04,396.915 500.006,397.129 500.947,397.436 501.849,397.834 511.714,402.325 515.349,403.59 517.195,404.067 518.515,404.301 519.453,404.387 520.146,404.391 520.676,404.348 521.093,404.277 521.429,404.188 521.709,404.088 521.962,403.968 522.164,403.849 522.339,403.723 522.51,403.573 522.659,403.415 522.79,403.244 522.911,403.057 523.027,402.829 523.128,402.581 523.217,402.29 523.292,401.943 523.346,401.527 523.368,400.881 523.328,400.174 523.176,399.154 522.842,397.792 522.223,396.003 521.381,394.116 520.157,391.893 518.58,389.557 516.808,387.42 514.951,385.574 512.841,383.838 510.554,382.286 508.014,380.882 505.197,379.64 502.074,378.586 498.624,377.757 494.839,377.201 492.69,377.046 489.496,377.046 486.638,377.301 484.084,377.763 481.795,378.39 479.732,379.161 477.859,380.06 475.958,381.205 474.244,382.485 472.719,383.875 471.293,385.444 469.94,387.233 468.588,389.383 467.273,391.942 466.045,394.953 464.973,398.423 464.144,402.316 463.657,406.369 463.622,406.875 463.545,410.939 463.625,412.665 463.034,419.185 461.598,426.973 459.117,436.186 458.056,439.595 457.396,441.279 456.768,442.554 456.098,443.657 455.244,444.802 454.268,445.874 453.074,446.968 451.618,448.1 351.292,448.1 352.945,446.815 354.126,445.732 355.089,444.674 355.932,443.545 356.594,442.458 357.213,441.199 357.867,439.529 358.925,436.13 361.404,426.929 362.836,419.157 363.424,412.661 363.345,410.941 363.422,406.867 363.458,406.351 363.947,402.284 364.779,398.373 365.856,394.885 367.091,391.858 368.414,389.283 369.775,387.119 371.139,385.316 372.577,383.733 374.117,382.331" fill="none" stroke="black" stroke-width="0.1mm" />
<polyline points="351.292,265.7 352.945,264.415 354.126,263.332 355.089,262.274 355.932,261.145 356.593,260.058 357.213,258.799 357.867,257.129 358.925,253.73 361.403,244.529 362.836,236.757 363.424,230.261 363.345,228.541 363.422,224.467 363.458,223.951 363.947,219.884 364.779,215.973 365.856,212.485 367.091,209.458 368.414,206.883 369.775,204.719 371.139,202.916 372.577,201.333 374.117,199.931 375.846,198.639 377.764,197.484 379.653,196.577 381.734,195.8 384.04,195.167 386.611,194.703 389.487,194.446 392.697,194.446 394.861,194.603 398.662,195.161 402.129,195.994 405.27,197.054 408.103,198.302 410.659,199.716 412.961,201.278 415.085,203.026 416.956,204.884 418.74,207.037 420.328,209.389 421.56,211.626 422.409,213.529 423.034,215.336 423.373,216.716 423.527,217.754 423.568,218.479 423.545,219.143 423.489,219.577 423.41,219.94 423.317,220.248 423.209,220.513 423.084,220.757 422.954,220.96 422.811,221.145 422.649,221.317 422.464,221.479 422.273,221.617 422.056,221.744 421.786,221.872 421.489,221.98 421.135,222.073 420.701,222.146 420.154,222.191 419.443,222.187 418.488,222.099 417.153,221.863 415.291,221.382 411.639,220.111 401.767,215.616 400.876,215.224 399.953,214.923 399.006,214.713 398.043,214.596 397.073,214.575 396.106,214.648 395.15,214.817 394.216,215.077 393.312,215.427 392.446,215.865 391.627,216.386 390.864,216.984 390.162,217.653 389.529,218.389 388.971,219.182 388.494,220.027 388.102,220.914 387.798,221.835 387.586,222.781 387.467,223.744 387.443,224.714 387.515,225.682 387.68,226.637 387.938,227.573 388.287,228.478 388.722,229.345 389.241,230.164 389.837,230.93 390.506,231.633 395.175,235.716 399.487,238.854 403.418,241.208 406.972,242.925 410.166,244.13 413.254,244.977 415.802,245.427 418.094,245.621 420.164,245.611 422.041,245.433 423.754,245.114 425.489,244.616 427.065,243.99 428.505,243.249 429.936,242.335 431.295,241.279 432.637,240.028 433.96,238.556 435.256,236.83 436.507,234.817 437.687,232.489 438.752,229.83 439.684,226.709 440.33,223.48 440.686,220.109 440.728,216.646 440.444,213.068 440.168,211.221 439.678,209.213 439.27,207.184 438.572,201.931 438.332,196.764 438.541,191.672 438.847,189.264 439.118,188.034 439.373,187.236 439.677,186.52 440.081,185.768 440.584,185.011 441.258,184.163 442.562,182.791 445.574,180.146 451.549,175.5 551.875,175.5 545.701,180.3 542.701,182.935 541.409,184.295 540.746,185.129 540.253,185.87 539.858,186.606 539.561,187.306 539.311,188.086 539.044,189.298 538.74,191.688 538.532,196.764 538.771,201.913 539.467,207.152 539.873,209.169 540.365,211.183 540.643,213.046 540.928,216.64 540.886,220.121 540.528,223.51 539.878,226.757 538.941,229.896 537.869,232.571 536.682,234.915 535.421,236.944 534.115,238.684 532.78,240.168 531.425,241.431 530.051,242.499 528.605,243.423 527.148,244.172 525.554,244.806 523.8,245.308 522.069,245.631 520.174,245.811 518.086,245.821 515.776,245.625 513.21,245.173 510.104,244.32 506.893,243.109 503.323,241.384 499.376,239.02 495.05,235.872 490.367,231.777 489.685,231.06 489.077,230.28 488.548,229.443 488.104,228.559 487.748,227.635 487.485,226.681 487.316,225.706 487.243,224.718 487.267,223.73 487.389,222.747 487.605,221.781 487.915,220.842 488.315,219.937 488.802,219.076 489.371,218.265 490.017,217.515 490.733,216.832 491.511,216.222 492.347,215.691 493.231,215.245 494.153,214.887 495.106,214.621 496.081,214.45 497.068,214.375 498.057,214.396 499.04,214.515 500.006,214.729 500.947,215.036 501.849,215.434 511.714,219.925 515.349,221.19 517.195,221.667 518.515,221.901 519.453,221.987 520.146,221.991 520.676,221.948 521.093,221.877 521.429,221.788 521.709,221.688 521.962,221.568 522.164,221.449 522.339,221.323 522.51,221.173 522.659,221.015 522.79,220.844 522.911,220.657 523.027,220.429 523.128,220.182 523.216,219.89 523.292,219.543 523.346,219.127 523.368,218.481 523.328,217.774 523.176,216.754 522.842,215.392 522.223,213.603 521.381,211.716 520.157,209.493 518.58,207.157 516.808,205.02 514.951,203.174 512.841,201.438 510.554,199.886 508.014,198.482 505.197,197.24 502.074,196.186 498.624,195.357 494.839,194.801 492.69,194.646 489.496,194.646 486.638,194.901 484.084,195.363 481.795,195.99 479.732,196.761 477.859,197.66 475.958,198.805 474.244,200.085 472.719,201.475 471.293,203.044 469.94,204.833 468.588,206.983 467.273,209.542 466.045,212.553 464.973,216.023 464.144,219.916 463.657,223.969 463.622,224.475 463.545,228.539 463.625,230.265 463.034,236.785 461.599,244.573 459.117,253.786 458.056,257.195 457.396,258.879 456.768,260.154 456.098,261.257 455.244,262.402 454.268,263.474 453.074,264.568 451.618,265.7 351.292,265.7" fill="none" stroke="black" stroke-width="0.1mm" />
<polyline points="351.292,174.5 352.945,173.215 354.126,172.132 355.089,171.074 355.932,169.945 356.593,168.858 357.213,167.599 357.867,165.929 358.925,162.53 361.403,153.329 362.836,145.557 363.424,139.061 363.345,137.341 363.422,133.267 363.458,132.751 363.947,128.684 364.779,124.773 365.856,121.285 367.091,118.258 368.414,115.683 369.775,113.519 371.139,111.716 372.577,110.133 374.117,108.731 375.846,107.439 377.764,106.284 379.653,105.377 381.734,104.6 384.04,103.967 386.611,103.503 389.487,103.246 392.697,103.246 394.861,103.403 398.662,103.961 402.129,104.794 405.27,105.854 408.103,107.102 410.659,108.516 412.961,110.078 415.085,111.826 416.956,113.684 418.74,115.837 420.328,118.189 421.56,120.426 422.409,122.329 423.034,124.136 423.373,125.516 423.527,126.554 423.568,127.279 423.545,127.943 423.489,128.377 423.41,128.74 423.317,129.048 423.209,129.313 423.084,129.557 422.954,129.76 422.811,129.945 422.649,130.117 422.464,130.279 422.273,130.417 422.056,130.544 421.786,130.672 421.489,130.78 421.135,130.873 420.701,130.946 420.154,130.991 419.443,130.987 418.488,130.899 417.153,130.663 415.291,130.182 411.639,128.911 401.767,124.416 400.876,124.024 399.953,123.723 399.006,123.513 398.043,123.396 397.073,123.375 396.106,123.448 395.15,123.617 394.216,123.877 393.312,124.227 392.446,124.665 391.627,125.186 390.864,125.784 390.162,126.453 389.529,127.189 388.971,127.982 388.494,128.827 388.102,129.714 387.798,130.635 387.586,131.581 387.467,132.544 387.443,133.514 387.515,134.482 387.68,135.437 387.938,136.373 388.287,137.278 388.722,138.145 389.241,138.964 389.837,139.73 390.506,140.433 395.175,144.516 399.487,147.654 403.418,150.008 406.972,151.725 410.166,152.93 413.254,153.777 415.802,154.227 418.094,154.421 420.164,154.411 422.041,154.233 423.754,153.914 425.489,153.416 427.065,152.79 428.505,152.049 429.936,151.135 431.295,150.079 432.637,148.828 433.96,147.356 435.256,145.63 436.507,143.617 437.687,141.289 438.752,138.63 439.684,135.509 440.33,132.28 440.686,128.909 440.728,125.446 440.444,121.868 440.168,120.021 439.678,118.013 439.27,115.984 438.572,110.731 438.332,105.564 438.541,100.472 438.847,98.064 439.118,96.834 439.373,96.036 439.677,95.32 440.081,94.568 440.584,93.811 441.258,92.963 442.562,91.591 445.574,88.946 451.549,84.3 551.875,84.3 545.701,89.1 542.701,91.735 541.409,93.095 540.746,93.929 540.253,94.67 539.858,95.406 539.561,96.106 539.311,96.886 539.044,98.098 538.74,100.488 538.532,105.564 538.771,110.713 539.467,115.952 539.873,117.969 540.365,119.983 540.643,121.846 540.928,125.44 540.886,128.921 540.528,132.31 539.878,135.557 538.941,138.696 537.869,141.371 536.682,143.715 535.421,145.744 534.115,147.484 532.78,148.968 531.425,150.231 530.051,151.299 528.605,152.223 527.148,152.972 525.554,153.606 523.8,154.108 522.069,154.431 520.174,154.611 518.086,154.621 515.776,154.425 513.21,153.973 510.104,153.12 506.893,151.909 503.323,150.184 499.376,147.82 495.05,144.672 490.367,140.577 489.685,139.86 489.077,139.08 488.548,138.243 488.104,137.359 487.748,136.435 487.485,135.481 487.316,134.506 487.243,133.518 487.267,132.53 487.389,131.547 487.605,130.581 487.915,129.642 488.315,128.737 488.802,127.876 489.371,127.065 490.017,126.315 490.733,125.632 491.511,125.022 492.347,124.491 493.231,124.045 494.153,123.687 495.106,123.421 496.081,123.25 497.068,123.175 498.057,123.196 499.04,123.315 500.006,123.529 500.947,123.836 501.849,124.234 511.714,128.725 515.349,129.99 517.195,130.467 518.515,130.701 519.453,130.787 520.146,130.791 520.676,130.748 521.093,130.677 521.429,130.588 521.709,130.488 521.962,130.368 522.164,130.249 522.339,130.123 522.51,129.973 522.659,129.815 522.79,129.644 522.911,129.457 523.027,129.229 523.128,128.982 523.216,128.69 523.292,128.343 523.346,127.927 523.368,127.281 523.328,126.574 523.176,125.554 522.842,124.192 522.223,122.403 521.381,120.516 520.157,118.293 518.58,115.957 516.808,113.82 514.951,111.974 512.841,110.238 510.554,108.686 508.014,107.282 505.197,106.04 502.074,104.986 498.624,104.157 494.839,103.601 492.69,103.446 489.496,103.446 486.638,103.701 484.084,104.163 481.795,104.79 479.732,105.561 477.859,106.46 475.958,107.605 474.244,108.885 472.719,110.275 471.293,111.844 469.94,113.633 468.588,115.783 467.273,118.342 466.045,121.353 464.973,124.823 464.144,128.716 463.657,132.769 463.622,133.275 463.545,137.339 463.625,139.065 463.034,145.585 461.599,153.373 459.117,162.586 458.056,165.995 457.396,167.679 456.768,168.954 456.098,170.057 455.244,171.202 454.268,172.274 453.074,173.368 451.618,174.5 351.292,174.5" fill="none" stroke="black" stroke-width="0.1mm" />
<polyline points="351.292,83.3 352.945,82.015 354.126,80.932 355.089,79.874 355.932,78.745 356.593,77.658 357.213,76.399 357.867,74.729 358.925,71.33 361.403,62.129 362.836,54.357 363.424,47.861 363.345,46.141 363.422,42.067 363.458,41.551 363.947,37.484 364.779,33.573 365.856,30.085 367.091,27.058 368.414,24.483 369.775,22.319 371.139,20.516 372.577,18.933 374.117,17.531 375.846,16.239 377.764,15.084 379.653,14.177 381.734,13.4 384.04,12.767 386.611,12.303 389.487,12.046 392.697,12.046 394.861,12.203 398.662,12.761 402.129,13.594 405.27,14.654 408.103,15.902 410.659,17.316 412.961,18.878 415.085,20.626 416.956,22.484 418.74,24.637 420.328,26.989 421.56,29.226 422.409,31.129 423.034,32.936 423.373,34.316 423.527,35.354 423.568,36.079 423.545,36.743 423.489,37.177 423.411,37.54 423.317,37.849 423.209,38.113 423.084,38.357 422.954,38.56 422.811,38.745 422.649,38.917 422.464,39.079 422.273,39.217 422.056,39.344 421.786,39.472 421.489,39.58 421.135,39.673 420.701,39.746 420.154,39.791 419.443,39.787 418.488,39.699 417.153,39.463 415.291,38.982 411.639,37.711 401.767,33.216 400.876,32.824 399.953,32.523 399.006,32.313 398.043,32.196 397.073,32.175 396.106,32.248 395.15,32.417 394.216,32.677 393.312,33.027 392.446,33.465 391.627,33.986 390.864,34.584 390.162,35.253 389.529,35.989 388.971,36.782 388.494,37.627 388.102,38.514 387.798,39.435 387.586,40.381 387.467,41.344 387.443,42.314 387.515,43.282 387.68,44.237 387.938,45.173 388.287,46.078 388.722,46.945 389.241,47.764 389.837,48.53 390.506,49.233 395.175,53.316 399.487,56.454 403.418,58.808 406.972,60.525 410.166,61.73 413.254,62.577 415.802,63.027 418.094,63.221 420.164,63.211 422.041,63.033 423.754,62.714 425.489,62.216 427.065,61.59 428.505,60.849 429.936,59.935 431.295,58.879 432.637,57.628 433.96,56.156 435.256,54.43 436.507,52.417 437.687,50.089 438.752,47.43 439.684,44.309 440.33,41.08 440.686,37.709 440.728,34.246 440.444,30.668 440.168,28.821 439.678,26.813 439.27,24.784 438.572,19.531 438.332,14.364 438.541,9.272 438.847,6.864 439.118,5.634 439.373,4.836 439.677,4.12 440.081,3.368 440.584,2.611 441.258,1.763 442.562,0.391 445.574,-2.254 451.549,-6.9 551.875,-6.9 545.701,-2.1 542.701,0.535 541.409,1.895 540.746,2.729 540.253,3.47 539.858,4.206 539.561,4.906 539.311,5.686 539.044,6.898 538.74,9.288 538.532,14.364 538.771,19.513 539.467,24.752 539.873,26.769 540.365,28.783 540.643,30.646 540.928,34.24 540.886,37.721 540.528,41.11 539.878,44.357 538.941,47.496 537.869,50.171 536.682,52.515 535.421,54.544 534.115,56.284 532.78,57.768 531.425,59.031 530.051,60.099 528.605,61.023 527.148,61.772 525.554,62.406 523.8,62.908 522.069,63.231 520.174,63.411 518.086,63.421 515.776,63.225 513.21,62.773 510.104,61.92 506.893,60.709 503.323,58.984 499.376,56.62 495.05,53.472 490.367,49.377 489.685,48.66 489.077,47.88 488.548,47.043 488.104,46.159 487.748,45.235 487.485,44.281 487.316,43.306 487.243,42.318 487.267,41.33 487.389,40.347 487.605,39.381 487.915,38.442 488.315,37.537 488.802,36.676 489.371,35.865 490.017,35.115 490.733,34.432 491.511,33.822 492.347,33.291 493.231,32.845 494.153,32.487 495.106,32.221 496.081,32.05 497.068,31.975 498.057,31.996 499.04,32.115 500.006,32.329 500.947,32.636 501.849,33.034 511.713,37.525 515.349,38.79 517.195,39.267 518.515,39.501 519.453,39.587 520.146,39.591 520.676,39.548 521.093,39.477 521.429,39.388 521.709,39.288 521.962,39.168 522.164,39.049 522.339,38.923 522.51,38.773 522.659,38.615 522.79,38.444 522.911,38.257 523.027,38.029 523.128,37.782 523.216,37.49 523.292,37.143 523.346,36.727 523.368,36.081 523.328,35.374 523.176,34.354 522.842,32.992 522.223,31.203 521.381,29.316 520.157,27.093 518.58,24.757 516.808,22.62 514.951,20.774 512.841,19.038 510.554,17.486 508.014,16.082 505.197,14.84 502.074,13.786 498.624,12.957 494.839,12.401 492.69,12.246 489.496,12.246 486.638,12.501 484.084,12.963 481.795,13.59 479.731,14.361 477.859,15.26 475.958,16.405 474.244,17.685 472.719,19.075 471.293,20.644 469.94,22.433 468.588,24.583 467.273,27.142 466.045,30.153 464.973,33.623 464.144,37.516 463.657,41.569 463.622,42.075 463.545,46.139 463.624,47.865 463.034,54.385 461.598,62.173 459.117,71.386 458.056,74.795 457.396,76.479 456.768,77.754 456.098,78.857 455.244,80.002 454.268,81.074 453.074,82.168 451.618,83.3 351.292,83.3" fill="none" stroke="black" stroke-width="0.1mm" />
<polyline points="351.292,-7.9 352.945,-9.185 354.126,-10.268 355.089,-11.326 355.932,-12.455 356.593,-13.542 357.213,-14.801 357.867,-16.471 358.925,-19.87 361.403,-29.071 362.836,-36.843 363.424,-43.339 363.345,-45.059 363.422,-49.133 363.458,-49.649 363.947,-53.716 364.779,-57.627 365.856,-61.115 367.091,-64.142 368.414,-66.717 369.775,-68.881 371.139,-70.684 372.577,-72.267 374.117,-73.669 375.846,-74.961 377.764,-76.116 379.653,-77.023 381.734,-77.8 384.04,-78.433 386.611,-78.897 389.487,-79.154 392.697,-79.154 394.861,-78.997 398.662,-78.439 402.129,-77.606 405.27,-76.546 408.103,-75.298 410.659,-73.884 412.961,-72.322 415.085,-70.574 416.956,-68.716 418.74,-66.563 420.328,-64.211 421.56,-61.974 422.409,-60.071 423.034,-58.264 423.373,-56.884 423.527,-55.846 423.568,-55.121 423.545,-54.457 423.489,-54.023 423.411,-53.66 423.317,-53.351 423.209,-53.087 423.084,-52.843 422.954,-52.64 422.811,-52.455 422.649,-52.283 422.464,-52.121 422.273,-51.983 422.056,-51.856 421.786,-51.728 421.489,-51.62 421.135,-51.527 420.701,-51.454 420.154,-51.409 419.443,-51.413 418.488,-51.501 417.153,-51.737 415.291,-52.218 411.639,-53.489 401.767,-57.984 400.876,-58.376 399.953,-58.677 399.006,-58.887 398.043,-59.004 397.073,-59.025 396.106,-58.952 395.15,-58.783 394.216,-58.523 393.312,-58.173 392.446,-57.735 391.627,-57.214 390.864,-56.616 390.162,-55.947 389.529,-55.211 388.971,-54.418 388.494,-53.573 388.102,-52.686 387.798,-51.765 387.586,-50.819 387.467,-49.856 387.443,-48.886 387.515,-47.918 387.68,-46.963 387.938,-46.027 388.287,-45.122 388.722,-44.255 389.241,-43.436 389.837,-42.67 390.506,-41.967 395.175,-37.884 399.487,-34.746 403.418,-32.392 406.972,-30.675 410.166,-29.47 413.254,-28.623 415.802,-28.173 418.094,-27.979 420.164,-27.989 422.041,-28.167 423.754,-28.486 425.489,-28.984 427.065,-29.61 428.505,-30.351 429.936,-31.265 431.295,-32.321 432.637,-33.572 433.96,-35.044 435.256,-36.77 436.507,-38.783 437.687,-41.111 438.752,-43.77 439.684,-46.891 440.33,-50.12 440.686,-53.491 440.728,-56.954 440.444,-60.532 440.168,-62.379 439.678,-64.387 439.27,-66.416 438.572,-71.669 438.332,-76.836 438.541,-81.928 438.847,-84.336 439.118,-85.566 439.373,-86.364 439.677,-87.08 440.081,-87.832 440.584,-88.589 441.258,-89.437 442.562,-90.809 445.574,-93.454 451.549,-98.1 551.875,-98.1 545.701,-93.3 542.701,-90.665 541.409,-89.305 540.746,-88.471 540.253,-87.73 539.858,-86.994 539.561,-86.294 539.311,-85.514 539.044,-84.302 538.74,-81.912 538.532,-76.836 538.771,-71.687 539.467,-66.448 539.873,-64.431 540.365,-62.417 540.643,-60.554 540.928,-56.96 540.886,-53.479 540.528,-50.09 539.878,-46.843 538.941,-43.704 537.869,-41.029 536.682,-38.685 535.421,-36.656 534.115,-34.916 532.78,-33.432 531.425,-32.169 530.051,-31.101 528.605,-30.177 527.148,-29.428 525.554,-28.794 523.8,-28.292 522.069,-27.969 520.174,-27.789 518.086,-27.779 515.776,-27.975 513.21,-28.427 510.104,-29.28 506.893,-30.491 503.323,-32.216 499.376,-34.58 495.05,-37.728 490.367,-41.823 489.685,-42.54 489.077,-43.32 488.548,-44.157 488.104,-45.041 487.748,-45.965 487.485,-46.919 487.316,-47.894 487.243,-48.882 487.267,-49.87 487.389,-50.853 487.605,-51.819 487.915,-52.758 488.315,-53.663 488.802,-54.524 489.371,-55.335 490.017,-56.085 490.733,-56.768 491.511,-57.378 492.347,-57.909 493.231,-58.355 494.153,-58.713 495.106,-58.979 496.081,-59.15 497.068,-59.225 498.057,-59.204 499.04,-59.085 500.006,-58.871 500.947,-58.564 501.849,-58.166 511.713,-53.675 515.349,-52.41 517.195,-51.933 518.515,-51.699 519.453,-51.613 520.146,-51.609 520.676,-51.652 521.093,-51.723 521.429,-51.812 521.709,-51.912 521.962,-52.032 522.164,-52.151 522.339,-52.277 522.51,-52.427 522.659,-52.585 522.79,-52.756 522.911,-52.943 523.027,-53.171 523.128,-53.418 523.216,-53.71 523.292,-54.057 523.346,-54.473 523.368,-55.119 523.328,-55.826 523.176,-56.846 522.842,-58.208 522.223,-59.997 521.381,-61.884 520.157,-64.107 518.58,-66.443 516.808,-68.58 514.951,-70.426 512.841,-72.162 510.554,-73.714 508.014,-75.118 505.197,-76.36 502.074,-77.414 498.624,-78.243 494.839,-78.799 492.69,-78.954 489.496,-78.954 486.638,-78.699 484.084,-78.237 481.795,-77.61 479.731,-76.839 477.859,-75.94 475.958,-74.795 474.244,-73.515 472.719,-72.125 471.293,-70.556 469.94,-68.767 468.588,-66.617 467.273,-64.058 466.045,-61.047 464.973,-57.577 464.144,-53.684 463.657,-49.631 463.622,-49.125 463.545,-45.061 463.624,-43.335 463.034,-36.815 461.598,-29.027 459.117,-19.814 458.056,-16.405 457.396,-14.721 456.768,-13.446 456.098,-12.343 455.244,-11.198 454.268,-10.126 453.074,-9.032 451.618,-7.9 351.292,-7.9" fill="none" stroke="black" stroke-width="0.1mm" />
</svg>