<?xml version="1.0" standalone="no"?>
<!DOCTYPE svg PUBLIC "-//W3C//DTD SVG 1.1//EN" "http://www.w3.org/Graphics/SVG/1.1/DTD/svg11.dtd">
<svg xmlns="http://www.w3.org/2000/svg" width="500mm" height="350mm" viewBox="0 0 500 350" version="1.1">
<polyline points="48.917,311.3 50.57,310.015 51.752,308.932 52.714,307.874 53.558,306.745 54.219,305.658 54.838,304.399 55.492,302.729 56.55,299.33 59.029,290.129 60.461,282.357 61.049,275.861 60.97,274.141 61.048,270.067 61.083,269.551 61.572,265.484 62.405,261.573 63.481,258.085 64.717,255.058 66.039,252.483 67.4,250.319 68.764,248.516 70.203,246.933 71.742,245.531 73.472,244.239 75.389,243.084 77.278,242.177 79.359,241.4 81.665,240.767 84.236,240.303 87.112,240.046 90.322,240.046 92.486,240.203 96.287,240.761 99.754,241.594 102.895,242.654 105.728,243.902 108.284,245.316 110.586,246.878 112.711,248.626 114.581,250.484 116.366,252.637 117.953,254.989 119.185,257.226 120.035,259.129 120.659,260.936 120.998,262.316 121.152,263.354 121.194,264.079 121.17,264.743 121.114,265.177 121.035,265.54 120.942,265.848 120.834,266.113 120.708,266.357 120.579,266.559 120.437,266.745 120.274,266.917 120.089,267.079 119.898,267.217 119.681,267.344 119.411,267.472 119.114,267.58 118.761,267.673 118.326,267.746 117.779,267.791 117.069,267.787 116.113,267.699 114.778,267.463 112.916,266.982 109.264,265.711 99.393,261.216 98.501,260.824 97.578,260.523 96.632,260.313 95.668,260.196 94.698,260.175 93.731,260.248 92.776,260.417 91.841,260.677 90.937,261.027 90.071,261.465 89.252,261.986 88.489,262.584 87.787,263.253 87.154,263.989 86.596,264.782 86.119,265.627 85.727,266.514 85.423,267.435 85.211,268.381 85.092,269.344 85.069,270.314 85.14,271.282 85.305,272.237 85.564,273.173 85.912,274.078 86.348,274.945 86.866,275.764 87.462,276.53 88.131,277.233 92.8,281.316 97.112,284.454 101.043,286.808 104.597,288.525 107.791,289.73 110.879,290.577 113.427,291.027 115.719,291.221 117.79,291.211 119.666,291.033 121.379,290.714 123.114,290.216 124.69,289.59 126.131,288.849 127.561,287.935 128.921,286.879 130.262,285.628 131.585,284.156 132.881,282.43 134.132,280.417 135.312,278.089 136.377,275.43 137.309,272.309 137.956,269.08 138.312,265.709 138.353,262.246 138.069,258.668 137.793,256.821 137.303,254.813 136.895,252.784 136.197,247.531 135.957,242.364 136.166,237.272 136.472,234.864 136.743,233.634 136.999,232.836 137.302,232.12 137.707,231.368 138.21,230.611 138.883,229.763 140.187,228.391 143.199,225.746 149.174,221.1 249.5,221.1 243.326,225.9 240.326,228.535 239.034,229.895 238.371,230.729 237.878,231.47 237.483,232.206 237.186,232.906 236.936,233.686 236.669,234.898 236.365,237.288 236.158,242.364 236.396,247.513 237.092,252.752 237.498,254.769 237.99,256.783 238.268,258.646 238.554,262.24 238.511,265.721 238.153,269.11 237.504,272.357 236.566,275.496 235.495,278.171 234.307,280.515 233.046,282.544 231.74,284.284 230.405,285.768 229.05,287.031 227.676,288.099 226.23,289.023 224.773,289.772 223.179,290.406 221.425,290.908 219.694,291.231 217.799,291.411 215.711,291.421 213.402,291.225 210.835,290.773 207.73,289.92 204.518,288.709 200.948,286.984 197.001,284.62 192.675,281.472 187.992,277.377 187.311,276.66 186.703,275.88 186.173,275.043 185.729,274.159 185.373,273.235 185.11,272.281 184.941,271.306 184.868,270.318 184.893,269.33 185.014,268.347 185.23,267.381 185.54,266.442 185.94,265.537 186.427,264.676 186.996,263.865 187.642,263.115 188.358,262.432 189.137,261.822 189.972,261.291 190.856,260.845 191.778,260.487 192.731,260.221 193.706,260.05 194.693,259.975 195.683,259.996 196.665,260.115 197.631,260.329 198.572,260.636 199.474,261.034 209.339,265.525 212.975,266.79 214.821,267.267 216.14,267.501 217.078,267.587 217.772,267.591 218.301,267.548 218.718,267.477 219.055,267.388 219.334,267.288 219.588,267.168 219.789,267.049 219.964,266.923 220.135,266.773 220.284,266.615 220.416,266.444 220.536,266.257 220.652,266.029 220.753,265.781 220.843,265.49 220.917,265.143 220.971,264.727 220.993,264.081 220.953,263.374 220.801,262.354 220.467,260.992 219.848,259.203 219.006,257.316 217.782,255.093 216.205,252.757 214.434,250.62 212.576,248.774 210.466,247.038 208.179,245.486 205.639,244.082 202.822,242.84 199.699,241.786 196.25,240.957 192.465,240.401 190.315,240.246 187.121,240.246 184.263,240.501 181.71,240.963 179.42,241.59 177.357,242.361 175.484,243.26 173.583,244.405 171.869,245.685 170.344,247.075 168.918,248.644 167.565,250.433 166.213,252.583 164.898,255.142 163.67,258.153 162.598,261.623 161.769,265.516 161.282,269.569 161.247,270.075 161.171,274.139 161.25,275.865 160.66,282.385 159.223,290.173 156.743,299.386 155.681,302.795 155.021,304.479 154.393,305.754 153.723,306.857 152.869,308.002 151.893,309.074 150.699,310.168 149.243,311.3 48.917,311.3" fill="none" stroke="black" stroke-width="0.1mm" />
<polyline points="48.917,220.1 50.57,218.815 51.752,217.732 52.714,216.674 53.558,215.545 54.219,214.458 54.838,213.199 55.492,211.529 56.55,208.13 59.029,198.929 60.461,191.157 61.049,184.661 60.97,182.941 61.048,178.867 61.083,178.351 61.572,174.284 62.405,170.373 63.481,166.885 64.717,163.858 66.039,161.283 67.4,159.119 68.764,157.316 70.203,155.733 71.742,154.331 73.472,153.039 75.389,151.884 77.278,150.977 79.359,150.2 81.665,149.567 84.236,149.103 87.112,148.846 90.322,148.846 92.486,149.003 96.287,149.561 99.754,150.394 102.895,151.454 105.728,152.702 108.284,154.116 110.586,155.678 112.711,157.426 114.581,159.284 116.366,161.437 117.953,163.789 119.185,166.026 120.035,167.929 120.659,169.736 120.998,171.116 121.152,172.154 121.194,172.879 121.17,173.543 121.114,173.977 121.035,174.34 120.942,174.648 120.834,174.913 120.708,175.157 120.579,175.359 120.437,175.545 120.274,175.717 120.089,175.879 119.898,176.017 119.681,176.144 119.411,176.272 119.114,176.38 118.761,176.473 118.326,176.546 117.779,176.591 117.069,176.587 116.113,176.499 114.778,176.263 112.916,175.782 109.264,174.511 99.393,170.016 98.501,169.624 97.578,169.323 96.632,169.113 95.668,168.996 94.698,168.975 93.731,169.048 92.776,169.217 91.841,169.477 90.937,169.827 90.071,170.265 89.252,170.786 88.489,171.384 87.787,172.053 87.154,172.789 86.596,173.582 86.119,174.427 85.727,175.314 85.423,176.235 85.211,177.181 85.092,178.144 85.069,179.114 85.14,180.082 85.305,181.037 85.564,181.973 85.912,182.878 86.348,183.745 86.866,184.564 87.462,185.33 88.131,186.033 92.8,190.116 97.112,193.254 101.043,195.608 104.597,197.325 107.791,198.53 110.879,199.377 113.427,199.827 115.719,200.021 117.79,200.011 119.666,199.833 121.379,199.514 123.114,199.016 124.69,198.39 126.131,197.649 127.561,196.735 128.921,195.679 130.262,194.428 131.585,192.956 132.881,191.23 134.132,189.217 135.312,186.889 136.377,184.23 137.309,181.109 137.956,177.88 138.312,174.509 138.353,171.046 138.069,167.468 137.793,165.621 137.303,163.613 136.895,161.584 136.197,156.331 135.957,151.164 136.166,146.072 136.472,143.664 136.743,142.434 136.999,141.636 137.302,140.92 137.707,140.168 138.21,139.411 138.883,138.563 140.187,137.191 143.199,134.546 149.174,129.9 249.5,129.9 243.326,134.7 240.326,137.335 239.034,138.695 238.371,139.529 237.878,140.27 237.483,141.006 237.186,141.706 236.936,142.486 236.669,143.698 236.365,146.088 236.158,151.164 236.396,156.313 237.092,161.552 237.498,163.569 237.99,165.583 238.268,167.446 238.554,171.04 238.511,174.521 238.153,177.91 237.504,181.157 236.566,184.296 235.495,186.971 234.307,189.315 233.046,191.344 231.74,193.084 230.405,194.568 229.05,195.831 227.676,196.899 226.23,197.823 224.773,198.572 223.179,199.206 221.425,199.708 219.694,200.031 217.799,200.211 215.711,200.221 213.402,200.025 210.835,199.573 207.73,198.72 204.518,197.509 200.948,195.784 197.001,193.42 192.675,190.272 187.992,186.177 187.311,185.46 186.703,184.68 186.173,183.843 185.729,182.959 185.373,182.035 185.11,181.081 184.941,180.106 184.868,179.118 184.893,178.13 185.014,177.147 185.23,176.181 185.54,175.242 185.94,174.337 186.427,173.476 186.996,172.665 187.642,171.915 188.358,171.232 189.137,170.622 189.972,170.091 190.856,169.645 191.778,169.287 192.731,169.021 193.706,168.85 194.693,168.775 195.683,168.796 196.665,168.915 197.631,169.129 198.572,169.436 199.474,169.834 209.339,174.325 212.975,175.59 214.821,176.067 216.14,176.301 217.078,176.387 217.772,176.391 218.301,176.348 218.718,176.277 219.055,176.188 219.334,176.088 219.588,175.968 219.789,175.849 219.964,175.723 220.135,175.573 220.284,175.415 220.416,175.244 220.536,175.057 220.652,174.829 220.753,174.581 220.843,174.29 220.917,173.943 220.971,173.527 220.993,172.881 220.953,172.174 220.801,171.154 220.467,169.792 219.848,168.003 219.006,166.116 217.782,163.893 216.205,161.557 214.434,159.42 212.576,157.574 210.466,155.838 208.179,154.286 205.639,152.882 202.822,151.64 199.699,150.586 196.25,149.757 192.465,149.201 190.315,149.046 187.121,149.046 184.263,149.301 181.71,149.763 179.42,150.39 177.357,151.161 175.484,152.06 173.583,153.205 171.869,154.485 170.344,155.875 168.918,157.444 167.565,159.233 166.213,161.383 164.898,163.942 163.67,166.953 162.598,170.423 161.769,174.316 161.282,178.369 161.247,178.875 161.171,182.939 161.25,184.665 160.66,191.185 159.223,198.973 156.743,208.186 155.681,211.595 155.021,213.279 154.393,214.554 153.723,215.657 152.869,216.802 151.893,217.874 150.699,218.968 149.243,220.1 48.917,220.1" fill="none" stroke="black" stroke-width="0.1mm" />
<polyline points="48.917,128.9 50.57,127.615 51.752,126.532 52.714,125.474 53.558,124.345 54.219,123.258 54.838,121.999 55.492,120.329 56.55,116.93 59.029,107.729 60.461,99.957 61.049,93.461 60.97,91.741 61.048,87.667 61.083,87.151 61.572,83.084 62.405,79.173 63.481,75.685 64.717,72.658 66.039,70.083 67.4,67.919 68.764,66.116 70.203,64.533 71.742,63.131 73.472,61.839 75.389,60.684 77.278,59.777 79.359,59 81.665,58.367 84.236,57.903 87.112,57.646 90.322,57.646 92.486,57.803 96.287,58.361 99.754,59.194 102.895,60.254 105.728,61.502 108.284,62.916 110.586,64.478 112.711,66.226 114.581,68.084 116.366,70.237 117.953,72.589 119.185,74.826 120.035,76.729 120.659,78.536 120.998,79.916 121.152,80.954 121.194,81.679 121.17,82.343 121.114,82.777 121.035,83.14 120.942,83.448 120.834,83.713 120.708,83.957 120.579,84.159 120.437,84.345 120.274,84.517 120.089,84.679 119.898,84.817 119.681,84.944 119.411,85.072 119.114,85.18 118.761,85.273 118.326,85.346 117.779,85.391 117.069,85.387 116.113,85.299 114.778,85.063 112.916,84.582 109.264,83.311 99.393,78.816 98.501,78.424 97.578,78.123 96.632,77.913 95.668,77.796 94.698,77.775 93.731,77.848 92.776,78.017 91.841,78.277 90.937,78.627 90.071,79.065 89.252,79.586 88.489,80.184 87.787,80.853 87.154,81.589 86.596,82.382 86.119,83.227 85.727,84.114 85.423,85.035 85.211,85.981 85.092,86.944 85.069,87.914 85.14,88.882 85.305,89.837 85.564,90.773 85.912,91.678 86.348,92.545 86.866,93.364 87.462,94.13 88.131,94.833 92.8,98.916 97.112,102.054 101.043,104.408 104.597,106.125 107.791,107.33 110.879,108.177 113.427,108.627 115.719,108.821 117.79,108.811 119.666,108.633 121.379,108.314 123.114,107.816 124.69,107.19 126.131,106.449 127.561,105.535 128.921,104.479 130.262,103.228 131.585,101.756 132.881,100.03 134.132,98.017 135.312,95.689 136.377,93.03 137.309,89.909 137.956,86.68 138.312,83.309 138.353,79.846 138.069,76.268 137.793,74.421 137.303,72.413 136.895,70.384 136.197,65.131 135.957,59.964 136.166,54.872 136.472,52.464 136.743,51.234 136.999,50.436 137.302,49.72 137.707,48.968 138.21,48.211 138.883,47.363 140.187,45.991 143.199,43.346 149.174,38.7 249.5,38.7 243.326,43.5 240.326,46.135 239.034,47.495 238.371,48.329 237.878,49.07 237.483,49.806 237.186,50.506 236.936,51.286 236.669,52.498 236.365,54.888 236.158,59.964 236.396,65.113 237.092,70.351 237.498,72.369 237.99,74.383 238.268,76.246 238.554,79.84 238.511,83.321 238.153,86.71 237.504,89.957 236.566,93.096 235.495,95.771 234.307,98.115 233.046,100.144 231.74,101.884 230.405,103.368 229.05,104.631 227.676,105.699 226.23,106.623 224.773,107.372 223.179,108.006 221.425,108.508 219.694,108.831 217.799,109.011 215.711,109.021 213.402,108.825 210.835,108.373 207.73,107.52 204.518,106.309 200.948,104.584 197.001,102.22 192.675,99.072 187.992,94.977 187.311,94.26 186.703,93.48 186.173,92.643 185.729,91.759 185.373,90.835 185.11,89.881 184.941,88.906 184.868,87.918 184.893,86.93 185.014,85.947 185.23,84.981 185.54,84.042 185.94,83.137 186.427,82.276 186.996,81.465 187.642,80.715 188.358,80.032 189.137,79.422 189.972,78.891 190.856,78.445 191.778,78.087 192.731,77.821 193.706,77.65 194.693,77.575 195.683,77.596 196.665,77.715 197.631,77.929 198.572,78.236 199.474,78.634 209.339,83.125 212.975,84.39 214.821,84.867 216.14,85.101 217.078,85.187 217.772,85.191 218.301,85.148 218.718,85.077 219.055,84.988 219.334,84.888 219.588,84.768 219.789,84.649 219.964,84.523 220.135,84.373 220.284,84.215 220.416,84.044 220.536,83.857 220.652,83.629 220.753,83.381 220.843,83.09 220.917,82.743 220.971,82.327 220.993,81.681 220.953,80.974 220.801,79.954 220.467,78.592 219.848,76.803 219.006,74.916 217.782,72.693 216.205,70.357 214.434,68.22 212.576,66.374 210.466,64.638 208.179,63.086 205.639,61.682 202.822,60.44 199.699,59.386 196.25,58.557 192.465,58.001 190.315,57.846 187.121,57.846 184.263,58.101 181.71,58.563 179.42,59.19 177.357,59.961 175.484,60.86 173.583,62.005 171.869,63.285 170.344,64.675 168.918,66.244 167.565,68.033 166.213,70.183 164.898,72.742 163.67,75.753 162.598,79.223 161.769,83.116 161.282,87.169 161.247,87.675 161.171,91.739 161.25,93.465 160.66,99.985 159.223,107.773 156.743,116.986 155.681,120.395 155.021,122.079 154.393,123.354 153.723,124.457 152.869,125.602 151.893,126.674 150.699,127.768 149.243,128.9 48.917,128.9" fill="none" stroke="black" stroke-width="0.1mm" />
<polyline points="250.5,128.9 252.153,127.615 253.335,126.532 254.297,125.474 255.141,124.345 255.802,123.258 256.421,121.999 257.075,120.329 258.134,116.93 260.612,107.729 262.045,99.957 262.632,93.461 262.554,91.741 262.631,87.667 262.666,87.151 263.155,83.084 263.988,79.173 265.064,75.685 266.3,72.658 267.623,70.083 268.983,67.919 270.348,66.116 271.786,64.533 273.325,63.131 275.055,61.839 276.972,60.684 278.861,59.777 280.942,59 283.249,58.367 285.819,57.903 288.695,57.646 291.905,57.646 294.07,57.803 297.871,58.361 301.337,59.194 304.478,60.254 307.311,61.502 309.867,62.916 312.17,64.478 314.294,66.226 316.165,68.084 317.949,70.237 319.536,72.589 320.768,74.826 321.618,76.729 322.243,78.536 322.581,79.916 322.735,80.954 322.777,81.679 322.753,82.343 322.697,82.777 322.619,83.14 322.525,83.448 322.418,83.713 322.291,83.957 322.163,84.159 322.02,84.345 321.857,84.517 321.672,84.679 321.481,84.817 321.265,84.944 320.994,85.072 320.697,85.18 320.344,85.273 319.909,85.346 319.362,85.391 318.652,85.387 317.696,85.299 316.361,85.063 314.5,84.582 310.847,83.311 300.976,78.816 300.084,78.424 299.161,78.123 298.215,77.913 297.252,77.796 296.281,77.775 295.314,77.848 294.359,78.017 293.424,78.277 292.52,78.627 291.654,79.065 290.835,79.586 290.072,80.184 289.37,80.853 288.738,81.589 288.179,82.382 287.702,83.227 287.31,84.114 287.006,85.035 286.794,85.981 286.676,86.944 286.652,87.914 286.723,88.882 286.888,89.837 287.147,90.773 287.495,91.678 287.931,92.545 288.45,93.364 289.046,94.13 289.714,94.833 294.383,98.916 298.695,102.054 302.626,104.408 306.18,106.125 309.375,107.33 312.463,108.177 315.011,108.627 317.303,108.821 319.373,108.811 321.25,108.633 322.963,108.314 324.697,107.816 326.273,107.19 327.714,106.449 329.144,105.535 330.504,104.479 331.845,103.228 333.168,101.756 334.464,100.03 335.715,98.017 336.896,95.689 337.96,93.03 338.893,89.909 339.539,86.68 339.895,83.309 339.937,79.846 339.652,76.268 339.376,74.421 338.886,72.413 338.478,70.384 337.78,65.131 337.541,59.964 337.749,54.872 338.055,52.464 338.326,51.234 338.582,50.436 338.885,49.72 339.29,48.968 339.793,48.211 340.466,47.363 341.77,45.991 344.782,43.346 350.757,38.7 451.083,38.7 444.909,43.5 441.909,46.135 440.617,47.495 439.955,48.329 439.462,49.07 439.066,49.806 438.769,50.506 438.519,51.286 438.252,52.498 437.948,54.888 437.741,59.964 437.979,65.113 438.675,70.351 439.081,72.369 439.573,74.383 439.851,76.246 440.137,79.84 440.095,83.321 439.737,86.71 439.087,89.957 438.149,93.096 437.078,95.771 435.89,98.115 434.629,100.144 433.323,101.884 431.988,103.368 430.634,104.631 429.259,105.699 427.814,106.623 426.356,107.372 424.762,108.006 423.009,108.508 421.278,108.831 419.383,109.011 417.295,109.021 414.985,108.825 412.419,108.373 409.313,107.52 406.101,106.309 402.531,104.584 398.584,102.22 394.258,99.072 389.575,94.977 388.894,94.26 388.286,93.48 387.757,92.643 387.312,91.759 386.957,90.835 386.693,89.881 386.524,88.906 386.452,87.918 386.476,86.93 386.597,85.947 386.813,84.981 387.123,84.042 387.523,83.137 388.01,82.276 388.58,81.465 389.225,80.715 389.941,80.032 390.72,79.422 391.555,78.891 392.439,78.445 393.361,78.087 394.315,77.821 395.289,77.65 396.276,77.575 397.266,77.596 398.249,77.715 399.214,77.929 400.155,78.236 401.058,78.634 410.922,83.125 414.558,84.39 416.404,84.867 417.723,85.101 418.662,85.187 419.355,85.191 419.884,85.148 420.302,85.077 420.638,84.988 420.917,84.888 421.171,84.768 421.372,84.649 421.547,84.523 421.718,84.373 421.867,84.215 421.999,84.044 422.119,83.857 422.236,83.629 422.336,83.381 422.426,83.09 422.5,82.743 422.554,82.327 422.577,81.681 422.536,80.974 422.384,79.954 422.051,78.592 421.432,76.803 420.589,74.916 419.365,72.693 417.789,70.357 416.017,68.22 414.16,66.374 412.05,64.638 409.762,63.086 407.222,61.682 404.405,60.44 401.282,59.386 397.833,58.557 394.048,58.001 391.898,57.846 388.704,57.846 385.846,58.101 383.293,58.563 381.003,59.19 378.94,59.961 377.067,60.86 375.167,62.005 373.452,63.285 371.928,64.675 370.502,66.244 369.148,68.033 367.797,70.183 366.482,72.742 365.253,75.753 364.182,79.223 363.352,83.116 362.865,87.169 362.831,87.675 362.754,91.739 362.833,93.465 362.243,99.985 360.806,107.773 358.326,116.986 357.264,120.395 356.604,122.079 355.976,123.354 355.307,124.457 354.452,125.602 353.477,126.674 352.282,127.768 350.826,128.9 250.5,128.9" fill="none" stroke="black" stroke-width="0.1mm" />
<polyline points="273.325,154.331 275.055,153.039 276.972,151.884 278.861,150.977 280.942,150.2 283.249,149.567 285.819,149.103 288.695,148.846 291.905,148.846 294.07,149.003 297.871,149.561 301.337,150.394 304.478,151.454 307.311,152.702 309.867,154.116 312.17,155.678 314.294,157.426 316.165,159.284 317.949,161.437 319.536,163.789 320.768,166.026 321.618,167.929 322.243,169.736 322.581,171.116 322.735,172.154 322.777,172.879 322.753,173.543 322.697,173.977 322.619,174.34 322.525,174.648 322.418,174.913 322.291,175.157 322.163,175.359 322.02,175.545 321.857,175.717 321.672,175.879 321.481,176.017 321.265,176.144 320.994,176.272 320.697,176.38 320.344,176.473 319.909,176.546 319.362,176.591 318.652,176.587 317.696,176.499 316.361,176.263 314.5,175.782 310.847,174.511 300.976,170.016 300.084,169.624 299.161,169.323 298.215,169.113 297.252,168.996 296.281,168.975 295.314,169.048 294.359,169.217 293.424,169.477 292.52,169.827 291.654,170.265 290.835,170.786 290.072,171.384 289.37,172.053 288.738,172.789 288.179,173.582 287.702,174.427 287.31,175.314 287.006,176.235 286.794,177.181 286.676,178.144 286.652,179.114 286.723,180.082 286.888,181.037 287.147,181.973 287.495,182.878 287.931,183.745 288.45,184.564 289.046,185.33 289.714,186.033 294.383,190.116 298.695,193.254 302.626,195.608 306.18,197.325 309.375,198.53 312.463,199.377 315.011,199.827 317.303,200.021 319.373,200.011 321.25,199.833 322.963,199.514 324.697,199.016 326.273,198.39 327.714,197.649 329.144,196.735 330.504,195.679 331.845,194.428 333.168,192.956 334.464,191.23 335.715,189.217 336.896,186.889 337.96,184.23 338.893,181.109 339.539,177.88 339.895,174.509 339.937,171.046 339.652,167.468 339.376,165.621 338.886,163.613 338.478,161.584 337.78,156.331 337.541,151.164 337.749,146.072 338.055,143.664 338.326,142.434 338.582,141.636 338.885,140.92 339.29,140.168 339.793,139.411 340.466,138.563 341.77,137.191 344.782,134.546 350.757,129.9 451.083,129.9 444.909,134.7 441.909,137.335 440.617,138.695 439.955,139.529 439.462,140.27 439.066,141.006 438.769,141.706 438.519,142.486 438.252,143.698 437.948,146.088 437.741,151.164 437.979,156.313 438.675,161.552 439.081,163.569 439.573,165.583 439.851,167.446 440.137,171.04 440.095,174.521 439.737,177.91 439.087,181.157 438.149,184.296 437.078,186.971 435.89,189.315 434.629,191.344 433.323,193.084 431.988,194.568 430.634,195.831 429.259,196.899 427.814,197.823 426.356,198.572 424.762,199.206 423.009,199.708 421.278,200.031 419.383,200.211 417.295,200.221 414.985,200.025 412.419,199.573 409.313,198.72 406.101,197.509 402.531,195.784 398.584,193.42 394.258,190.272 389.575,186.177 388.894,185.46 388.286,184.68 387.757,183.843 387.312,182.959 386.957,182.035 386.693,181.081 386.524,180.106 386.452,179.118 386.476,178.13 386.597,177.147 386.813,176.181 387.123,175.242 387.523,174.337 388.01,173.476 388.58,172.665 389.225,171.915 389.941,171.232 390.72,170.622 391.555,170.091 392.439,169.645 393.361,169.287 394.315,169.021 395.289,168.85 396.276,168.775 397.266,168.796 398.249,168.915 399.214,169.129 400.155,169.436 401.058,169.834 410.922,174.325 414.558,175.59 416.404,176.067 417.723,176.301 418.662,176.387 419.355,176.391 419.884,176.348 420.302,176.277 420.638,176.188 420.917,176.088 421.171,175.968 421.372,175.849 421.547,175.723 421.718,175.573 421.867,175.415 421.999,175.244 422.119,175.057 422.236,174.829 422.336,174.581 422.426,174.29 422.5,173.943 422.554,173.527 422.577,172.881 422.536,172.174 422.384,171.154 422.051,169.792 421.432,168.003 420.589,166.116 419.365,163.893 417.789,161.557 416.017,159.42 414.16,157.574 412.05,155.838 409.762,154.286 407.222,152.882 404.405,151.64 401.282,150.586 397.833,149.757 394.048,149.201 391.898,149.046 388.704,149.046 385.846,149.301 383.293,149.763 381.003,150.39 378.94,151.161 377.067,152.06 375.167,153.205 373.452,154.485 371.928,155.875 370.502,157.444 369.148,159.233 367.797,161.383 366.482,163.942 365.253,166.953 364.182,170.423 363.352,174.316 362.865,178.369 362.831,178.875 362.754,182.939 362.833,184.665 362.243,191.185 360.806,198.973 358.326,208.186 357.264,211.595 356.604,213.279 355.976,214.554 355.307,215.657 354.452,216.802 353.477,217.874 352.282,218.968 350.826,220.1 250.5,220.1 252.153,218.815 253.335,217.732 254.297,216.674 255.141,215.545 255.802,214.458 256.421,213.199 257.075,211.529 258.134,208.13 260.612,198.929 262.045,191.157 262.632,184.661 262.554,182.941 262.631,178.867 262.666,178.351 263.155,174.284 263.988,170.373 265.064,166.885 266.3,163.858 267.623,161.283 268.983,159.119 270.348,157.316 271.786,155.733 273.325,154.331" fill="none" stroke="black" stroke-width="0.1mm" />
<polyline points="285.819,240.303 288.695,240.046 291.905,240.046 294.07,240.203 297.871,240.761 301.337,241.594 304.478,242.654 307.311,243.902 309.867,245.316 312.17,246.878 314.294,248.626 316.165,250.484 317.949,252.637 319.536,254.989 320.768,257.226 321.618,259.129 322.243,260.936 322.581,262.316 322.735,263.354 322.777,264.079 322.753,264.743 322.697,265.177 322.619,265.54 322.525,265.848 322.418,266.113 322.291,266.357 322.163,266.559 322.02,266.745 321.857,266.917 321.672,267.079 321.481,267.217 321.265,267.344 320.994,267.472 320.697,267.58 320.344,267.673 319.909,267.746 319.362,267.791 318.652,267.787 317.696,267.699 316.361,267.463 314.5,266.982 310.847,265.711 300.976,261.216 300.084,260.824 299.161,260.523 298.215,260.313 297.252,260.196 296.281,260.175 295.314,260.248 294.359,260.417 293.424,260.677 292.52,261.027 291.654,261.465 290.835,261.986 290.072,262.584 289.37,263.253 288.738,263.989 288.179,264.782 287.702,265.627 287.31,266.514 287.006,267.435 286.794,268.381 286.676,269.344 286.652,270.314 286.723,271.282 286.888,272.237 287.147,273.173 287.495,274.078 287.931,274.945 288.45,275.764 289.046,276.53 289.714,277.233 294.383,281.316 298.695,284.454 302.626,286.808 306.18,288.525 309.375,289.73 312.463,290.577 315.011,291.027 317.303,291.221 319.373,291.211 321.25,291.033 322.963,290.714 324.697,290.216 326.273,289.59 327.714,288.849 329.144,287.935 330.504,286.879 331.845,285.628 333.168,284.156 334.464,282.43 335.715,280.417 336.896,278.089 337.96,275.43 338.893,272.309 339.539,269.08 339.895,265.709 339.937,262.246 339.652,258.668 339.376,256.821 338.886,254.813 338.478,252.784 337.78,247.531 337.541,242.364 337.749,237.272 338.055,234.864 338.326,233.634 338.582,232.836 338.885,232.12 339.29,231.368 339.793,230.611 340.466,229.763 341.77,228.391 344.782,225.746 350.757,221.1 451.083,221.1 444.909,225.9 441.909,228.535 440.617,229.895 439.955,230.729 439.462,231.47 439.066,232.206 438.769,232.906 438.519,233.686 438.252,234.898 437.948,237.288 437.741,242.364 437.979,247.513 438.675,252.752 439.081,254.769 439.573,256.783 439.851,258.646 440.137,262.24 440.095,265.721 439.737,269.11 439.087,272.357 438.149,275.496 437.078,278.171 435.89,280.515 434.629,282.544 433.323,284.284 431.988,285.768 430.634,287.031 429.259,288.099 427.814,289.023 426.356,289.772 424.762,290.406 423.009,290.908 421.278,291.231 419.383,291.411 417.295,291.421 414.985,291.225 412.419,290.773 409.313,289.92 406.101,288.709 402.531,286.984 398.584,284.62 394.258,281.472 389.575,277.377 388.894,276.66 388.286,275.88 387.757,275.043 387.312,274.159 386.957,273.235 386.693,272.281 386.524,271.306 386.452,270.318 386.476,269.33 386.597,268.347 386.813,267.381 387.123,266.442 387.523,265.537 388.01,264.676 388.58,263.865 389.225,263.115 389.941,262.432 390.72,261.822 391.555,261.291 392.439,260.845 393.361,260.487 394.315,260.221 395.289,260.05 396.276,259.975 397.266,259.996 398.249,260.115 399.214,260.329 400.155,260.636 401.058,261.034 410.922,265.525 414.558,266.79 416.404,267.267 417.723,267.501 418.662,267.587 419.355,267.591 419.884,267.548 420.302,267.477 420.638,267.388 420.917,267.288 421.171,267.168 421.372,267.049 421.547,266.923 421.718,266.773 421.867,266.615 421.999,266.444 422.119,266.257 422.236,266.029 422.336,265.781 422.426,265.49 422.5,265.143 422.554,264.727 422.577,264.081 422.536,263.374 422.384,262.354 422.051,260.992 421.432,259.203 420.589,257.316 419.365,255.093 417.789,252.757 416.017,250.62 414.16,248.774 412.05,247.038 409.762,245.486 407.222,244.082 404.405,242.84 401.282,241.786 397.833,240.957 394.048,240.401 391.898,240.246 388.704,240.246 385.846,240.501 383.293,240.963 381.003,241.59 378.94,242.361 377.067,243.26 375.167,244.405 373.452,245.685 371.928,247.075 370.502,248.644 369.148,250.433 367.797,252.583 366.482,255.142 365.253,258.153 364.182,261.623 363.352,265.516 362.865,269.569 362.831,270.075 362.754,274.139 362.833,275.865 362.243,282.385 360.806,290.173 358.326,299.386 357.264,302.795 356.604,304.479 355.976,305.754 355.307,306.857 354.452,308.002 353.477,309.074 352.282,310.168 350.826,311.3 250.5,311.3 252.153,310.015 253.335,308.932 254.297,307.874 255.141,306.745 255.802,305.658 256.421,304.399 257.075,302.729 258.134,299.33 260.612,290.129 262.045,282.357 262.632,275.861 262.554,274.141 262.631,270.067 262.666,269.551 263.155,265.484 263.988,261.573 265.064,258.085 266.3,255.058 267.623,252.483 268.983,250.319 270.348,248.516 271.786,246.933 273.325,245.531 275.055,244.239 276.972,243.084 278.861,242.177 280.942,241.4 283.249,240.767 285.819,240.303" fill="none" stroke="black" stroke-width="0.1mm" />
</svg>